<svg id="Layer_1" height="512" viewBox="0 0 512 512" width="512" xmlns="http://www.w3.org/2000/svg" xmlns:xlink="http://www.w3.org/1999/xlink" data-name="Layer 1"><linearGradient id="linear-gradient" gradientUnits="userSpaceOnUse" x1="256" x2="256" y1="482" y2="20.264"><stop offset=".322" stop-color="#a163f5"/><stop offset=".466" stop-color="#b074ee"/><stop offset=".752" stop-color="#d8a1dd"/><stop offset=".898" stop-color="#efbad3"/></linearGradient><linearGradient id="linear-gradient-2" x1="129.81" x2="129.81" xlink:href="#linear-gradient" y1="482" y2="20.264"/><linearGradient id="linear-gradient-3" x1="213.936" x2="213.936" xlink:href="#linear-gradient" y1="482" y2="20.264"/><linearGradient id="linear-gradient-4" x1="298.062" x2="298.062" xlink:href="#linear-gradient" y1="482" y2="20.264"/><linearGradient id="linear-gradient-5" x1="382.187" x2="382.188" xlink:href="#linear-gradient" y1="482" y2="20.264"/><path d="m459.684 170.416h-33.5c-.632-41.748-17.951-80.971-48.951-110.676-31.5-30.188-73.421-46.981-118.071-47.284h-6.316c-44.622 0-86.553 16.631-118.07 46.831-31 29.71-48.324 69.094-48.952 111.129h-33.5c-23.333 0-42.316 18.3-42.316 40.8 0 21.056 16.63 38.435 37.892 40.575v193.34c0 30 25.359 54.416 56.53 54.416h303.145c31.171 0 56.53-24.411 56.53-54.416v-193.343c21.263-2.138 37.895-19.518 37.895-40.575 0-22.496-18.983-40.797-42.316-40.797zm-316.609-102.464c29.271-28.049 68.254-43.5 109.767-43.5h6.275c41.53.282 80.529 15.89 109.81 43.948 28.614 27.419 44.62 63.565 45.253 102.012h-316.36c.628-38.729 16.635-75.036 45.255-102.46zm264.5 419.592h-303.153c-24.554 0-44.53-19.027-44.53-42.416v-193.116h392.213v193.116c0 23.389-19.976 42.416-44.53 42.416zm52.109-247.532h-407.368c-16.716 0-30.316-12.919-30.316-28.799s13.6-28.8 30.316-28.8h407.368c16.716 0 30.316 12.918 30.316 28.8s-13.6 28.799-30.316 28.799z" fill="url(#linear-gradient)"/><path d="m129.81 315.666a21.652 21.652 0 0 0 -21.628 21.627v65.577a21.628 21.628 0 0 0 43.256 0v-65.577a21.653 21.653 0 0 0 -21.628-21.627zm9.628 87.2a9.628 9.628 0 1 1 -19.256 0v-65.573a9.628 9.628 0 0 1 19.256 0z" fill="url(#linear-gradient-2)"/><path d="m213.936 315.666a21.652 21.652 0 0 0 -21.628 21.627v65.577a21.628 21.628 0 1 0 43.255 0v-65.577a21.652 21.652 0 0 0 -21.627-21.627zm9.627 87.2a9.628 9.628 0 1 1 -19.255 0v-65.573a9.628 9.628 0 0 1 19.255 0z" fill="url(#linear-gradient-3)"/><path d="m298.062 315.666a21.652 21.652 0 0 0 -21.628 21.627v65.577a21.628 21.628 0 1 0 43.255 0v-65.577a21.652 21.652 0 0 0 -21.627-21.627zm9.627 87.2a9.628 9.628 0 1 1 -19.255 0v-65.573a9.628 9.628 0 0 1 19.255 0z" fill="url(#linear-gradient-4)"/><path d="m382.187 315.666a21.652 21.652 0 0 0 -21.627 21.627v65.577a21.628 21.628 0 1 0 43.255 0v-65.577a21.652 21.652 0 0 0 -21.628-21.627zm9.628 87.2a9.628 9.628 0 1 1 -19.255 0v-65.573a9.628 9.628 0 0 1 19.255 0z" fill="url(#linear-gradient-5)"/></svg>