<svg width="373" height="373" viewBox="0 0 373 373" fill="none" xmlns="http://www.w3.org/2000/svg">
<g filter="url(#filter0_d)">
<circle cx="186.011" cy="172.011" r="152.011" fill="white"/>
</g>
<mask id="mask0" mask-type="alpha" maskUnits="userSpaceOnUse" x="53" y="39" width="267" height="267">
<circle cx="186.011" cy="172.011" r="133.01" fill="#C4C4C4"/>
</mask>
<g mask="url(#mask0)">
<path d="M40.6723 314.551C40.6723 314.551 26.7048 288.751 33.3573 257.861C40.0374 226.932 57.1793 203.33 51.6586 167.581C45.0889 125.121 60.4642 89.2949 87.7091 93.9226C133.366 101.636 166.187 53.4298 182.887 48.6093C232.38 34.3404 241.407 86.5568 268.1 91.6473C325.736 102.638 343.568 137.771 341.498 205.181C340.808 227.356 384.946 271.744 359.606 314.551H40.6723Z" fill="#E2E9FB"/>
<path d="M113.565 92.6655L108.965 93.8154V227.592H113.565V92.6655Z" fill="#D3DDF8"/>
<path d="M154.196 70.0499L148.83 73.8831V227.592H154.196V70.0499Z" fill="#D3DDF8"/>
<path d="M194.061 46.4593L189.461 47.051V227.592H194.061V46.4593Z" fill="#D3DDF8"/>
<path d="M191.644 152.972V148.076L69.6469 148.076V152.972L191.644 152.972Z" fill="#D3DDF8"/>
<path d="M191.623 190.127V185.231L69.6264 185.231V190.127L191.623 190.127Z" fill="#D3DDF8"/>
<path d="M191.632 227.283V222.387L69.635 222.387V227.283L191.632 227.283Z" fill="#D3DDF8"/>
<path d="M73.7004 100.332H68.334V227.592H73.7004V100.332Z" fill="#D3DDF8"/>
<path d="M100.459 204.739C99.4659 205.928 99.1624 207.975 98.7485 209.413C98.4449 210.575 98.169 211.737 97.9482 212.898H97.1755C97.7274 209.69 98.2242 206.426 99.0796 203.356C99.7143 201.115 101.149 200.009 103.302 199.373C105.123 198.847 106.972 198.377 108.821 197.879C109.097 197.796 103.853 197.989 101.453 198.653C100.625 198.875 99.5487 199.096 98.6105 199.483C99.7695 196.081 101.26 192.706 102.888 189.304C103.053 188.972 92.8432 198.487 95.4095 212.898H94.6644C94.6368 212.871 94.6092 212.843 94.5816 212.788C93.533 209.303 93.7262 205.513 92.3189 202.111C91.0219 198.985 88.5108 196.606 85.8341 194.615C85.5857 194.421 85.365 194.781 85.4753 194.975C86.7999 198.045 89.0075 200.534 90.3872 203.522C91.5186 205.983 92.4016 208.556 93.2847 211.101C92.1257 209.828 90.7184 208.943 88.7315 208.694C85.6409 208.334 84.2612 210.132 83.2678 212.843C83.1574 213.147 83.6265 213.313 83.7645 213.064C84.7303 211.322 87.1586 210.879 88.9799 210.879C90.8287 210.879 92.2913 211.792 93.6986 212.871H91.491L93.2019 223.243H99.1348L100.846 212.871H99.3831C99.8798 211.681 100.294 210.464 100.846 209.303C101.563 207.754 102.281 206.371 104.295 206.647C105.564 206.841 106.861 207.339 108.075 207.671C108.379 207.809 102.198 202.664 100.459 204.739Z" fill="#D3DDF8"/>
<path d="M241.331 91.1026C232.225 84.2152 226.816 77.9363 224.608 75.1426V54.7173L222.318 53.0989V75.1426C220.11 77.9363 214.729 84.2152 205.596 91.1026H218.869C218.869 93.5921 220.883 95.6113 223.367 95.6113C225.85 95.6113 227.865 93.5921 227.865 91.1026H241.331Z" fill="#D3DDF8"/>
<path d="M297.597 146.322C288.49 139.435 283.082 133.156 280.874 130.362V94.582L278.584 94.0441V130.362C276.376 133.156 270.995 139.435 261.861 146.322H275.135C275.135 148.812 277.149 150.831 279.633 150.831C282.116 150.831 284.13 148.812 284.13 146.322H297.597Z" fill="#D3DDF8"/>
<path d="M305.158 158.435V227.282H373.841V158.435H305.158ZM363.548 216.992H315.423V168.752H363.548V216.992Z" fill="#D3DDF8"/>
<path d="M275.272 195.14V219.426H299.501V195.14H275.272ZM295.886 215.803H278.887V198.764H295.886V215.803Z" fill="#D3DDF8"/>
<path d="M245.553 195.14V219.426H269.781V195.14H245.553ZM266.166 215.803H249.195V198.764H266.166V215.803Z" fill="#D3DDF8"/>
<path d="M165.721 227.531C164.369 226.286 162.41 227.337 161.389 228.056C160.92 228.388 160.589 228.665 160.533 228.693L161.278 229.522C161.278 229.522 161.334 229.467 161.416 229.412C161.416 229.412 161.637 229.218 161.968 228.997C162.189 228.859 162.437 228.693 162.713 228.554C163.652 228.084 164.369 228.056 164.811 228.471C165.031 228.665 165.142 229.384 164.921 230.518C164.7 231.652 164.176 232.869 163.569 233.782C163.348 234.114 162.989 234.557 162.603 234.861C162.217 235.11 161.775 235.248 161.334 235.027L160.671 236.133C160.975 236.299 161.306 236.355 161.637 236.355C162.161 236.355 162.686 236.161 163.182 235.801C163.679 235.469 164.203 234.971 164.645 234.28C165.97 232.344 167.046 228.748 165.721 227.531Z" fill="url(#paint0_linear)"/>
<path d="M147.509 225.65L148.723 238.567C148.723 239.148 152.062 239.646 155.014 239.646C157.967 239.646 161.472 239.176 161.472 238.567L162.52 225.65H147.509Z" fill="url(#paint1_linear)"/>
<path d="M162.548 225.65C162.548 226.286 159.181 226.784 155.042 226.784C150.903 226.784 147.536 226.286 147.536 225.65C147.536 225.014 150.903 224.516 155.042 224.516C159.181 224.516 162.548 225.014 162.548 225.65Z" fill="url(#paint2_linear)"/>
<path d="M161.996 225.65C161.996 225.788 161.747 225.899 161.278 226.01C160.147 226.286 157.774 226.48 155.014 226.48C152.282 226.48 149.909 226.286 148.75 226.01C148.281 225.899 148.033 225.788 148.033 225.65C148.033 225.207 151.151 224.82 155.014 224.82C158.878 224.82 161.996 225.207 161.996 225.65Z" fill="url(#paint3_linear)"/>
<path d="M161.278 226.009C160.147 226.286 157.774 226.48 155.014 226.48C152.282 226.48 149.909 226.286 148.75 226.009C149.882 225.733 152.255 225.539 155.014 225.539C157.774 225.567 160.147 225.761 161.278 226.009Z" fill="#0C1540"/>
<path opacity="0.22" d="M152.752 239.563C151.841 239.48 150.958 239.397 150.268 239.259L149.137 226.397C149.965 226.563 151.068 226.701 152.365 226.756L152.752 239.563Z" fill="#F0F5FF"/>
<path opacity="0.22" d="M154.38 239.618C154.104 239.618 153.855 239.591 153.579 239.591L153.248 226.784C153.497 226.784 153.772 226.812 154.048 226.812L154.38 239.618Z" fill="#F0F5FF"/>
<path d="M244.67 248.968H239.013V310.623H244.67V248.968Z" fill="#2647C8"/>
<path d="M246.85 267.611H236.833V277.375H246.85V267.611Z" fill="#1D3599"/>
<path d="M245.608 271.373H238.047V281.137H245.608V271.373Z" fill="#1D3599"/>
<path d="M270.002 222.552L269.616 224.765L262.634 267.583H231.838L238.516 226.507C238.903 224.212 240.889 222.552 243.207 222.552H270.002Z" fill="#6F8FE4"/>
<path d="M269.616 224.765L262.634 267.583H233.549L239.841 228.748C240.227 226.452 242.214 224.792 244.532 224.792H269.616V224.765Z" fill="#2647C8"/>
<path d="M265.67 268.441L260.013 267.583L266.939 224.958C267.187 223.575 268.374 222.552 269.781 222.552C271.575 222.552 272.927 224.156 272.623 225.927L265.67 268.441Z" fill="#1D3599"/>
<path d="M210.921 271.594H246.85C248.285 271.594 249.444 270.432 249.444 268.994C249.444 267.555 248.285 266.394 246.85 266.394H210.921C209.487 266.394 208.328 267.555 208.328 268.994C208.328 270.432 209.487 271.594 210.921 271.594Z" fill="#2647C8"/>
<path d="M242.573 271.594H263.6C265.035 271.594 266.194 270.432 266.194 268.994C266.194 267.555 265.035 266.394 263.6 266.394H242.573C241.138 266.394 239.979 267.555 239.979 268.994C239.979 270.432 241.138 271.594 242.573 271.594Z" fill="#1D3599"/>
<path d="M262.745 231.514H243.042C242.655 231.514 242.324 231.21 242.324 230.795C242.324 230.408 242.655 230.076 243.042 230.076H262.745C263.131 230.076 263.462 230.38 263.462 230.795C263.434 231.21 263.131 231.514 262.745 231.514Z" fill="#1D3599"/>
<path d="M260.758 240.725H241.055C240.669 240.725 240.338 240.421 240.338 240.006C240.338 239.618 240.669 239.286 241.055 239.286H260.758C261.144 239.286 261.475 239.618 261.475 240.006C261.475 240.421 261.144 240.725 260.758 240.725Z" fill="#1D3599"/>
<path d="M258.798 249.936H239.096C238.709 249.936 238.378 249.632 238.378 249.217C238.378 248.829 238.682 248.497 239.096 248.497H258.798C259.185 248.497 259.516 248.829 259.516 249.217C259.488 249.604 259.185 249.936 258.798 249.936Z" fill="#1D3599"/>
<path d="M225.381 186.621C225.381 186.621 225.464 190.798 225.85 192.872L226.761 192.402C226.761 192.402 226.485 188.585 226.568 186.953L225.381 186.621Z" fill="#6F8FE4"/>
<path d="M230.955 195.03C230.872 195.943 230.569 197.436 229.686 197.907C229.631 197.934 229.603 197.962 229.548 197.962C227.395 198.93 225.326 197.021 225.353 194.283C225.381 192.264 226.595 190.908 228.444 190.687C228.637 190.659 228.83 190.687 229.024 190.715C229.631 190.853 230.183 191.268 230.458 191.877C230.845 192.734 231.01 194.449 230.955 195.03Z" fill="#2647C8"/>
<path d="M230.955 195.03C230.872 195.943 230.569 197.436 229.686 197.907C229.631 197.934 229.603 197.962 229.548 197.962C230.569 195.555 230.652 192.872 229.051 190.715C229.658 190.853 230.21 191.268 230.486 191.877C230.845 192.734 231.01 194.449 230.955 195.03Z" fill="#6F8FE4"/>
<path d="M241.552 192.845L240.365 192.706C240.365 192.623 241.276 184.27 237.964 180.563C236.916 179.402 235.591 178.821 233.908 178.821C233.88 178.821 233.88 178.821 233.853 178.821C231.424 178.848 229.576 179.54 228.334 180.923C226.237 183.274 226.568 186.842 226.568 186.898L225.381 187.036C225.354 186.87 224.967 182.915 227.423 180.148C228.886 178.489 231.038 177.659 233.825 177.631C235.867 177.631 237.55 178.323 238.847 179.761C242.518 183.883 241.579 192.485 241.552 192.845Z" fill="#6F8FE4"/>
<path d="M192.543 301.937H186.5C185.424 306.557 182.195 309.627 176.676 310.125C173.448 310.429 173.696 314.412 173.696 314.412H191.605C191.605 314.412 193.757 312.531 191.467 308.493C190.943 307.497 192.543 301.937 192.543 301.937Z" fill="#FBBCBE"/>
<path d="M228.748 218.818C226.954 223.16 214.012 236.852 211.639 239.48C208.769 242.633 201.898 239.895 203.057 236.161C204.078 232.869 217.848 214.779 219.89 213.12C223.532 210.077 231.01 213.396 228.748 218.818Z" fill="#FBBCBE"/>
<path d="M234.377 247.917C242.297 251.236 236.253 264.126 226.016 267.445C215.806 270.792 204.354 268.69 195.468 269.353C192.93 269.547 186.5 265.315 191.219 260.143C195.993 254.942 223.698 243.408 234.377 247.917Z" fill="#F5F8FF"/>
<path d="M191.55 259.977C184.099 267.307 185.948 297.954 184.154 303.403C184.154 303.403 189.039 305.921 194.116 306.612C194.116 306.612 202.671 270.681 203.029 266.615C203.774 258.096 194.006 257.57 191.55 259.977Z" fill="#F5F8FF"/>
<path d="M223.311 247.944C223.311 247.944 201.705 257.957 199.469 263.517C197.234 269.077 197.565 285.286 194.116 306.612L202.56 269.353L216.633 269.077L232.445 253.67L223.311 247.944Z" fill="#D3DDF8"/>
<path d="M253.114 247.917C256.177 254.113 254.135 262.77 243.925 266.117C233.715 269.464 222.346 268.717 212.743 269.353C210.204 269.519 202.864 265.481 207.61 260.281C212.356 255.081 247.981 237.489 253.114 247.917Z" fill="#F5F8FF"/>
<path d="M222.594 229.273C226.844 224.516 230.045 217.96 231.038 215.582C233.411 209.939 226.733 205.817 223.008 208.805C222.07 209.552 215.419 214.42 211.804 219.648C213.846 224.516 221.656 229.024 222.594 229.273Z" fill="url(#paint4_linear)"/>
<path d="M243.4 249.936C243.4 249.936 252.396 252.785 247.65 258.151C242.904 263.517 221.821 268.717 221.821 268.717C221.821 268.717 248.064 270.543 252.921 259.313C257.143 249.576 251.099 245.151 251.099 245.151L243.4 249.936Z" fill="#D3DDF8"/>
<path d="M229.438 206.924C229.438 206.924 225.519 206.592 223.477 208.666C221.408 210.769 217.931 219.924 219.2 230.463C220.442 241.001 218.4 247.585 218.4 247.585C218.4 247.585 232.445 254.555 254.99 249.797C254.99 249.797 256.011 220.035 250.658 209.607C248.947 206.288 241 206.288 239.813 206.177C238.599 206.094 229.438 206.924 229.438 206.924Z" fill="url(#paint5_linear)"/>
<path d="M230.403 202.305C230.403 202.305 231.038 205.956 229.879 206.426C228.748 206.896 227.202 207.062 227.202 207.062C227.202 207.062 233.466 216.135 240.558 206.232C240.558 206.232 238.433 206.26 237.771 205.403C237.109 204.545 236.695 200.285 237.026 197.492L230.403 202.305Z" fill="#FBBCBE"/>
<path d="M237.799 205.403C237.136 204.545 236.723 200.285 237.054 197.492L233.246 200.23C233.991 200.894 235.15 202.802 235.094 202.913C236.088 204.766 236.64 207.394 234.708 208.832C233.218 209.939 231.259 209.884 229.438 209.33C231.893 211.156 236.033 212.511 240.558 206.232C240.586 206.232 238.461 206.26 237.799 205.403Z" fill="#DA91A7"/>
<path d="M255.184 212.428C258.578 215.637 266.746 232.648 268.346 235.829C270.278 239.646 266.635 243.933 263.158 242.163C260.206 240.642 247.512 221.197 246.684 218.707C245.194 214.226 250.934 208.417 255.184 212.428Z" fill="#FBBCBE"/>
<path d="M264.041 242.827C259.571 243.353 243.318 240.061 240.255 239.48C236.529 238.789 235.564 232.952 239.427 233.229C243.18 233.505 264.566 233.699 266.663 234.391C270.471 235.663 269.615 242.163 264.041 242.827Z" fill="#FBBCBE"/>
<path d="M208.052 241.444C203.664 242.412 187.162 240.753 184.044 240.504C180.291 240.199 178.718 234.474 182.609 234.363C186.362 234.252 207.665 232.316 209.818 232.814C213.736 233.671 213.543 240.227 208.052 241.444Z" fill="#FBBCBE"/>
<path d="M261.861 219.758C258.191 214.53 252.534 209.939 250.465 208.417C245.525 204.822 240.006 210.437 242.076 214.752C242.6 215.83 245.442 221.777 249.72 226.48C254.907 225.595 261.392 220.616 261.861 219.758Z" fill="url(#paint6_linear)"/>
<path d="M226.54 236.299C227.975 235.359 229.327 234.418 228.196 235.027C226.733 235.829 225.188 234.529 226.623 233.754C228.416 232.759 230.376 231.486 232.418 231.016C234.625 230.518 239.068 233.478 241.193 233.671C242.048 233.754 241.441 237.793 240.751 238.069C238.516 238.955 235.95 237.71 235.591 237.848C234.708 238.457 234.294 238.899 233.521 239.535C232.528 240.365 230.514 239.535 231.507 238.706C232.142 238.18 231.811 237.959 230.9 238.678C229.741 239.591 227.699 238.623 228.858 237.71C229.355 237.323 229.41 237.046 228.72 237.489C227.34 238.457 225.133 237.24 226.54 236.299Z" fill="#FBBCBE"/>
<path d="M180.401 309.129C180.401 309.129 183.465 307.304 183.851 305.699C184.21 304.095 186.114 305.561 186.307 306.004C186.472 306.446 184.044 309.074 180.401 309.129Z" fill="#0C1540"/>
<path d="M232.556 302.103C231.535 301.605 229.686 296.101 229.686 296.101L224.719 299.559C226.457 303.984 225.547 308.327 221.325 311.895C220.745 312.393 220.442 312.946 220.304 313.499H226.54L236.06 306.889C236.005 306.889 236.723 304.123 232.556 302.103Z" fill="#FBBCBE"/>
<path d="M236.005 306.889L234.156 308.161L225.657 314.08L220.166 314.274C220.138 313.472 220.414 312.614 221.297 311.895C222.208 311.121 223.118 310.014 223.863 308.853C224.498 307.829 225.022 306.778 225.271 305.921C229.796 305.727 231.921 303.376 232.528 302.103C236.723 304.123 236.005 306.889 236.005 306.889Z" fill="#0C1540"/>
<path d="M223.781 308.963C223.781 308.963 225.271 305.727 224.664 304.178C224.056 302.657 226.457 302.767 226.844 303.016C227.257 303.293 226.761 306.833 223.781 308.963Z" fill="#0C1540"/>
<path d="M206.037 262.494C203.278 272.59 222.456 297.042 223.615 302.657C223.615 302.657 229.051 300.471 232.059 297.235C232.059 297.235 220.993 266.117 219.255 262.411C215.668 254.666 206.948 259.174 206.037 262.494Z" fill="#F5F8FF"/>
<path d="M228.83 193.232L225.16 192.762L225.188 192.374L228.886 192.845L228.83 193.232Z" fill="#0C1540"/>
<path d="M241 192.098C240.945 191.794 238.82 190.051 238.599 190.162C238.571 190.162 238.709 197.464 238.378 198.128C238.13 198.626 237.744 199.732 238.461 200.009C239.123 200.258 239.924 199.898 240.282 199.345C242.573 195.887 241.11 192.9 241 192.098Z" fill="#0C1540"/>
<path d="M227.202 187.672V198.709C227.202 201.696 229.824 204.102 233.08 204.102C236.336 204.102 238.958 201.696 238.958 198.709V198.46C238.958 198.46 241.966 199.124 241.966 195.804C241.966 192.485 240.062 192.955 240.062 192.955V187.672H227.202Z" fill="#FBBCBE"/>
<path d="M240.089 192.955V186.234H235.508C235.508 186.261 235.508 188.64 235.508 188.696V200.147C235.508 202.139 233.577 203.771 231.562 203.715C230.928 203.688 230.376 203.522 229.879 203.245C230.79 203.798 231.893 204.13 233.08 204.13C236.336 204.13 238.958 201.724 238.958 198.736V198.487C238.958 198.487 241.966 199.151 241.966 195.832C241.966 192.513 240.089 192.955 240.089 192.955Z" fill="#DA91A7"/>
<path d="M240.255 182.195V182.168C238.654 178.848 233.246 178.987 231.673 179.983C230.983 179.457 228.61 178.683 227.285 180.37C224.581 180.425 223.698 182.306 223.532 183.191C223.146 185.238 224.167 187.7 226.319 188.198C227.754 188.53 229.382 188.751 230.486 187.755C231.617 188.723 234.57 188.308 235.922 187.727C236.529 190.106 237.054 194.836 238.351 194.836C238.985 194.836 240.31 193.757 240.061 193.011C243.345 192.43 243.4 183.136 240.255 182.195Z" fill="#0C1540"/>
<path d="M227.92 195.555C227.865 195.555 227.837 195.555 227.782 195.555L225.685 195.389C225.298 195.362 224.967 194.975 224.967 194.532V192.596C224.967 192.125 225.298 191.711 225.712 191.711H229.3C229.52 191.711 229.713 191.821 229.851 191.987C230.017 192.208 230.1 192.513 230.017 192.817L229.769 193.868C229.548 194.864 228.803 195.555 227.92 195.555ZM227.809 195.14C228.554 195.196 229.217 194.615 229.41 193.757L229.658 192.706C229.713 192.54 229.658 192.347 229.575 192.208C229.548 192.153 229.437 192.07 229.327 192.07H225.74C225.547 192.07 225.381 192.291 225.381 192.54V194.477C225.381 194.726 225.547 194.947 225.74 194.975L227.809 195.14Z" fill="#0C1540"/>
<path d="M233.439 195.555C232.556 195.555 231.783 194.864 231.562 193.868L231.314 192.817C231.231 192.513 231.314 192.208 231.48 191.987C231.618 191.794 231.838 191.711 232.031 191.711H235.619C236.033 191.711 236.364 192.098 236.364 192.596V194.532C236.364 195.002 236.06 195.362 235.646 195.389L233.549 195.555C233.549 195.528 233.494 195.555 233.439 195.555ZM232.031 192.098C231.893 192.098 231.811 192.181 231.783 192.236C231.673 192.374 231.645 192.54 231.7 192.734L231.949 193.785C232.169 194.67 232.832 195.251 233.549 195.168L235.646 195.002C235.839 194.975 236.005 194.781 236.005 194.504V192.568C236.005 192.291 235.839 192.098 235.646 192.098H232.031Z" fill="#0C1540"/>
<path d="M229.934 192.955L229.769 192.596C229.824 192.568 230.873 192.126 231.59 192.623L231.369 192.955C230.845 192.54 229.962 192.928 229.934 192.955Z" fill="#0C1540"/>
<path d="M236.198 192.394L236.18 192.78L241.169 193.014L241.187 192.627L236.198 192.394Z" fill="#0C1540"/>
<path d="M185.948 234.833C183.823 234.612 179.436 231.569 177.228 232.012C175.158 232.427 174.772 233.561 172.951 234.529C171.957 235.054 171.682 235.995 172.123 236.576C171.902 236.852 171.157 237.018 170.964 237.627C170.633 238.65 171.709 239.121 173.144 238.208C173.862 237.765 172.316 239.01 171.82 239.369C170.633 240.255 172.647 241.278 173.834 240.365C174.413 239.923 175.379 239.342 175.379 239.452C175.379 239.535 174.662 240.199 174.441 240.393C173.448 241.195 175.462 242.053 176.455 241.25C177.228 240.614 179.463 239.452 180.374 238.872C180.539 238.816 181.229 239.093 182.168 239.286C181.809 239.757 181.174 239.95 180.622 240.199C180.181 240.393 179.877 240.78 180.098 241.278C180.346 241.804 180.898 241.776 181.395 241.693C182.085 241.582 182.719 241.665 183.299 241.195C183.74 240.835 185.175 239.342 185.534 239.204C186.114 238.955 186.804 234.916 185.948 234.833Z" fill="#FBBCBE"/>
<path d="M241.552 192.845L240.365 192.706C240.365 192.623 241.276 184.27 237.964 180.563C236.916 179.402 235.591 178.821 233.908 178.821C233.88 178.821 233.88 178.821 233.853 178.821C232.859 178.821 231.949 178.959 231.148 179.18L230.817 178.019C231.728 177.742 232.749 177.604 233.853 177.604C235.895 177.604 237.578 178.295 238.875 179.734C242.517 183.883 241.579 192.485 241.552 192.845Z" fill="#6F8FE4"/>
<path d="M234.129 203.798C233.66 203.798 233.328 203.771 233.301 203.771L233.356 202.968C233.384 202.968 236.667 203.134 237.992 202.36C238.903 201.807 239.482 199.041 239.648 197.436L240.448 197.519C240.393 197.989 239.979 202.139 238.406 203.051C237.302 203.715 235.26 203.798 234.129 203.798Z" fill="#6F8FE4"/>
<path d="M237.661 196.109C237.744 197.021 238.047 198.515 238.93 198.985C238.986 199.013 239.013 199.041 239.068 199.041C241.221 200.009 243.29 198.1 243.263 195.362C243.235 193.343 242.021 191.987 240.172 191.766C239.979 191.738 239.786 191.766 239.593 191.794C238.986 191.932 238.434 192.347 238.158 192.955C237.744 193.785 237.606 195.5 237.661 196.109Z" fill="#2647C8"/>
<path d="M237.661 196.109C237.744 197.021 238.047 198.515 238.93 198.985C238.985 199.013 239.013 199.041 239.068 199.041C238.047 196.634 237.964 193.951 239.565 191.794C238.958 191.932 238.406 192.347 238.13 192.955C237.744 193.785 237.606 195.5 237.661 196.109Z" fill="#6F8FE4"/>
<path d="M241.276 196.717C241.634 195.97 241.717 195.196 241.496 194.394C241.331 193.73 242.352 193.453 242.517 194.117C242.793 195.196 242.683 196.275 242.186 197.27C241.883 197.879 240.972 197.326 241.276 196.717Z" fill="#6F8FE4"/>
<path d="M232.252 203.245C232.362 204.047 233.08 204.6 233.88 204.49C234.68 204.379 235.232 203.66 235.122 202.858C235.012 202.056 234.294 201.502 233.494 201.613C232.694 201.724 232.142 202.443 232.252 203.245Z" fill="#2647C8"/>
<path d="M120.272 242.302H116.657V314.551H120.272V242.302Z" fill="#6F8FE4"/>
<path d="M115.675 314.533H116.668L116.668 242.284H115.675L115.675 314.533Z" fill="#83A5F2"/>
<path d="M150.792 242.302H147.177V314.551H150.792V242.302Z" fill="#6F8FE4"/>
<path d="M146.184 314.533H147.177V242.284H146.184V314.533Z" fill="#83A5F2"/>
<path d="M205.982 242.302H118.23V268.275H205.982V242.302Z" fill="#2647C8"/>
<path d="M205.982 242.302H118.23V246.948H205.982V242.302Z" fill="#1D3599"/>
<path d="M210.59 242.302H206.975V314.551H210.59V242.302Z" fill="#1D3599"/>
<path d="M205.999 314.533H206.992V242.284H205.999V314.533Z" fill="#6F8FE4"/>
<path d="M246.601 242.302H242.987V314.551H246.601V242.302Z" fill="#1D3599"/>
<path d="M242.018 314.533H243.011V242.284H242.018V314.533Z" fill="#6F8FE4"/>
<path d="M249.14 238.623H111.276V242.993H249.14V238.623Z" fill="#6F8FE4"/>
<path d="M249.14 238.623H202.063V242.993H249.14V238.623Z" fill="#2647C8"/>
<path d="M127.64 235.525C127.806 235.525 127.971 235.497 128.137 235.414C128.634 235.137 128.827 234.529 128.551 234.031L118.037 214.669L131.918 196.662L141.493 203.853C141.934 204.185 142.569 204.102 142.928 203.66C143.259 203.217 143.176 202.581 142.735 202.222L132.359 194.421C131.918 194.089 131.283 194.172 130.952 194.615L116.05 213.95C115.802 214.281 115.775 214.696 115.968 215.056L126.785 234.999C126.923 235.331 127.254 235.525 127.64 235.525Z" fill="#0C1540"/>
<path d="M141.631 207.422L146.488 203.051L144.666 201.032C143.452 199.677 141.41 199.566 140.058 200.783C138.706 202 138.596 204.047 139.81 205.402L141.631 207.422Z" fill="#0C1540"/>
<path d="M155.29 206.896L144.473 216.605L144.446 216.577L144.28 216.384L140.444 212.096C139.203 210.713 138.595 208.971 138.595 207.228C138.595 205.651 139.092 204.102 140.086 202.802C140.196 202.664 140.279 202.553 140.389 202.415C140.582 202.194 140.775 202 140.996 201.807C143.976 199.124 148.585 199.373 151.261 202.36L155.29 206.896Z" fill="#2647C8"/>
<path d="M152.834 208.279C153.331 207.947 153.8 207.588 154.269 207.2L150.461 202.968C148.033 200.258 144.032 199.787 141.079 201.751C140.969 201.89 140.858 202 140.776 202.139C143.563 200.977 146.874 201.613 148.971 203.992L152.834 208.279Z" fill="#6F8FE4"/>
<path d="M144.473 216.605C145.218 217.462 148.254 215.969 151.262 213.286C154.242 210.603 156.063 207.726 155.29 206.896C154.738 206.288 152.972 206.896 150.903 208.335C150.13 208.86 149.33 209.496 148.53 210.215C147.729 210.935 147.012 211.681 146.405 212.401C144.722 214.281 143.921 215.996 144.473 216.605Z" fill="#0C1540"/>
<path d="M146.377 212.373C147.509 213.507 149.33 213.562 150.544 212.456C151.758 211.377 151.896 209.552 150.903 208.307C150.13 208.832 149.33 209.469 148.53 210.188C147.702 210.935 146.984 211.681 146.377 212.373Z" fill="url(#paint7_linear)"/>
<path d="M129.82 195.223C129.82 194.2 130.648 193.343 131.697 193.343C132.718 193.343 133.573 194.172 133.573 195.223C133.573 196.247 132.745 197.104 131.697 197.104C130.676 197.104 129.82 196.247 129.82 195.223Z" fill="#6F8FE4"/>
<path d="M130.621 195.223C130.621 194.643 131.09 194.145 131.697 194.145C132.276 194.145 132.773 194.615 132.773 195.223C132.773 195.804 132.304 196.302 131.697 196.302C131.117 196.302 130.621 195.804 130.621 195.223Z" fill="#2647C8"/>
<path d="M115.416 214.862C115.416 213.839 116.244 212.981 117.292 212.981C118.313 212.981 119.169 213.811 119.169 214.862C119.169 215.886 118.341 216.743 117.292 216.743C116.271 216.743 115.416 215.886 115.416 214.862Z" fill="#6F8FE4"/>
<path d="M116.216 214.862C116.216 214.281 116.685 213.784 117.292 213.784C117.899 213.784 118.368 214.254 118.368 214.862C118.368 215.443 117.899 215.941 117.292 215.941C116.685 215.941 116.216 215.443 116.216 214.862Z" fill="#2647C8"/>
<path d="M113.87 238.623H140.361C140.361 236.216 138.402 234.252 136.001 234.252H118.23C115.83 234.252 113.87 236.216 113.87 238.623Z" fill="#2647C8"/>
<path d="M211.087 236.659H173.586V238.65H211.087V236.659Z" fill="#1D3599"/>
<path d="M211.087 238.623H228.361V237.516C228.361 237.046 227.975 236.659 227.506 236.659H211.115V238.623H211.087Z" fill="#120D80"/>
<path d="M174.662 236.659H212.025L207.113 213.618C206.975 212.954 206.396 212.456 205.761 212.456H172.096C170.771 212.456 169.778 213.784 170.054 215.167L174.662 236.659Z" fill="#1D3599"/>
<path d="M173.751 236.659H211.115L206.203 213.618C206.065 212.954 205.485 212.456 204.851 212.456H170.467C169.502 212.456 168.784 213.424 168.977 214.42L173.751 236.659Z" fill="#120D80"/>
<path opacity="0.11" d="M188.404 212.456L177.891 236.659H182.692L193.62 212.456H188.404Z" fill="#F0F5FF"/>
<path opacity="0.11" d="M196.269 212.456L185.755 236.659H187.631L198.531 212.456H196.269Z" fill="#F0F5FF"/>
<path d="M84.1509 212.815C84.1233 212.594 83.8749 212.456 83.6817 212.456C79.0182 212.539 73.1681 212.539 69.2221 215.443C65.5519 218.126 65 222.884 65.0828 227.116C65.0828 227.558 65.5795 227.697 65.8831 227.503L65.9107 227.531C75.7068 231.182 85.5306 223.105 84.1509 212.815Z" fill="#83A5F2"/>
<path d="M61.5506 231.929C61.5782 228.665 60.8331 225.373 58.3496 223.133C55.4797 220.533 51.3405 219.067 47.974 217.296C47.6428 217.13 47.0909 217.435 47.2565 217.85C48.7742 221.75 48.581 226.507 51.2577 229.91C53.5481 232.786 57.439 233.754 60.8883 232.703C61.0539 232.648 61.1643 232.537 61.1919 232.399C61.385 232.344 61.5506 232.205 61.5506 231.929Z" fill="#6F8FE4"/>
<path d="M91.7118 242.55C89.4215 240.78 86.4688 240.946 83.6817 241.057C80.5911 241.195 77.5005 241.665 74.7134 242.993C69.8291 245.316 66.3798 250.461 68.1734 255.91C68.1183 256.132 68.2286 256.408 68.5046 256.491C73.1681 257.957 75.4033 254.859 78.218 251.734C81.8053 247.751 86.4136 244.929 91.5187 243.353C91.8222 243.27 92.0154 242.799 91.7118 242.55Z" fill="#6F8FE4"/>
<path d="M102.86 254.168C102.805 254.14 102.75 254.112 102.694 254.085C100.708 253.227 98.9416 251.623 97.1479 250.074C97.1479 250.074 97.1479 250.074 97.1203 250.046C95.1611 248.331 93.1467 246.727 90.8011 246.312C90.7735 246.312 90.7735 246.312 90.7459 246.312C89.6697 246.119 88.5108 246.174 87.269 246.589C82.2743 248.248 79.2113 253.449 78.7146 258.455C78.7146 258.566 78.7422 258.676 78.7974 258.732C78.7974 258.759 78.7698 258.787 78.7698 258.815C78.687 259.091 78.8526 259.451 79.2113 259.506C83.4885 260.004 87.6829 259.506 91.8497 258.621C95.5474 257.847 99.7418 257.21 102.97 255.053C103.357 254.832 103.246 254.334 102.86 254.168Z" fill="#6F8FE4"/>
<path d="M95.4371 263.766C89.9733 262.66 78.7146 259.894 77.942 268.607C77.9144 268.883 78.1075 269.022 78.3007 269.077C83.2402 274.886 92.8708 270.294 95.713 264.513C95.8786 264.209 95.7682 263.821 95.4371 263.766Z" fill="#6F8FE4"/>
<path d="M60.8884 246.229C59.4535 243.021 56.0869 239.701 52.7755 238.484C52.472 238.374 52.1408 238.65 52.1408 238.955C52.196 245.289 50.6507 255.219 57.5218 258.732C57.577 258.759 57.6322 258.759 57.6598 258.759C57.853 259.036 58.2945 259.147 58.4876 258.759C60.6124 254.998 62.8476 250.572 60.8884 246.229Z" fill="#83A5F2"/>
<path d="M59.5913 277.735C56.4455 273.309 53.2169 269.519 47.7531 268.136C47.3668 268.026 46.9529 268.496 47.2012 268.856C48.443 270.709 48.4154 272.811 49.4364 274.692C50.0435 275.798 51.0369 276.628 52.1131 277.292C54.4311 278.758 57.4389 280.113 60.0328 278.62C60.5295 278.315 60.1156 277.513 59.5913 277.735Z" fill="#83A5F2"/>
<path d="M66.6832 272.507C66.6832 272.451 66.6556 272.424 66.628 272.368C64.4756 268.911 64.3653 264.513 61.385 261.526C61.1643 261.304 60.7779 261.36 60.6124 261.636C59.1498 263.987 58.4324 266.809 59.5914 269.436C60.8607 272.285 63.5098 273.06 66.3797 273.364C66.904 273.392 66.9868 272.783 66.6832 272.507Z" fill="#6F8FE4"/>
<path d="M72.7265 233.81C72.1194 233.284 71.2915 233.81 70.6844 234.059C69.5255 234.557 68.4217 235.11 67.4283 235.857C65.5518 237.24 64.2824 239.231 64.1445 241.582C64.1169 241.638 64.1169 241.693 64.1445 241.776C64.1445 241.831 64.1445 241.914 64.1445 241.97C64.1445 242.523 64.9171 242.606 65.0827 242.163C67.4834 241.638 69.3599 240.089 70.9328 238.235C71.6503 237.378 74.189 235.027 72.7265 233.81Z" fill="#6F8FE4"/>
<path d="M73.8303 272.894C73.7475 272.811 73.6923 272.728 73.6095 272.673C74.2166 268.441 74.4925 263.545 70.3257 261.055C70.0498 260.889 69.691 261.055 69.6083 261.36C68.4769 265.841 69.7738 270.432 73.1128 273.585C73.5819 274.028 74.2994 273.337 73.8303 272.894Z" fill="#6F8FE4"/>
<path d="M102.446 253.67C100.625 252.868 98.8864 251.457 97.1479 250.074C97.1479 250.074 97.1479 250.074 97.1203 250.046C95.1059 248.442 93.0639 246.893 90.8011 246.312C90.7735 246.312 90.7735 246.312 90.7459 246.312C89.6697 246.119 88.5108 246.174 87.269 246.589C82.2743 248.248 79.2113 253.449 78.7146 258.455C78.7146 258.566 78.7422 258.676 78.7974 258.732C78.7974 258.759 78.7698 258.787 78.7698 258.815C78.9354 258.815 79.1009 258.732 79.1837 258.566C79.2941 258.538 79.3769 258.511 79.4597 258.428C81.0878 256.685 82.7986 255.081 84.5095 253.421C85.3374 252.619 86.1376 251.623 87.0482 250.959C89.0351 249.549 90.7183 249.797 92.8156 250.406C95.2991 251.125 97.5619 252.425 99.8246 253.67C100.652 254.14 101.48 254.942 102.446 254.5C102.612 254.417 102.694 254.251 102.694 254.057C102.694 253.919 102.584 253.753 102.446 253.67Z" fill="#83A5F2"/>
<path d="M58.6532 270.377C58.184 268.468 57.6597 266.504 56.9975 264.596C56.9975 264.568 57.0251 264.568 57.0251 264.54C57.9081 261.498 58.2392 258.4 58.0737 255.33C58.2392 255.302 58.4048 255.191 58.46 254.998C59.0395 253.172 59.2602 251.319 59.1775 249.41C59.1499 248.774 58.1565 248.774 58.184 249.41C58.2392 250.738 58.1289 252.01 57.8805 253.283C57.6873 251.817 57.3838 250.351 56.9423 248.912C56.7491 248.304 55.8109 248.553 55.9765 249.189C57.3838 253.753 57.5218 258.4 56.418 262.964C55.5074 260.613 54.3208 258.345 52.7755 256.353C49.1054 251.651 42.455 248.802 37.1844 251.015C37.1844 250.821 37.074 250.655 36.8257 250.6C34.7836 250.102 32.7416 250.406 30.9204 251.512C30.3685 251.844 30.8652 252.702 31.4171 252.37C32.8796 251.485 34.5077 251.181 36.191 251.485C34.9768 252.176 33.8454 253.172 32.8796 254.5C32.5209 255.025 33.3763 255.523 33.735 254.998C36.2738 251.485 40.8545 250.378 44.8833 251.678C46.0423 252.066 47.1185 252.619 48.1395 253.283C43.9175 253.2 40.7441 256.021 37.8467 258.842C37.3776 259.285 38.095 259.977 38.5365 259.534C39.116 258.981 39.6955 258.4 40.3026 257.874C40.137 258.87 40.1094 259.866 40.2198 260.889C40.275 261.526 41.2684 261.526 41.2132 260.889C41.0753 259.589 41.158 258.317 41.4892 257.045C41.5168 256.989 41.5168 256.906 41.4892 256.851C43.5312 255.247 45.794 254.057 48.6086 254.251C48.857 254.278 49.0226 254.113 49.0502 253.919C51.2853 255.689 53.0514 258.096 54.3484 260.64C56.8871 265.702 58.3496 271.511 59.1499 277.292C57.1079 276.766 55.3142 275.688 53.8793 274.111C53.4377 273.641 52.7479 274.332 53.1894 274.803C53.9069 275.605 54.7347 276.269 55.6177 276.822C55.0382 276.822 54.4863 276.794 53.9069 276.711C53.2722 276.6 53.0238 277.569 53.6309 277.679C54.5691 277.818 55.5349 277.873 56.4732 277.818C56.6663 277.818 56.8043 277.679 56.8871 277.541C57.6046 277.873 58.3772 278.149 59.1775 278.343C59.2051 278.343 59.2327 278.343 59.2602 278.343C59.619 281.164 59.8397 283.958 59.9777 286.669C60.0053 287.305 60.9987 287.305 60.9711 286.669C60.7228 281.22 59.9777 275.743 58.6532 270.377Z" fill="#2F41A4"/>
<path d="M75.0721 249.991C74.1891 250.627 73.3336 251.319 72.5334 252.038C73.0025 250.268 73.7475 248.636 74.8237 247.142C75.1825 246.617 74.327 246.119 73.9683 246.644C72.6713 248.497 71.7883 250.517 71.3468 252.729C71.3192 252.868 71.3468 253.006 71.402 253.117C69.1944 255.274 67.318 257.736 65.8002 260.447C65.5243 257.017 65.3035 253.615 65.138 250.185C65.0276 247.751 64.8344 245.04 64.7516 242.219C65.883 240.67 67.0972 239.148 68.8909 238.318C69.4703 238.042 68.9736 237.184 68.3941 237.461C66.8764 238.18 65.745 239.342 64.724 240.614C64.724 239.287 64.7516 237.986 64.8068 236.659C64.8896 236.52 64.9172 236.355 64.8344 236.216C65.3311 229.218 67.4283 222.607 74.1063 219.509C74.6858 219.233 74.1891 218.375 73.6096 218.652C71.9263 219.426 70.5189 220.422 69.3324 221.611C69.2772 220.643 69.4428 219.703 69.8015 218.79C70.0222 218.209 69.084 217.933 68.8357 218.514C68.339 219.814 68.2286 221.141 68.4493 222.497C68.4493 222.524 68.4769 222.524 68.4769 222.552C65.6347 225.954 64.4481 230.49 64.0342 235.193C62.5992 233.533 61.1643 231.874 59.7294 230.186C59.8673 230.103 59.9777 229.993 59.9501 229.771C59.8673 228.388 59.4258 227.088 58.6256 225.927C58.2668 225.401 57.4114 225.899 57.7701 226.424C58.3772 227.282 58.736 228.195 58.9015 229.218C58.3772 228.61 57.8253 227.973 57.301 227.365C56.8871 226.867 56.1972 227.586 56.6112 228.056C59.0395 230.905 61.4954 233.727 63.9238 236.576C63.8134 238.318 63.8134 240.061 63.841 241.748C63.8134 241.776 63.7858 241.804 63.7858 241.831C63.6202 242.053 63.703 242.274 63.8686 242.412C63.8962 244.072 63.979 245.704 64.0342 247.253C64.3377 255.164 64.9448 263.047 65.8002 270.902C64.0066 269.907 63.0407 268.053 62.1577 266.283C61.8818 265.702 61.0263 266.2 61.3023 266.781C62.3233 268.828 63.4823 270.958 65.6623 271.953C65.745 272.009 65.8554 272.009 65.9382 271.981C66.5177 277.015 67.18 282.05 67.9802 287.084C68.0906 287.72 69.0288 287.443 68.946 286.807C67.6491 278.564 66.6833 270.294 65.9658 261.968C66.0486 261.94 66.1314 261.885 66.1866 261.747C68.4493 257.376 71.6227 253.642 75.5964 250.766C76.0655 250.489 75.5688 249.604 75.0721 249.991Z" fill="#2F41A4"/>
<path d="M91.4358 250.766C89.3662 250.738 87.4622 251.236 85.7513 252.093C86.4964 251.319 87.269 250.572 88.1245 249.936C88.6212 249.549 88.1245 248.691 87.6277 249.078C85.9721 250.351 84.5371 251.817 83.2954 253.532C83.2402 253.587 83.2126 253.67 83.2126 253.725C79.8736 256.353 77.3901 260.364 75.8448 264.209C74.9065 266.532 74.2167 268.939 73.6924 271.4C73.1405 270.46 72.8369 269.436 72.4782 268.413C72.2022 267.583 71.9539 266.864 71.2088 266.366C70.6569 266.034 70.1602 266.892 70.7121 267.224C71.5124 267.721 71.7055 269.187 71.9815 270.017C72.2574 270.819 72.561 271.594 73.0577 272.313C73.1681 272.451 73.306 272.507 73.444 272.534C72.2574 278.537 71.9263 284.76 71.3468 290.763C71.2916 291.399 72.285 291.399 72.3402 290.763C72.8645 285.175 73.2232 279.477 74.2167 273.917C74.2994 273.89 74.3546 273.862 74.4098 273.779C76.2863 271.705 78.2179 269.63 80.5635 268.192C81.2809 268.856 82.1088 269.353 83.0194 269.658C83.6265 269.851 83.8748 268.911 83.2954 268.69C82.6331 268.468 82.026 268.109 81.4741 267.666C82.1364 267.334 82.7986 267.03 83.5437 266.809C84.1508 266.615 83.9024 265.675 83.2678 265.841C82.3019 266.117 81.4189 266.532 80.5911 267.002C80.4531 267.002 80.3151 267.113 80.2047 267.224C78.0799 268.496 76.2587 270.266 74.5478 272.119C74.8789 270.57 75.2377 269.021 75.7068 267.5C76.6726 264.402 78.1627 261 80.2875 258.123C80.3151 258.123 80.3151 258.123 80.3427 258.123C81.4741 257.736 82.6055 257.487 83.7921 257.321C84.4267 257.238 84.1508 256.27 83.5161 256.353C82.7711 256.464 82.0536 256.602 81.3361 256.796C83.93 253.808 87.2414 251.706 91.4082 251.789C92.0705 251.789 92.0705 250.793 91.4358 250.766Z" fill="#2F41A4"/>
<path d="M83.1851 281.662L82.3848 286.558L80.9775 295.354L77.9144 314.523H55.4247L52.334 295.354L50.9267 286.558L50.1541 281.662H83.1851Z" fill="url(#paint8_linear)"/>
<path opacity="0.08" d="M59.5363 286.558L58.736 281.662H50.1541L50.9267 286.558L52.334 295.354L55.4247 314.523H64.0067L60.9436 295.354L59.5363 286.558Z" fill="black"/>
<path opacity="0.64" d="M75.2653 312.946C75.2377 312.946 75.2101 312.946 75.1825 312.946C74.603 312.919 74.1615 312.587 74.2167 312.227L78.08 283.045C78.1352 282.686 78.6319 282.409 79.2114 282.437C79.7909 282.464 80.2324 282.796 80.1772 283.156L76.3139 312.338C76.2863 312.697 75.8172 312.946 75.2653 312.946Z" fill="white"/>
<path d="M339.982 259.423H290.312V314.357H339.982V259.423Z" fill="#2647C8"/>
<path d="M332.835 259.423H283.165V314.357H332.835V259.423Z" fill="#83A5F2"/>
<path d="M327.51 277.292H288.463C286.78 277.292 285.427 275.937 285.427 274.249V265.73C285.427 264.07 286.78 262.687 288.463 262.687H327.51C329.193 262.687 330.545 264.043 330.545 265.73V274.249C330.517 275.937 329.165 277.292 327.51 277.292Z" fill="#DCE4FB"/>
<path d="M328.972 266.089V273.917C328.972 275.079 328.034 276.047 326.847 276.047H289.125C287.939 276.047 287 275.107 287 273.917V266.089C287 265.702 287.111 265.343 287.276 265.038C287.635 264.402 288.325 263.987 289.125 263.987H326.82C327.62 263.987 328.31 264.43 328.669 265.038C328.862 265.343 328.972 265.73 328.972 266.089Z" fill="#83A5F2"/>
<path opacity="0.36" d="M328.669 265.038H287.276C287.635 264.402 288.325 263.987 289.125 263.987H326.82C327.62 263.96 328.31 264.402 328.669 265.038Z" fill="#0E1766"/>
<path d="M309.959 270.017C309.959 268.938 309.076 268.053 308 268.053C306.924 268.053 306.041 268.938 306.041 270.017C306.041 271.096 306.924 271.981 308 271.981C309.076 271.981 309.959 271.096 309.959 270.017Z" fill="#E2E9FB"/>
<path d="M327.51 294.386H288.463C286.78 294.386 285.427 293.031 285.427 291.343V282.824C285.427 281.164 286.78 279.781 288.463 279.781H327.51C329.193 279.781 330.545 281.137 330.545 282.824V291.343C330.517 293.031 329.165 294.386 327.51 294.386Z" fill="#DCE4FB"/>
<path d="M328.972 283.184V291.012C328.972 292.173 328.034 293.141 326.847 293.141H289.125C287.939 293.141 287 292.201 287 291.012V283.184C287 282.796 287.111 282.437 287.276 282.133C287.635 281.496 288.325 281.081 289.125 281.081H326.82C327.62 281.081 328.31 281.524 328.669 282.133C328.862 282.437 328.972 282.796 328.972 283.184Z" fill="#83A5F2"/>
<path opacity="0.36" d="M328.669 282.132H287.276C287.635 281.496 288.325 281.081 289.125 281.081H326.82C327.62 281.054 328.31 281.496 328.669 282.132Z" fill="#0E1766"/>
<path d="M309.959 287.111C309.959 286.033 309.076 285.147 308 285.147C306.924 285.147 306.041 286.033 306.041 287.111C306.041 288.19 306.924 289.075 308 289.075C309.076 289.075 309.959 288.19 309.959 287.111Z" fill="#E2E9FB"/>
<path d="M327.51 311.48H288.463C286.78 311.48 285.427 310.125 285.427 308.438V299.918C285.427 298.231 286.78 296.876 288.463 296.876H327.51C329.193 296.876 330.545 298.231 330.545 299.918V308.438C330.517 310.125 329.165 311.48 327.51 311.48Z" fill="#DCE4FB"/>
<path d="M328.972 300.278V308.106C328.972 309.267 328.034 310.236 326.847 310.236H289.125C287.939 310.236 287 309.295 287 308.106V300.278C287 299.891 287.111 299.531 287.276 299.227C287.635 298.59 288.325 298.176 289.125 298.176H326.82C327.62 298.176 328.31 298.618 328.669 299.227C328.862 299.531 328.972 299.891 328.972 300.278Z" fill="#83A5F2"/>
<path opacity="0.36" d="M328.669 299.227H287.276C287.635 298.59 288.325 298.176 289.125 298.176H326.82C327.62 298.148 328.31 298.59 328.669 299.227Z" fill="#0E1766"/>
<path d="M309.959 304.206C309.959 303.127 309.076 302.242 308 302.242C306.924 302.242 306.041 303.127 306.041 304.206C306.041 305.284 306.924 306.169 308 306.169C309.076 306.169 309.959 305.284 309.959 304.206Z" fill="#E2E9FB"/>
<path d="M308.745 259.423H289.291C287.194 259.423 285.455 257.708 285.455 255.579C285.455 253.476 287.166 251.734 289.291 251.734H308.745C309.076 251.734 309.325 251.983 309.325 252.315C309.325 252.647 309.325 258.511 309.325 258.842C309.325 259.174 309.049 259.423 308.745 259.423Z" fill="url(#paint9_linear)"/>
<path d="M324.253 258.842H304.799C303.005 258.842 301.543 257.376 301.543 255.579C301.543 253.781 303.005 252.315 304.799 252.315H324.253V258.842Z" fill="white"/>
<path d="M324.253 259.423H304.799C302.702 259.423 300.963 257.708 300.963 255.579C300.963 253.476 302.674 251.734 304.799 251.734H324.253C324.585 251.734 324.833 251.983 324.833 252.315C324.833 252.647 324.585 252.895 324.253 252.895H304.799C303.337 252.895 302.122 254.113 302.122 255.579C302.122 257.045 303.337 258.262 304.799 258.262H324.253C324.585 258.262 324.833 258.511 324.833 258.842C324.833 259.174 324.557 259.423 324.253 259.423Z" fill="url(#paint10_linear)"/>
<path d="M304.578 244.099H285.124C283.027 244.099 281.288 242.384 281.288 240.255C281.288 238.152 282.999 236.41 285.124 236.41H304.578C304.909 236.41 305.158 236.659 305.158 236.991C305.158 237.323 305.158 243.187 305.158 243.519C305.158 243.823 304.909 244.099 304.578 244.099Z" fill="url(#paint11_linear)"/>
<path d="M320.087 243.519H300.632C298.838 243.519 297.376 242.053 297.376 240.255C297.376 238.457 298.838 236.991 300.632 236.991H320.087V243.519Z" fill="white"/>
<path d="M320.087 244.099H300.632C298.535 244.099 296.797 242.384 296.797 240.255C296.797 238.152 298.507 236.41 300.632 236.41H320.087C320.418 236.41 320.666 236.659 320.666 236.991C320.666 237.323 320.418 237.572 320.087 237.572H300.632C299.17 237.572 297.955 238.761 297.955 240.255C297.955 241.721 299.17 242.938 300.632 242.938H320.087C320.418 242.938 320.666 243.187 320.666 243.519C320.666 243.823 320.418 244.099 320.087 244.099Z" fill="url(#paint12_linear)"/>
<path d="M314.043 251.761H294.589C292.492 251.761 290.753 250.046 290.753 247.917C290.753 245.814 292.464 244.072 294.589 244.072H314.043C314.374 244.072 314.623 244.321 314.623 244.653C314.623 244.985 314.623 250.849 314.623 251.18C314.623 251.512 314.374 251.761 314.043 251.761Z" fill="#120D80"/>
<path d="M329.551 251.181H310.097C308.303 251.181 306.841 249.715 306.841 247.917C306.841 246.119 308.303 244.653 310.097 244.653H329.551V251.181Z" fill="white"/>
<path d="M329.551 251.761H310.097C308 251.761 306.261 250.046 306.261 247.917C306.261 245.814 307.972 244.072 310.097 244.072H329.551C329.883 244.072 330.131 244.321 330.131 244.653C330.131 244.985 329.883 245.234 329.551 245.234H310.097C308.635 245.234 307.42 246.423 307.42 247.917C307.42 249.41 308.607 250.6 310.097 250.6H329.551C329.883 250.6 330.131 250.849 330.131 251.18C330.131 251.512 329.883 251.761 329.551 251.761Z" fill="#2647C8"/>
<path d="M172.813 172.321L203.636 169.61C205.071 169.499 206.341 170.55 206.479 171.989L207.941 188.751C208.052 190.189 207.003 191.462 205.568 191.6L186.39 193.315L183.768 200.949C183.492 201.779 182.306 201.834 181.975 201.032L178.912 193.979L174.717 194.338C173.282 194.449 172.013 193.398 171.875 191.959L170.412 175.197C170.302 173.731 171.378 172.459 172.813 172.321Z" fill="white"/>
<path d="M201.998 174.95L175.314 177.393L175.406 178.412L202.091 175.97L201.998 174.95Z" fill="#D3DDF8"/>
<path d="M202.512 180.332L175.83 182.788L175.923 183.807L202.605 181.351L202.512 180.332Z" fill="#D3DDF8"/>
<path d="M203.002 185.729L176.32 188.173L176.413 189.192L203.095 186.748L203.002 185.729Z" fill="#D3DDF8"/>
</g>
<defs>
<filter id="filter0_d" x="0" y="0" width="372.023" height="372.023" filterUnits="userSpaceOnUse" color-interpolation-filters="sRGB">
<feFlood flood-opacity="0" result="BackgroundImageFix"/>
<feColorMatrix in="SourceAlpha" type="matrix" values="0 0 0 0 0 0 0 0 0 0 0 0 0 0 0 0 0 0 127 0"/>
<feOffset dy="14"/>
<feGaussianBlur stdDeviation="17"/>
<feColorMatrix type="matrix" values="0 0 0 0 0 0 0 0 0 0 0 0 0 0 0 0 0 0 0.05 0"/>
<feBlend mode="normal" in2="BackgroundImageFix" result="effect1_dropShadow"/>
<feBlend mode="normal" in="SourceGraphic" in2="effect1_dropShadow" result="shape"/>
</filter>
<linearGradient id="paint0_linear" x1="160.533" y1="231.674" x2="166.324" y2="231.674" gradientUnits="userSpaceOnUse">
<stop offset="1.09e-06" stop-color="#FFD000"/>
<stop offset="1" stop-color="#FF7300"/>
</linearGradient>
<linearGradient id="paint1_linear" x1="147.51" y1="232.647" x2="162.543" y2="232.647" gradientUnits="userSpaceOnUse">
<stop offset="1.09e-06" stop-color="#FFD000"/>
<stop offset="1" stop-color="#FF7300"/>
</linearGradient>
<linearGradient id="paint2_linear" x1="147.51" y1="225.655" x2="162.543" y2="225.655" gradientUnits="userSpaceOnUse">
<stop stop-color="#FF7300"/>
<stop offset="1" stop-color="#FFD000"/>
</linearGradient>
<linearGradient id="paint3_linear" x1="148.052" y1="225.655" x2="162" y2="225.655" gradientUnits="userSpaceOnUse">
<stop offset="1.09e-06" stop-color="#FFD000"/>
<stop offset="1" stop-color="#FF7300"/>
</linearGradient>
<linearGradient id="paint4_linear" x1="244.2" y1="207.035" x2="203.351" y2="229.786" gradientUnits="userSpaceOnUse">
<stop offset="1.09e-06" stop-color="#FFD000"/>
<stop offset="1" stop-color="#FF7300"/>
</linearGradient>
<linearGradient id="paint5_linear" x1="218.383" y1="228.827" x2="255.057" y2="228.827" gradientUnits="userSpaceOnUse">
<stop offset="1.09e-06" stop-color="#FFD000"/>
<stop offset="1" stop-color="#FF7300"/>
</linearGradient>
<linearGradient id="paint6_linear" x1="245.393" y1="194.653" x2="257.439" y2="236.115" gradientUnits="userSpaceOnUse">
<stop offset="1.09e-06" stop-color="#FFD000"/>
<stop offset="1" stop-color="#FF7300"/>
</linearGradient>
<linearGradient id="paint7_linear" x1="151.779" y1="209.311" x2="147.249" y2="213.365" gradientUnits="userSpaceOnUse">
<stop offset="1.09e-06" stop-color="#FFD000"/>
<stop offset="1" stop-color="#FF7300"/>
</linearGradient>
<linearGradient id="paint8_linear" x1="52.8555" y1="297.887" x2="80.7925" y2="298.238" gradientUnits="userSpaceOnUse">
<stop stop-color="#FF7300"/>
<stop offset="1" stop-color="#FFD000"/>
</linearGradient>
<linearGradient id="paint9_linear" x1="285.444" y1="255.597" x2="309.312" y2="255.597" gradientUnits="userSpaceOnUse">
<stop offset="1.09e-06" stop-color="#FFD000"/>
<stop offset="1" stop-color="#FF7300"/>
</linearGradient>
<linearGradient id="paint10_linear" x1="300.955" y1="255.597" x2="324.824" y2="255.597" gradientUnits="userSpaceOnUse">
<stop offset="1.09e-06" stop-color="#FFD000"/>
<stop offset="1" stop-color="#FF7300"/>
</linearGradient>
<linearGradient id="paint11_linear" x1="281.284" y1="240.254" x2="305.153" y2="240.254" gradientUnits="userSpaceOnUse">
<stop offset="1.09e-06" stop-color="#FFD000"/>
<stop offset="1" stop-color="#FF7300"/>
</linearGradient>
<linearGradient id="paint12_linear" x1="296.796" y1="240.254" x2="320.665" y2="240.254" gradientUnits="userSpaceOnUse">
<stop offset="1.09e-06" stop-color="#FFD000"/>
<stop offset="1" stop-color="#FF7300"/>
</linearGradient>
</defs>
</svg>
