<svg width="371" height="371" viewBox="0 0 371 371" fill="none" xmlns="http://www.w3.org/2000/svg">
<g filter="url(#filter0_d)">
<circle cx="185.138" cy="171.138" r="151.138" fill="white"/>
</g>
<mask id="mask0" mask-type="alpha" maskUnits="userSpaceOnUse" x="52" y="38" width="266" height="266">
<circle cx="185.138" cy="171.138" r="132.246" fill="#C4C4C4"/>
</mask>
<g mask="url(#mask0)">
<path d="M121.173 149.402C120.948 143.03 117.628 137.345 115.264 131.472C106.035 108.544 112.563 79.0564 130.345 63.5004C148.127 47.9444 175.476 47.8194 193.37 63.1256C203.387 71.747 210.533 84.4292 221.732 91.1139C234.505 98.7357 250.318 97.1738 263.43 104.046C281.662 113.542 290.778 140.218 282.787 160.71C277.666 173.829 266.525 185.45 268.269 199.631C270.52 217.811 290.834 223.746 305.465 232.18C321.221 241.301 333.995 260.106 331.407 279.598C328.424 301.651 307.378 312.397 287.402 314.833C267.425 317.27 247.448 316.02 227.359 314.833C189.206 312.522 113.182 314.833 113.182 314.833C92.3613 308.898 73.3412 294.904 61.1863 275.287C49.0315 255.67 43.9107 230.493 48.525 207.19C49.8193 200.568 52.0139 193.883 56.1218 188.886C65.1254 177.953 80.1501 177.765 93.3179 175.454C106.486 173.142 121.735 164.146 121.173 149.402Z" fill="#FFDEE7"/>
<path d="M307.864 195.301C309.71 191.58 311.557 187.735 312.397 183.58C313.236 179.425 313.013 174.836 310.83 171.301C307.752 166.278 301.315 164.665 296.166 166.712C291.017 168.758 287.211 173.844 285.14 179.425C283.126 185.068 282.678 191.208 282.622 197.285C282.622 199.456 282.678 201.688 283.349 203.797C284.693 207.828 288.554 210.495 292.416 210.433C295.998 210.371 299.356 208.138 301.875 205.285C304.393 202.371 306.184 198.774 307.864 195.301Z" fill="#FFDEE7"/>
<path d="M270.929 296.739C270.929 290.289 272.683 240.29 272.683 240.29L275.005 297.564L270.929 296.739Z" fill="#F24495"/>
<path d="M266.698 296.739L259.061 240.651L271.342 296.739H266.698Z" fill="#F24495"/>
<path d="M262.88 304.272L254.469 254.17L267.885 301.486L262.88 304.272Z" fill="#F24495"/>
<path d="M279.185 296.739L286.821 240.651L274.541 296.739H279.185Z" fill="#F24495"/>
<path d="M283.003 304.272L291.413 254.17L277.998 301.486L283.003 304.272Z" fill="#F24495"/>
<path d="M285.738 293.436H259.526V306.026C259.526 307.523 260.712 308.709 262.209 308.709H283.055C284.551 308.709 285.738 307.523 285.738 306.026V293.436Z" fill="#4424AF"/>
<path d="M249.67 280.433H209.372V308.761H249.67V280.433Z" stroke="#F2C6D3" stroke-width="2" stroke-miterlimit="10"/>
<path d="M249.67 280.433H209.372V291.011H249.67V280.433Z" stroke="#F2C6D3" stroke-width="2" stroke-miterlimit="10"/>
<path d="M239.351 283.736H226.915V287.399H239.351V283.736Z" fill="#F2C6D3"/>
<path d="M174.956 125.999H142.552V161.292H174.956V125.999Z" stroke="#F2C6D3" stroke-width="2" stroke-miterlimit="10"/>
<path d="M213.293 125.999H180.889V161.292H213.293V125.999Z" stroke="#F2C6D3" stroke-width="2" stroke-miterlimit="10"/>
<path d="M251.58 131.572V161.292H219.227V125.999H227.535" stroke="#F2C6D3" stroke-width="2" stroke-miterlimit="10"/>
<path d="M174.956 169.909H142.552V205.203H174.956V169.909Z" stroke="#F2C6D3" stroke-width="2" stroke-miterlimit="10"/>
<path d="M213.293 169.909H180.889V205.203H213.293V169.909Z" stroke="#F2C6D3" stroke-width="2" stroke-miterlimit="10"/>
<path d="M251.631 169.909H219.227V205.203H251.631V169.909Z" stroke="#F2C6D3" stroke-width="2" stroke-miterlimit="10"/>
<path d="M174.956 213.82H142.552V249.113H174.956V213.82Z" fill="#FDBACE"/>
<path d="M213.293 213.82H180.889V249.113H213.293V213.82Z" stroke="#4D51D7" stroke-width="1.65" stroke-miterlimit="10"/>
<path d="M251.631 213.82H219.227V249.113H251.631V213.82Z" stroke="#F2C6D3" stroke-width="2" stroke-miterlimit="10"/>
<path d="M85.1226 208.608H129.446L123.821 160.363H90.7468L85.1226 208.608Z" stroke="#F2C6D3" stroke-width="2" stroke-miterlimit="10"/>
<path d="M99.6733 201.23H114.224L111.489 160.363H102.46L99.6733 201.23Z" stroke="#F2C6D3" stroke-width="2" stroke-miterlimit="10"/>
<path d="M128.259 201.23H85.6902" stroke="#F2C6D3" stroke-width="2" stroke-miterlimit="10"/>
<path d="M93.5847 208.608L81.1494 308.761H83.7293L98.0737 208.608H93.5847Z" fill="#F2C6D3"/>
<path d="M120.003 208.608L132.49 308.761H129.858L115.566 208.608H120.003Z" fill="#F2C6D3"/>
<path d="M106.949 208.608H109.58L107.877 308.761H106.949H106.02L104.369 208.608H106.949Z" fill="#4424AF"/>
<path d="M146.731 294.055H155.4V308.245H147.97L146.731 294.055Z" fill="#1A145B"/>
<path d="M97.5579 294.055H106.278V308.245H98.8478L97.5579 294.055Z" fill="#1A145B"/>
<path d="M215.048 294.055H223.716V308.245H216.286L215.048 294.055Z" fill="#1A145B"/>
<path d="M96.1481 294.023H224.99V289.018H96.1481V294.023Z" fill="#1A145B"/>
<path d="M225.006 289.05H145.906V294.055H225.006V289.05Z" fill="#F8F6FF"/>
<path d="M103.13 179.094H173.046C178.206 179.094 182.386 183.273 182.386 188.433V214.542H93.791V188.433C93.791 183.273 97.9705 179.094 103.13 179.094Z" fill="#4424AF"/>
<path d="M158.754 214.542H210.662C219.64 214.542 226.915 221.817 226.915 230.796V288.999H158.754V214.542Z" fill="#8B74D9"/>
<path d="M115.308 214.542H193.067C202.045 214.542 209.32 221.817 209.32 230.796V288.999H115.308V214.542Z" fill="#4424AF"/>
<path d="M189.455 214.542H115.308V250.609H189.455V214.542Z" fill="#4424AF"/>
<path d="M189.455 246.327H115.308V250.661H189.455V246.327Z" fill="#4D51D7"/>
<path d="M116.907 179.094H180.167C185.327 179.094 189.506 183.273 189.506 188.433V214.542H107.516V188.433C107.516 183.273 111.696 179.094 116.907 179.094Z" fill="#8B74D9"/>
<path d="M163.427 271.726H220.753V250.622H163.427V271.726Z" fill="#8B74D9"/>
<path d="M160.405 137.505C165.591 137.505 169.796 133.301 169.796 128.114C169.796 122.928 165.591 118.723 160.405 118.723C155.218 118.723 151.014 122.928 151.014 128.114C151.014 133.301 155.218 137.505 160.405 137.505Z" fill="#1A145B"/>
<path d="M157.555 167.8C161.549 167.152 164.262 163.388 163.613 159.394C162.965 155.399 159.201 152.687 155.207 153.335C151.213 153.983 148.5 157.747 149.148 161.741C149.797 165.736 153.56 168.448 157.555 167.8Z" fill="#1A145B"/>
<path d="M198.382 289.102V296.119L189.042 295.758V290.237L198.382 289.102Z" fill="#F5968C"/>
<path d="M215.357 279.608L213.552 273.777L221.446 273.106L222.426 278.266L215.357 279.608Z" fill="#F5968C"/>
<path d="M191.158 134.977C188.629 126.36 179.755 122.748 170.57 124.296C163.346 125.534 159.167 130.23 157.154 136.319C155.348 141.788 157.619 144.574 156.535 149.063C156.535 149.063 156.535 149.063 156.535 149.115C155.916 151.747 156.587 154.481 158.496 156.39C162.263 160.054 166.287 163.563 169.848 167.329L178.826 144.007L186.875 143.646C186.927 143.646 193.531 143.078 191.158 134.977Z" fill="#1A145B"/>
<path d="M162.159 128.682L161.798 128.321C164.172 126.102 167.113 124.657 170.621 124.09L170.725 124.554C167.319 125.122 164.43 126.515 162.159 128.682Z" fill="#4424AF"/>
<path d="M187.649 217.741L194.099 215.78C194.615 215.626 195.234 215.832 195.492 216.296C195.905 216.915 195.647 217.741 194.976 218.051L188.629 220.94L187.649 217.741Z" fill="#F5968C"/>
<path d="M226.399 181.261L228.721 175.275L226.709 174.501L223.716 180.642L226.399 181.261Z" fill="#FFBBB3"/>
<path d="M226.503 173.882L229.186 171.457C229.495 171.199 229.96 171.251 230.218 171.56C230.373 171.818 230.373 172.128 230.218 172.386L227.38 175.998L226.503 173.882Z" fill="#F5968C"/>
<path d="M217.524 177.907L227.638 159.899C227.844 159.538 228.257 159.383 228.67 159.486L233.984 161.034C234.552 161.189 234.758 161.808 234.5 162.324L224.129 180.951C223.923 181.364 223.458 181.519 223.046 181.312L217.937 179.197C217.473 178.939 217.267 178.371 217.524 177.907Z" fill="white"/>
<path d="M221.033 175.069L222.633 175.843L222.22 176.617L220.569 175.791L221.033 175.069Z" fill="#4424AF"/>
<path d="M220.878 173.47L227.999 161.034C228.154 160.776 228.463 160.621 228.773 160.725L231.508 161.499C231.92 161.602 232.127 162.118 231.92 162.479L224.645 175.224C224.49 175.533 224.078 175.637 223.768 175.533L221.136 174.45C220.827 174.295 220.672 173.831 220.878 173.47Z" fill="#1A145B"/>
<path d="M233.984 161.034L233.623 160.931C233.623 161.034 233.572 161.137 233.52 161.241L222.788 180.539C222.684 180.745 222.478 180.9 222.22 180.951L223.046 181.312C223.458 181.467 223.923 181.312 224.129 180.951L234.5 162.324C234.81 161.808 234.552 161.189 233.984 161.034Z" fill="#1A145B"/>
<path d="M221.033 179.042L216.751 181.932C210.094 187.092 201.735 194.986 201.477 194.625C199.723 189.878 196.008 184.924 191.725 179.919L183.882 189.465C189.455 194.677 194.666 200.61 201.323 205.151C202.2 205.719 203.335 205.564 204.057 204.79C210.352 198.856 221.807 185.131 224.8 182.602L226.4 181.261L221.033 179.042Z" fill="#FFBBB3"/>
<path d="M217.112 181.777L216.854 176.875C216.854 176.462 216.957 176.101 217.163 175.791L219.95 172.025C220.156 171.767 220.517 171.767 220.724 172.025C220.982 172.334 221.033 172.747 220.878 173.16L219.33 176.978C221.394 177.236 222.272 178.475 222.942 179.816L217.112 181.777Z" fill="#FFBBB3"/>
<path d="M226.554 172.799L227.844 173.624C228.67 174.14 228.876 175.224 228.412 175.998L228.36 176.101L226.606 174.914C226.09 174.605 225.884 173.882 226.245 173.315L226.554 172.799Z" fill="#FFBBB3"/>
<path d="M225.832 174.45L226.967 175.172C227.69 175.637 227.896 176.565 227.432 177.288L227.38 177.391L225.832 176.359C225.368 176.049 225.213 175.43 225.522 174.966L225.832 174.45Z" fill="#FFBBB3"/>
<path d="M224.594 176.514L225.677 176.617C226.348 176.669 226.864 177.236 226.812 177.959V178.062L225.316 177.907C224.852 177.855 224.542 177.494 224.542 177.03L224.594 176.514Z" fill="#FFBBB3"/>
<path d="M179.858 162.892C183.831 166.143 195.079 183.015 195.079 183.015L185.121 191.993L174.388 177.133L179.858 162.892Z" fill="#F24495"/>
<path d="M149.156 165.317C142.965 172.902 138.321 198.288 143.068 222.437C151.685 221.095 174.904 218.618 174.904 218.618C174.904 218.618 173.253 200.868 175.265 195.76C182.18 193.851 182.386 191.529 183.211 189.723C183.573 188.949 183.624 188.124 183.469 187.298L180.477 173.676C180.477 169.187 183.418 165.162 180.322 161.86C179.6 161.086 178.826 160.415 178 159.848C173.821 156.906 161.179 150.663 149.156 165.317Z" fill="#F24495"/>
<path d="M183.263 189.723C183.624 188.949 183.676 188.124 183.521 187.298" stroke="#C41C6A" stroke-width="1.3048" stroke-miterlimit="10"/>
<path d="M183.521 187.298L180.528 173.676" stroke="#C41C6A" stroke-width="1.3048" stroke-miterlimit="10"/>
<path d="M166.803 148.702L162.417 156.287C161.076 158.661 161.282 161.602 162.985 163.717C163.036 163.769 163.036 163.821 163.088 163.872C166.132 167.484 171.911 166.762 173.924 162.531C174.904 160.467 175.936 159.125 175.936 159.125L166.803 148.702Z" fill="#F5968C"/>
<path d="M154.832 188.485L155.555 197.153C155.606 197.927 156.019 198.65 156.638 199.114L178.516 214.903C179.135 215.316 179.806 215.574 180.58 215.574H185.74C187.752 215.574 189.713 216.348 191.209 217.689L197.298 223.262L196.266 225.842L172.221 222.54L170.621 219.134L148.073 205.409C146.215 204.274 144.977 202.365 144.719 200.198L143.429 190.187L154.832 188.485Z" fill="#FFBBB3"/>
<path d="M173.769 221.198L172.17 217.793L149.621 204.067C147.763 202.932 146.525 201.023 146.267 198.856L145.08 189.826L143.481 190.033L144.771 200.043C145.029 202.21 146.267 204.119 148.125 205.254L170.673 218.979L172.273 222.385L196.318 225.687L196.885 224.346L173.769 221.198Z" fill="#F5968C"/>
<path d="M142.913 190.239L145.906 173.16C146.267 171.199 147.712 169.6 149.621 169.032L149.982 168.929C153.336 167.948 156.69 170.528 156.638 174.037L156.38 189.62L142.913 190.239Z" fill="#F24495"/>
<path d="M156.535 177.701L156.329 189.672" stroke="#C41C6A" stroke-width="1.3048" stroke-miterlimit="10"/>
<path d="M136.618 222.437C136.618 222.437 197.453 211.962 213.19 224.655C221.343 231.415 222.426 274.5 222.426 274.5L213.5 275.325C207.618 263.767 205.193 248.184 200.807 232.55C200.807 232.55 179.548 244.676 157.412 244.676C145.183 244.676 140.075 241.528 138.166 235.543C136.257 229.557 136.618 222.437 136.618 222.437Z" fill="#FEC972"/>
<path d="M175.317 242.405L190.848 230.847C192.448 229.66 194.46 229.144 196.421 229.351C200.084 229.764 203.077 232.498 203.903 236.11C205.915 245.243 206.121 254.634 204.47 263.87C202.303 275.893 199.568 291.579 199.568 291.579H188.165C186.565 276.306 187.391 260.465 190.28 242.25L175.317 242.405Z" fill="#FEC972"/>
<path d="M222.124 270.379L211.836 271.193L211.893 271.913L222.181 271.099L222.124 270.379Z" fill="white"/>
<path d="M171.86 174.656C171.86 175.482 172.531 176.204 173.408 176.204C174.233 176.204 174.956 175.533 174.956 174.656C174.956 173.779 174.285 173.108 173.408 173.108C172.582 173.16 171.86 173.831 171.86 174.656Z" fill="#FFF6E6"/>
<path d="M171.86 181.674C171.86 182.499 172.531 183.222 173.408 183.222C174.233 183.222 174.956 182.551 174.956 181.674C174.956 180.848 174.285 180.126 173.408 180.126C172.582 180.126 171.86 180.797 171.86 181.674Z" fill="#FFF6E6"/>
<path d="M168.506 143.749C168.506 142.356 167.784 141.117 166.7 140.343" stroke="#FBC299" stroke-width="1.65" stroke-miterlimit="10"/>
<path d="M159.373 189.826C159.373 192.148 161.282 194.057 163.604 194.057" stroke="#C41C6A" stroke-width="1.3048" stroke-miterlimit="10"/>
<path d="M212.003 231.518C209.785 231.105 208.288 229.454 207.566 226.564L208.237 226.41C208.907 229.041 210.197 230.486 212.107 230.847L212.003 231.518Z" fill="#1A145B"/>
<path d="M155.4 198.237L153.491 198.753" stroke="#FBC299" stroke-width="1.65" stroke-miterlimit="10"/>
<path d="M200.033 287.606H188.114V288.328H200.033V287.606Z" fill="white"/>
<path d="M223.097 275.325C224.903 278.163 227.225 280.691 229.857 282.704L241.26 291.372C243.221 292.869 244.356 295.294 244.201 297.771L244.098 299.267L213.19 290.598C213.19 290.598 212.261 282.755 215.203 278.369L223.097 275.325Z" fill="#F24495"/>
<path d="M234.088 285.954L231.766 288.483" stroke="#D1D3FC" stroke-width="1.65" stroke-miterlimit="10"/>
<path d="M231.043 283.581L228.67 285.954" stroke="#D1D3FC" stroke-width="1.65" stroke-miterlimit="10"/>
<path d="M228.257 281.362L225.832 283.684" stroke="#D1D3FC" stroke-width="1.65" stroke-miterlimit="10"/>
<path d="M244.046 299.318L243.221 300.918L213.242 292.972L213.139 290.65L244.046 299.318Z" fill="#FFF6E6"/>
<path d="M223.562 285.696C222.942 284.148 221.24 283.374 219.692 283.994C218.144 284.613 217.37 286.316 217.989 287.864C218.608 289.412 220.311 290.185 221.859 289.566C223.407 288.947 224.181 287.244 223.562 285.696Z" fill="#FFF6E6"/>
<path d="M198.897 292.611C198.897 292.611 201.219 294.468 204.109 295.603L216.286 300.402C218.402 301.228 220.001 303.085 220.466 305.304L220.775 306.645L189.094 306.697C189.094 306.697 187.185 298.802 188.733 294.21L198.897 292.611Z" fill="#F24495"/>
<path d="M208.65 297.409L207.205 300.196" stroke="#D1D3FC" stroke-width="1.65" stroke-miterlimit="10"/>
<path d="M205.347 296.119L203.851 298.802" stroke="#D1D3FC" stroke-width="1.65" stroke-miterlimit="10"/>
<path d="M202.355 294.829L200.807 297.461" stroke="#D1D3FC" stroke-width="1.65" stroke-miterlimit="10"/>
<path d="M183.573 147.257C183.573 149.012 185.069 150.457 186.875 150.457C188.681 150.457 190.126 149.012 190.126 147.257C190.126 145.503 188.629 144.058 186.823 144.058C185.017 144.058 183.521 145.503 183.573 147.257Z" fill="#FBC299"/>
<path d="M189.042 141.736L188.733 150.457C188.578 154.791 187.443 159.074 185.379 162.892C184.037 165.369 180.993 166.349 178.516 165.111L173.047 162.427C167.99 159.951 164.894 154.636 165.255 149.012L165.978 135.957C171.808 134.151 177.691 132.191 182.541 133.171C186.566 133.893 189.352 137.609 189.042 141.736Z" fill="#FFBBB3"/>
<path d="M180.116 153.191V152.624H182.644C182.85 152.624 183.108 152.521 183.263 152.366C183.418 152.211 183.47 151.953 183.47 151.747L183.263 149.786L183.831 149.734L184.037 151.695C184.089 152.056 183.934 152.469 183.676 152.727C183.418 153.037 183.057 153.191 182.644 153.191H180.116Z" fill="#F5968C"/>
<path d="M178.31 150.302H175.781C173.253 150.302 171.189 148.238 171.189 145.71V143.542H178.31C179.703 143.542 180.838 144.678 180.838 146.071V147.773C180.838 149.167 179.703 150.302 178.31 150.302ZM172.221 144.626V145.71C172.221 147.67 173.82 149.27 175.781 149.27H178.31C179.135 149.27 179.806 148.599 179.806 147.773V146.071C179.806 145.245 179.135 144.574 178.31 144.574H172.221V144.626Z" fill="#F24495"/>
<path d="M186.462 150.302H185.121C183.727 150.302 182.592 149.167 182.592 147.773V146.071C182.592 144.678 183.727 143.542 185.121 143.542H190.074V146.69C190.074 148.702 188.423 150.302 186.462 150.302ZM185.121 144.626C184.295 144.626 183.624 145.297 183.624 146.122V147.825C183.624 148.651 184.295 149.321 185.121 149.321H186.462C187.855 149.321 189.042 148.186 189.042 146.741V144.626H185.121Z" fill="#F24495"/>
<path d="M171.705 145.039H165.771V146.071H171.705V145.039Z" fill="#F24495"/>
<path d="M160.87 146.948C160.87 149.063 162.624 150.766 164.791 150.766C166.958 150.766 168.713 149.063 168.661 146.948C168.661 144.832 166.907 143.13 164.74 143.13C162.573 143.13 160.87 144.832 160.87 146.948Z" fill="#FFBBB3"/>
<path d="M164.997 150.095C162.83 150.095 161.076 148.393 161.076 146.277C161.076 146.019 161.076 145.761 161.127 145.503C160.921 145.968 160.818 146.432 160.869 146.948C160.869 149.063 162.624 150.766 164.791 150.766C166.7 150.766 168.248 149.425 168.609 147.67C168.042 149.115 166.597 150.095 164.997 150.095Z" fill="#F5968C"/>
<path d="M164.791 148.702C163.81 148.702 163.036 147.928 162.985 146.948C162.985 146.587 163.088 146.226 163.294 145.916L163.656 146.174C163.501 146.38 163.398 146.638 163.398 146.948C163.398 147.67 164.017 148.238 164.739 148.238C164.997 148.238 165.255 148.186 165.462 148.031L165.72 148.393C165.462 148.599 165.1 148.702 164.791 148.702Z" fill="#F5968C"/>
<path d="M163.656 151.179C164.425 151.179 165.049 150.555 165.049 149.786C165.049 149.016 164.425 148.393 163.656 148.393C162.886 148.393 162.262 149.016 162.262 149.786C162.262 150.555 162.886 151.179 163.656 151.179Z" fill="#FFF6E6"/>
<path d="M179.548 140.085C180.735 139.053 181.096 137.402 181.199 135.854C181.406 133.377 181.096 130.901 180.322 128.527C180.838 128.321 181.406 128.218 181.973 128.166C182.18 128.166 182.438 128.114 182.644 128.269C182.85 128.372 182.954 128.579 183.057 128.734C184.244 130.643 184.502 133.068 183.831 135.235C183.263 137.351 181.612 139.156 179.548 140.085Z" fill="#1A145B"/>
<path d="M182.334 133.842C187.03 135.132 189.094 138.692 189.919 140.808C189.713 140.034 189.507 139.26 190.951 138.898L189.042 133.223C188.01 130.075 184.656 128.321 181.457 129.301L163.656 134.616V142.82C167.422 144.884 178.516 142.098 182.334 133.842Z" fill="#1A145B"/>
<path d="M165.152 136.061C165.101 136.061 165.049 136.061 164.997 136.061L165.049 135.545C166.339 135.648 168.3 134.719 169.693 133.377L170.054 133.739C168.506 135.132 166.545 136.061 165.152 136.061Z" fill="#4424AF"/>
<path d="M213.861 271.197C211.694 250.455 207.876 237.245 202.303 230.899C197.608 225.584 192.19 225.584 186.101 226.1C182.18 226.41 177.536 227.854 172.634 229.351C163.088 232.24 152.252 235.543 143.687 231.776L143.997 231.105C152.304 234.769 163.036 231.518 172.479 228.68C177.432 227.184 182.128 225.739 186.101 225.429C191.209 225.016 197.608 224.449 202.922 230.486C208.65 236.936 212.468 250.248 214.687 271.146L213.861 271.197Z" fill="white"/>
<path d="M99.1572 214.542H147.195C156.174 214.542 163.449 221.817 163.449 230.796V288.999H99.1572V214.542Z" fill="#8B74D9"/>
<path d="M93.7911 214.542H129.601C138.579 214.542 145.854 221.817 145.854 230.796V288.999H93.7395V214.542H93.7911Z" fill="#4424AF"/>
<path d="M218.04 128.785H208.701C203.232 128.785 198.846 133.223 198.846 138.64V142.665C198.846 148.135 203.283 152.521 208.701 152.521H211.333L216.854 159.59V152.521H218.04C223.51 152.521 227.896 148.083 227.896 142.665V138.64C227.896 133.171 223.458 128.785 218.04 128.785Z" fill="#F8F6FF" stroke="#AEB2FC" stroke-width="2" stroke-miterlimit="10"/>
<path d="M213.706 139.414C210.352 139.414 207.617 142.149 207.617 145.503V148.805H219.743V145.503C219.743 142.098 217.06 139.414 213.706 139.414Z" fill="#FEC972"/>
<path d="M214.326 140.187C216.436 139.844 217.868 137.857 217.526 135.747C217.184 133.637 215.196 132.205 213.086 132.547C210.976 132.889 209.544 134.877 209.886 136.987C210.228 139.097 212.216 140.529 214.326 140.187Z" fill="#FEC972"/>
<path d="M213.706 138.64C214.841 138.64 215.718 137.867 215.718 136.886H211.694C211.694 137.867 212.571 138.64 213.706 138.64Z" fill="#FFF6E6"/>
<path d="M248.535 126.308H260.351C267.265 126.308 272.838 131.881 272.838 138.795V143.904C272.838 150.818 267.265 156.39 260.351 156.39H256.997L249.98 165.317V156.339H248.535C241.621 156.339 236.048 150.766 236.048 143.852V138.795C236.1 131.881 241.673 126.308 248.535 126.308Z" fill="#F8F6FF" stroke="#AEB2FC" stroke-width="2" stroke-miterlimit="10"/>
<path d="M264.84 134.771H244.046V148.857H264.84V134.771Z" fill="white" stroke="#6768BF" stroke-width="1.9243" stroke-miterlimit="10" stroke-linejoin="round"/>
<path d="M244.046 148.857H264.892L254.469 140.756L244.046 148.857Z" fill="white" stroke="#6768BF" stroke-width="1.9243" stroke-miterlimit="10" stroke-linejoin="round"/>
<path d="M244.046 134.771H264.892L254.469 143.955L244.046 134.771Z" fill="white" stroke="#6768BF" stroke-width="1.9243" stroke-miterlimit="10" stroke-linejoin="round"/>
<path d="M239.712 173.366H249.567C255.346 173.366 259.99 178.062 259.99 183.789V188.02C259.99 193.799 255.294 198.443 249.567 198.443H246.781L240.95 205.925V198.443H239.712C233.933 198.443 229.289 193.748 229.289 188.02V183.789C229.289 178.01 233.984 173.366 239.712 173.366Z" fill="#F8F6FF" stroke="#AEB2FC" stroke-width="2" stroke-miterlimit="10"/>
<path d="M251.941 190.755C253.081 190.755 254.005 189.831 254.005 188.691C254.005 187.551 253.081 186.627 251.941 186.627C250.801 186.627 249.877 187.551 249.877 188.691C249.877 189.831 250.801 190.755 251.941 190.755Z" fill="#F24495"/>
<path d="M244.665 190.755C245.805 190.755 246.729 189.831 246.729 188.691C246.729 187.551 245.805 186.627 244.665 186.627C243.525 186.627 242.601 187.551 242.601 188.691C242.601 189.831 243.525 190.755 244.665 190.755Z" fill="#F24495"/>
<path d="M237.39 190.755C238.53 190.755 239.454 189.831 239.454 188.691C239.454 187.551 238.53 186.627 237.39 186.627C236.25 186.627 235.326 187.551 235.326 188.691C235.326 189.831 236.25 190.755 237.39 190.755Z" fill="#F24495"/>
<path d="M183.16 145.039H180.322V146.071H183.16V145.039Z" fill="#F24495"/>
</g>
<defs>
<filter id="filter0_d" x="0" y="0" width="370.276" height="370.276" filterUnits="userSpaceOnUse" color-interpolation-filters="sRGB">
<feFlood flood-opacity="0" result="BackgroundImageFix"/>
<feColorMatrix in="SourceAlpha" type="matrix" values="0 0 0 0 0 0 0 0 0 0 0 0 0 0 0 0 0 0 127 0"/>
<feOffset dy="14"/>
<feGaussianBlur stdDeviation="17"/>
<feColorMatrix type="matrix" values="0 0 0 0 0 0 0 0 0 0 0 0 0 0 0 0 0 0 0.05 0"/>
<feBlend mode="normal" in2="BackgroundImageFix" result="effect1_dropShadow"/>
<feBlend mode="normal" in="SourceGraphic" in2="effect1_dropShadow" result="shape"/>
</filter>
</defs>
</svg>
