<svg width="433" height="442" viewBox="0 0 433 442" fill="none" xmlns="http://www.w3.org/2000/svg">
<g filter="url(#filter0_d)">
<circle cx="216.108" cy="211.64" r="182.108" fill="white"/>
</g>
<mask id="mask0" mask-type="alpha" maskUnits="userSpaceOnUse" x="56" y="52" width="320" height="319">
<circle cx="216.108" cy="211.64" r="159.345" fill="#C4C4C4"/>
</mask>
<g mask="url(#mask0)">
<path d="M378.25 -62.1497H-93.2949V410.338H378.25V-62.1497Z" fill="#194C67"/>
<path opacity="0.62" d="M493.213 356.205C495.759 350.641 497.174 344.511 497.174 338.003C497.174 313.766 477.558 294.15 453.32 294.055C434.553 294.055 418.614 305.75 412.296 322.254C404.279 312.351 392.019 305.938 378.25 305.938C373.535 305.938 368.914 306.693 364.67 308.108C364.387 296.225 354.673 286.699 342.696 286.699C332.888 286.699 324.494 293.112 321.665 302.072C315.063 294.055 304.972 288.868 293.749 288.868C291.957 288.868 290.071 288.963 288.374 289.246C286.016 281.89 280.074 275.854 271.964 273.968C262.439 271.704 252.819 275.854 247.727 283.587C242.822 262.651 238.861 239.262 237.164 214.364C231.317 130.241 234.806 78.0878 234.806 78.0878L198.497 77.9935C198.497 77.9935 201.798 130.146 195.668 214.176C194.631 227.851 193.027 240.96 190.952 253.503C188.689 252.937 186.426 252.654 183.974 252.654C167.847 252.654 154.832 265.668 154.832 281.795C154.832 282.927 154.926 284.059 155.021 285.19C153.512 285.002 152.003 284.907 150.494 284.907C137.008 284.907 125.313 292.547 119.372 303.675C113.713 298.677 106.263 295.659 98.1524 295.659C85.6093 295.659 74.6695 302.826 69.2939 313.295C64.3898 310.182 58.5426 308.296 52.3183 308.296C34.8711 308.296 20.819 322.442 20.819 339.795C15.0662 342.53 10.4451 347.34 7.8987 353.282C3.74911 350.641 -1.06065 349.132 -6.34195 349.132C-18.3192 349.132 -28.5046 357.054 -31.8054 367.994C-31.8997 367.994 -31.994 367.994 -31.994 367.994C-37.8412 349.698 -54.9111 336.495 -75.1875 336.4C-100.368 336.495 -120.739 356.771 -120.739 381.857C-120.739 406.943 -100.462 427.314 -75.3761 427.314C-70.6607 427.314 -66.1339 426.654 -61.7956 425.239C-55.2883 433.538 -45.2916 438.82 -33.9745 438.82C-14.4525 438.82 1.4857 422.976 1.4857 403.454C1.4857 402.699 1.48569 402.039 1.39139 401.285C8.8418 399.021 14.9719 393.457 17.9898 386.384C22.1394 389.025 26.9491 390.534 32.2304 390.534C39.3036 390.534 45.7166 387.799 50.4321 383.366C56.0906 392.42 66.0874 398.55 77.5931 398.55C95.2289 398.55 109.564 384.309 109.564 366.673C109.564 363.938 109.187 361.298 108.621 358.751C115.883 356.299 121.918 351.301 125.879 344.888C132.198 351.112 140.874 354.979 150.4 354.979C154.832 354.979 158.982 354.13 162.848 352.716C154.172 374.124 147.193 386.478 147.193 386.478L285.167 386.667C285.167 386.667 278 373.747 269.04 351.395C273.096 355.168 278 357.997 283.47 359.6C283.187 361.581 283.092 363.561 282.998 365.636C282.998 389.873 302.614 409.49 326.852 409.584C341.753 409.584 354.862 402.228 362.784 390.911C367.499 392.703 372.686 393.646 378.062 393.646C384.569 393.646 390.793 392.231 396.357 389.685C402.205 407.038 418.52 419.486 437.853 419.486C442.852 419.486 447.662 418.638 452.188 417.129C458.036 421.09 465.014 423.353 472.559 423.353C492.836 423.353 509.34 406.943 509.34 386.667C509.528 374.03 503.021 362.807 493.213 356.205ZM257.912 320.179C257.535 318.953 257.157 317.633 256.686 316.407C257.252 316.69 257.818 316.878 258.383 317.161C258.289 318.104 258.1 319.142 257.912 320.179Z" fill="#247499"/>
<mask id="mask1" mask-type="alpha" maskUnits="userSpaceOnUse" x="-94" y="-63" width="473" height="473">
<path d="M378.533 -62.4326H-93.2949V409.395H378.533V-62.4326Z" fill="url(#paint0_radial)"/>
</mask>
<g mask="url(#mask1)">
<path opacity="0.56" d="M378.533 -62.4326H-93.2949V409.395H378.533V-62.4326Z" fill="url(#paint1_radial)"/>
<path d="M450.114 343.851C449.548 343.851 448.982 343.851 448.416 343.851C448.228 343.851 448.039 343.851 447.945 343.851C447.473 343.851 447.096 343.945 446.624 343.945C446.436 343.945 446.341 343.945 446.153 343.945C445.587 344.039 445.021 344.039 444.455 344.134C444.361 344.134 444.267 344.134 444.172 344.134C443.701 344.228 443.229 344.322 442.758 344.417C442.569 344.417 442.38 344.511 442.192 344.511C441.815 344.605 441.437 344.699 440.966 344.794C440.777 344.794 440.683 344.888 440.494 344.888C440.023 344.982 439.457 345.171 438.985 345.36C438.797 345.454 438.702 345.454 438.514 345.548C438.136 345.643 437.759 345.831 437.382 345.925C437.193 346.02 437.005 346.114 436.816 346.114C436.439 346.208 436.156 346.397 435.779 346.491C435.59 346.586 435.402 346.68 435.213 346.68C434.741 346.869 434.27 347.057 433.893 347.34C433.704 347.434 433.515 347.529 433.232 347.623C432.95 347.717 432.667 347.906 432.478 348C432.289 348.095 432.006 348.283 431.818 348.377C431.535 348.472 431.346 348.66 431.063 348.755C430.686 348.943 430.309 349.226 429.932 349.415C429.743 349.604 429.46 349.698 429.271 349.886C428.989 350.075 428.8 350.264 428.517 350.358C428.328 350.452 428.14 350.641 428.045 350.735C427.763 350.924 427.574 351.112 427.291 351.301C427.197 351.395 427.008 351.49 426.914 351.584C426.348 351.961 425.876 352.433 425.31 352.904C425.216 352.999 425.216 352.999 425.122 353.093C424.839 353.376 424.556 353.564 424.273 353.847C424.179 353.942 424.084 354.036 423.99 354.13C423.047 354.979 422.198 355.922 421.444 356.865C421.161 357.148 420.878 357.525 420.689 357.808L420.595 357.903C418.709 360.355 417.106 362.995 415.785 365.825C415.408 365.73 415.031 365.542 414.654 365.447C414.465 365.353 414.276 365.353 413.993 365.259C413.71 365.164 413.616 365.164 413.333 365.07C413.145 364.976 412.956 364.976 412.673 364.882C412.484 364.787 412.202 364.787 412.013 364.693C411.824 364.693 411.636 364.599 411.447 364.599C411.258 364.599 410.975 364.504 410.787 364.504C410.598 364.504 410.41 364.41 410.221 364.41C409.938 364.41 409.749 364.316 409.467 364.316C409.278 364.316 409.089 364.316 408.901 364.221C408.618 364.221 408.335 364.127 408.052 364.127C407.863 364.127 407.769 364.127 407.58 364.127C407.109 364.127 406.637 364.127 406.26 364.127C405.788 364.127 405.317 364.127 404.845 364.127C404.468 364.127 404.091 364.221 403.619 364.221C403.525 364.221 403.525 364.221 403.431 364.221C402.488 364.316 401.639 364.41 400.79 364.599C400.696 364.221 400.507 363.844 400.413 363.467C400.413 363.373 400.319 363.278 400.319 363.184C400.224 362.807 400.036 362.43 399.941 362.147C399.941 362.052 399.847 361.958 399.847 361.864C399.658 361.486 399.564 361.109 399.375 360.826V360.732C398.904 359.6 398.244 358.469 397.678 357.337C397.678 357.243 397.584 357.148 397.584 357.148C397.395 356.865 397.206 356.488 397.018 356.205C396.923 356.111 396.923 356.017 396.829 355.922C396.641 355.639 396.452 355.356 396.263 355.073C396.169 354.979 396.075 354.885 396.075 354.79C395.414 353.847 394.66 352.904 393.906 352.056C393.811 351.961 393.811 351.867 393.717 351.867C393.528 351.584 393.245 351.395 393.057 351.112C392.962 351.018 392.774 350.83 392.68 350.735C392.491 350.547 392.208 350.264 392.019 350.075C391.925 349.981 391.736 349.792 391.642 349.698C391.453 349.509 391.171 349.321 390.982 349.132C390.793 349.038 390.699 348.849 390.51 348.755C390.133 348.377 389.756 348.095 389.284 347.717C389.096 347.623 388.907 347.434 388.719 347.34C388.53 347.151 388.341 347.057 388.058 346.869C387.87 346.68 387.681 346.586 387.493 346.397C387.304 346.208 387.115 346.114 386.832 346.02C386.644 345.925 386.361 345.737 386.172 345.643C385.984 345.548 385.795 345.36 385.512 345.265C385.229 345.171 385.04 344.982 384.758 344.888C384.569 344.794 384.38 344.699 384.192 344.511C383.815 344.322 383.532 344.134 383.154 343.945C382.966 343.851 382.777 343.756 382.588 343.662C382.211 343.473 381.928 343.379 381.551 343.19C381.362 343.096 381.174 343.002 380.985 343.002C380.702 342.908 380.419 342.719 380.136 342.625C379.948 342.53 379.759 342.436 379.571 342.436C379.288 342.342 379.005 342.247 378.628 342.153C378.439 342.059 378.25 342.059 378.062 341.964C377.684 341.87 377.307 341.776 377.024 341.682C376.93 341.682 376.741 341.587 376.647 341.587C376.175 341.493 375.61 341.304 375.138 341.21C375.044 341.21 374.855 341.116 374.761 341.116C374.384 341.021 374.006 340.927 373.629 340.927C373.441 340.927 373.252 340.833 373.063 340.833C372.686 340.738 372.403 340.738 372.026 340.738C371.837 340.738 371.649 340.738 371.46 340.644C371.083 340.644 370.706 340.55 370.328 340.55C370.14 340.55 369.951 340.55 369.857 340.55C369.291 340.55 368.819 340.55 368.254 340.55C367.688 340.55 367.122 340.55 366.65 340.55C366.462 340.55 366.273 340.55 366.084 340.55C365.707 340.55 365.33 340.644 365.047 340.644C364.858 340.644 364.575 340.644 364.387 340.738C364.104 340.738 363.727 340.833 363.444 340.833C363.255 340.833 362.972 340.927 362.784 340.927C362.501 341.021 362.218 341.021 361.935 341.116C361.652 341.116 361.463 341.21 361.18 341.21C360.897 341.304 360.614 341.304 360.332 341.399C359.294 341.682 358.257 341.964 357.314 342.247C357.125 342.342 357.031 342.342 356.842 342.436C356.559 342.53 356.182 342.719 355.899 342.813C355.805 342.908 355.616 342.908 355.522 343.002C355.145 343.096 354.862 343.285 354.484 343.379C354.39 343.379 354.296 343.473 354.201 343.568C353.824 343.756 353.447 343.945 353.164 344.039H353.07C350.995 345.077 349.014 346.303 347.223 347.717C347.034 347.246 346.751 346.774 346.562 346.303C346.468 346.208 346.468 346.114 346.374 346.02C345.902 345.077 345.336 344.228 344.771 343.379C344.676 343.285 344.676 343.19 344.582 343.096C344.016 342.247 343.262 341.399 342.601 340.644C342.507 340.55 342.413 340.456 342.319 340.361C341.564 339.607 340.81 338.947 340.055 338.286C339.961 338.192 339.866 338.098 339.772 338.098C339.395 337.815 338.923 337.438 338.546 337.155C338.075 336.872 337.697 336.589 337.226 336.306C337.132 336.212 337.037 336.212 336.943 336.117C336.471 335.834 336 335.646 335.528 335.363C335.057 335.174 334.585 334.891 334.114 334.703C334.019 334.608 333.831 334.608 333.736 334.514C333.265 334.325 332.793 334.137 332.227 333.948C331.756 333.76 331.19 333.665 330.719 333.571C330.624 333.571 330.436 333.477 330.341 333.477C329.775 333.382 329.304 333.288 328.738 333.194C328.172 333.099 327.701 333.099 327.135 333.005C327.04 333.005 326.852 333.005 326.758 333.005C326.192 333.005 325.626 332.911 325.06 332.911C324.966 329.421 324.306 326.026 323.079 323.008C322.891 322.537 322.702 322.16 322.514 321.688C322.325 321.311 322.136 320.839 321.948 320.462C321.759 320.085 321.571 319.708 321.288 319.236C321.288 319.236 321.288 319.236 321.288 319.142C321.099 318.764 320.816 318.387 320.627 318.01C320.627 318.01 320.627 317.916 320.533 317.916C320.345 317.538 320.062 317.161 319.779 316.878L319.684 316.784C319.401 316.407 319.213 316.124 318.93 315.747L318.836 315.652C318.553 315.369 318.364 314.992 318.081 314.709C318.081 314.615 317.987 314.615 317.987 314.521C317.704 314.238 317.421 313.955 317.232 313.672C317.138 313.577 317.138 313.577 317.044 313.483C316.761 313.2 316.478 312.917 316.195 312.634C316.101 312.54 316.101 312.54 316.006 312.446C315.723 312.163 315.44 311.974 315.158 311.691C315.063 311.597 314.969 311.597 314.875 311.503C314.592 311.314 314.309 311.031 314.026 310.842C313.932 310.748 313.837 310.654 313.743 310.654C313.46 310.465 313.177 310.182 312.894 309.994C312.8 309.899 312.705 309.805 312.611 309.805C312.328 309.616 312.045 309.428 311.762 309.239C311.668 309.145 311.479 309.051 311.385 308.956C311.102 308.768 310.819 308.579 310.536 308.485C310.442 308.39 310.253 308.296 310.065 308.202C309.782 308.013 309.499 307.919 309.216 307.73C309.027 307.636 308.933 307.542 308.745 307.447C308.462 307.353 308.179 307.164 307.99 307.07C307.801 306.976 307.613 306.882 307.518 306.882C307.236 306.787 307.047 306.599 306.764 306.504C306.575 306.41 306.387 306.316 306.198 306.316C305.915 306.221 305.727 306.127 305.444 306.033C305.255 305.938 305.066 305.938 304.784 305.844C304.501 305.75 304.312 305.656 304.029 305.561C303.84 305.467 303.558 305.467 303.369 305.373C303.086 305.278 302.897 305.278 302.614 305.184C302.331 305.09 302.143 305.09 301.86 304.995C301.671 304.901 301.388 304.901 301.2 304.807C300.917 304.712 300.728 304.712 300.445 304.712C300.257 304.712 299.974 304.618 299.785 304.618C299.502 304.618 299.219 304.524 298.936 304.524C298.748 304.524 298.559 304.429 298.276 304.429C297.993 304.429 297.616 304.335 297.333 304.335C297.145 304.335 296.956 304.335 296.862 304.335C296.39 304.335 295.824 304.335 295.353 304.335C294.787 304.335 294.315 304.335 293.749 304.335C293.561 304.335 293.372 304.335 293.278 304.335C292.901 304.335 292.618 304.429 292.24 304.429C292.052 304.429 291.863 304.524 291.675 304.524C291.392 304.524 291.014 304.618 290.731 304.618C290.543 304.618 290.354 304.712 290.166 304.712C289.883 304.807 289.6 304.807 289.223 304.901C289.034 304.901 288.845 304.995 288.657 304.995C288.374 305.09 288.091 305.09 287.808 305.184C287.619 305.278 287.431 305.278 287.242 305.373C286.959 305.467 286.676 305.561 286.393 305.655C286.205 305.75 286.016 305.75 285.827 305.844C285.544 305.938 285.262 306.033 284.979 306.127C284.79 306.221 284.601 306.316 284.413 306.316C284.13 306.41 283.847 306.504 283.564 306.693C283.375 306.787 283.187 306.882 283.092 306.882C282.81 306.976 282.527 307.164 282.244 307.259C282.055 307.353 281.961 307.447 281.772 307.542C281.489 307.73 281.206 307.825 280.923 308.013C280.735 308.108 280.64 308.202 280.452 308.296C280.169 308.485 279.886 308.673 279.603 308.862C279.509 308.956 279.32 309.051 279.226 309.145C278.943 309.334 278.66 309.522 278.377 309.711C278.283 309.805 278.188 309.899 278 309.994C277.717 310.182 277.434 310.465 277.151 310.654C277.057 310.748 276.962 310.842 276.868 310.842C276.585 311.125 276.302 311.314 275.925 311.597C275.831 311.691 275.736 311.691 275.736 311.786C275.453 312.068 275.076 312.351 274.793 312.634L274.699 312.729C274.322 313.106 274.039 313.389 273.662 313.766C273.473 313.483 273.19 313.2 272.907 313.012C272.718 312.823 272.624 312.729 272.436 312.54C272.153 312.257 271.87 312.068 271.587 311.786C271.398 311.691 271.304 311.503 271.115 311.408C270.832 311.22 270.549 310.937 270.266 310.748C270.078 310.654 269.889 310.56 269.795 310.371C269.512 310.182 269.229 309.994 268.852 309.805C268.663 309.711 268.569 309.616 268.38 309.522C268.003 309.334 267.626 309.145 267.249 308.956C267.154 308.862 266.966 308.862 266.871 308.768C266.4 308.579 266.023 308.39 265.551 308.296C265.457 308.296 265.362 308.202 265.174 308.202C264.702 308.108 264.231 307.919 263.759 307.825C263.665 307.825 263.57 307.825 263.476 307.73C263.005 307.636 262.439 307.542 261.967 307.542C261.873 307.542 261.873 307.542 261.779 307.542C261.213 307.447 260.647 307.447 260.081 307.447C259.892 307.447 259.704 307.447 259.515 307.447C259.61 307.164 259.704 306.787 259.798 306.504C259.798 306.316 259.892 306.221 259.892 306.033C259.892 305.75 259.987 305.561 259.987 305.278C259.987 305.184 259.987 304.995 259.987 304.901C259.987 304.524 260.081 304.147 260.081 303.769C260.081 296.696 254.328 290.943 247.255 290.943C246.878 290.943 246.501 290.943 246.029 291.038C245.84 291.038 245.746 291.038 245.652 291.132C245.369 291.132 245.18 291.226 244.897 291.226C244.709 291.226 244.52 291.321 244.331 291.321C244.143 291.321 243.954 291.415 243.766 291.509C243.577 291.603 243.388 291.603 243.2 291.698C243.105 291.698 243.011 291.792 242.917 291.792C242.068 292.075 241.219 292.452 240.465 292.924C240.182 293.112 239.899 293.301 239.616 293.49C234.995 276.231 230.845 254.163 229.619 228.699C226.507 166.172 229.336 122.885 229.336 122.885H204.439C204.439 122.885 207.174 166.172 204.156 228.699C203.024 251.994 199.346 272.459 195.291 288.963C195.008 288.868 194.725 288.774 194.442 288.68C194.159 288.586 193.876 288.491 193.593 288.491C193.31 288.397 193.027 288.397 192.744 288.303C192.367 288.208 192.084 288.208 191.707 288.114C191.518 288.114 191.235 288.02 191.047 288.02C190.481 287.925 189.821 287.925 189.255 287.925C188.689 287.925 188.029 287.925 187.463 288.02C187.274 288.02 187.18 288.02 186.992 288.02C186.426 288.114 185.86 288.208 185.294 288.303C185.2 288.303 185.2 288.303 185.105 288.303C184.54 288.397 184.068 288.586 183.502 288.68C183.314 288.774 183.125 288.774 182.936 288.868C182.465 288.963 182.087 289.151 181.71 289.34C181.522 289.434 181.333 289.529 181.144 289.623C180.767 289.812 180.39 290 180.013 290.189C179.824 290.283 179.541 290.472 179.353 290.566C179.07 290.755 178.881 290.849 178.598 291.038C178.221 291.321 177.844 291.509 177.466 291.792C177.278 291.886 177.089 292.075 176.901 292.169C176.618 292.358 176.335 292.547 176.146 292.829C176.052 292.924 175.957 293.018 175.863 293.112C175.297 293.584 174.826 294.055 174.354 294.621L174.26 294.716C173.977 294.999 173.788 295.282 173.505 295.659L173.411 295.753C172.94 296.413 172.468 297.073 171.996 297.828C171.525 297.545 170.959 297.168 170.393 296.885C169.922 296.602 169.45 296.413 168.884 296.13C168.79 296.13 168.79 296.036 168.696 296.036C167.658 295.564 166.621 295.187 165.489 294.81C165.395 294.81 165.301 294.716 165.206 294.716C164.735 294.621 164.263 294.433 163.792 294.338C163.697 294.338 163.603 294.338 163.509 294.244C162.943 294.15 162.377 294.055 161.811 293.961C161.717 293.961 161.622 293.961 161.434 293.961C160.962 293.867 160.491 293.867 160.019 293.773C159.831 293.773 159.736 293.773 159.548 293.773C158.982 293.773 158.416 293.678 157.85 293.678C143.044 293.678 131.066 305.656 131.066 320.462C131.066 321.122 131.066 321.782 131.161 322.443C131.161 322.537 131.161 322.725 131.161 322.82C131.255 323.48 131.255 324.14 131.444 324.8C131.444 324.8 131.444 324.8 131.444 324.895C131.538 325.555 131.726 326.215 131.821 326.875C132.009 327.535 132.198 328.195 132.387 328.856C129.652 328.95 127.105 329.327 124.559 330.082C122.484 330.647 120.504 331.496 118.618 332.439C118.24 332.628 117.957 332.816 117.58 333.005C117.486 333.005 117.486 333.099 117.391 333.099C117.109 333.288 116.731 333.477 116.448 333.665L116.354 333.76C115.034 334.608 113.713 335.551 112.582 336.589C112.487 336.683 112.393 336.683 112.393 336.777C112.11 336.966 111.922 337.249 111.639 337.438C111.544 337.532 111.45 337.626 111.356 337.721C111.167 337.909 110.884 338.192 110.696 338.381C110.601 338.475 110.507 338.569 110.413 338.664C109.658 339.418 108.998 340.173 108.338 341.021C108.244 341.116 108.149 341.21 108.055 341.304C107.866 341.493 107.678 341.776 107.583 341.964C107.489 342.153 107.395 342.247 107.3 342.436C107.112 342.625 107.018 342.908 106.829 343.096C106.735 343.285 106.64 343.379 106.546 343.568C106.357 343.756 106.263 344.039 106.169 344.228C106.074 344.417 105.98 344.605 105.886 344.699C105.791 344.888 105.603 345.171 105.509 345.36C105.414 345.548 105.32 345.643 105.32 345.831C105.131 346.303 104.848 346.774 104.66 347.246C104.565 347.434 104.471 347.623 104.377 347.812C104.283 348 104.188 348.283 104.094 348.472C104 348.66 103.905 348.849 103.811 349.038C103.717 349.321 103.622 349.509 103.528 349.792C103.434 349.981 103.339 350.169 103.339 350.452C103.245 350.735 103.151 350.924 103.151 351.207C103.057 351.395 103.057 351.678 102.962 351.867C102.868 352.15 102.868 352.338 102.774 352.621C99.9443 349.792 96.7378 347.34 93.1541 345.36C92.5882 345.077 92.0224 344.699 91.3622 344.417C91.3622 344.417 91.3622 344.417 91.2679 344.417C90.702 344.134 90.1362 343.851 89.476 343.662C89.476 343.662 89.3817 343.662 89.3817 343.568C88.8159 343.285 88.25 343.096 87.6841 342.908C87.5898 342.908 87.5898 342.813 87.4955 342.813C86.9297 342.625 86.3638 342.436 85.798 342.247C85.7037 342.247 85.6093 342.153 85.515 342.153C84.9492 341.964 84.3833 341.87 83.8175 341.682C83.7232 341.682 83.6289 341.587 83.4402 341.587C82.8744 341.493 82.4028 341.304 81.837 341.21C81.6484 341.21 81.5541 341.116 81.3654 341.116C80.8939 341.021 80.328 340.927 79.8565 340.833C79.6679 340.833 79.4793 340.738 79.2906 340.738C78.8191 340.644 78.2532 340.644 77.6874 340.55C77.4988 340.55 77.3102 340.456 77.1215 340.456C76.5557 340.361 76.0842 340.361 75.5183 340.361C75.3297 340.361 75.1411 340.361 74.9524 340.361C74.198 340.361 73.5378 340.267 72.7833 340.267C72.0289 340.267 71.3687 340.267 70.6142 340.361C70.3313 340.361 70.1427 340.361 69.8598 340.456C69.3882 340.456 68.9167 340.55 68.4451 340.55C68.1622 340.55 67.8793 340.644 67.502 340.644C67.1248 340.738 66.7475 340.738 66.3703 340.833C65.9931 340.927 65.7101 340.927 65.3329 341.021C64.9557 341.116 64.6727 341.116 64.2955 341.21C63.9183 341.304 63.541 341.399 63.2581 341.493C62.9752 341.587 62.598 341.587 62.315 341.682C61.9378 341.776 61.5605 341.87 61.1833 341.964C60.9004 342.059 60.6175 342.153 60.3345 342.247C59.9573 342.342 59.5801 342.53 59.2028 342.625C58.9199 342.719 58.637 342.813 58.4483 342.908C58.0711 343.096 57.6939 343.19 57.2223 343.379C57.0337 343.473 56.7508 343.568 56.5622 343.662C56.1849 343.851 55.7134 344.039 55.3362 344.228C55.1475 344.322 54.9589 344.417 54.7703 344.511C54.2988 344.699 53.9215 344.982 53.5443 345.171C53.3557 345.265 53.1671 345.36 52.9784 345.454C52.5069 345.737 52.1297 345.925 51.6581 346.208C51.4695 346.303 51.3752 346.397 51.1866 346.491C50.715 346.774 50.3378 347.057 49.8662 347.34C49.7719 347.434 49.5833 347.529 49.489 347.529C49.0175 347.812 48.5459 348.189 48.1687 348.472C48.0744 348.566 47.9801 348.566 47.8857 348.66C47.4142 349.038 46.9426 349.321 46.5654 349.698C46.4711 349.792 46.3768 349.792 46.3768 349.886C45.9053 350.264 45.4337 350.641 45.0565 351.018C44.9622 351.112 44.9622 351.112 44.8679 351.207C44.3963 351.584 43.9248 352.056 43.5475 352.433L43.4532 352.527C42.9817 352.999 42.6044 353.47 42.1329 353.942C42.1329 353.942 42.1329 353.942 42.0386 354.036C41.567 354.508 41.1898 354.979 40.7183 355.545C34.7768 362.712 31.0987 371.86 31.0044 381.857C30.5329 381.857 30.0613 381.857 29.6841 381.857C29.4955 381.857 29.4012 381.857 29.2126 381.857C28.9296 381.857 28.6467 381.857 28.3638 381.952C28.1752 381.952 27.9865 381.951 27.8922 382.046C27.6093 382.046 27.3264 382.14 27.0434 382.14C26.8548 382.14 26.6662 382.234 26.4776 382.234C26.1947 382.234 26.0061 382.329 25.7231 382.329C25.5345 382.329 25.3459 382.423 25.1573 382.423C24.8743 382.517 24.6857 382.517 24.4028 382.612C24.2142 382.612 24.0256 382.706 23.9312 382.706C23.6483 382.8 23.3654 382.895 23.1768 382.895C22.9882 382.895 22.8939 382.989 22.7052 382.989C22.328 383.083 22.0451 383.178 21.6678 383.366C21.5735 383.366 21.5735 383.366 21.4792 383.46C21.102 383.649 20.7247 383.743 20.3475 383.932C20.2532 384.026 20.0646 384.026 19.9703 384.121C19.6873 384.215 19.4987 384.309 19.2158 384.498C19.0272 384.592 18.9329 384.686 18.7442 384.686C18.5556 384.781 18.2727 384.875 18.0841 385.064C17.8955 385.158 17.8012 385.252 17.6125 385.347C17.4239 385.441 17.2353 385.63 16.9524 385.724C16.7638 385.818 16.6695 385.912 16.4808 386.007C16.2922 386.101 16.1036 386.29 15.915 386.384C15.7264 386.478 15.632 386.573 15.4434 386.667C15.2548 386.761 15.0662 386.95 14.8776 387.138C14.7833 387.233 14.5947 387.327 14.5003 387.421C14.2174 387.61 14.0288 387.799 13.7459 387.987C13.6516 388.082 13.5573 388.082 13.463 388.176C12.6142 387.421 11.7654 386.761 10.8223 386.101C10.728 386.007 10.6337 385.912 10.5394 385.912C10.3508 385.724 10.0678 385.63 9.87921 385.441C9.7849 385.347 9.59629 385.252 9.50198 385.158C9.31336 385.064 9.03042 384.875 8.8418 384.781C8.65318 384.686 8.55888 384.592 8.37025 384.498C8.18164 384.404 7.99303 384.309 7.7101 384.121C7.52148 384.026 7.33287 383.932 7.14425 383.838C6.95564 383.743 6.76701 383.649 6.48408 383.555C6.29546 383.46 6.10685 383.366 5.91824 383.272C5.72961 383.178 5.541 383.083 5.25807 382.989C5.06945 382.895 4.88083 382.8 4.69221 382.8C4.50359 382.706 4.31498 382.612 4.03205 382.612C3.84344 382.517 3.65482 382.423 3.37189 382.423C3.18327 382.329 2.99464 382.329 2.71172 382.234C2.5231 382.14 2.24017 382.14 2.05156 382.046C1.86294 381.951 1.67432 381.952 1.3914 381.857C1.20278 381.763 0.919853 381.763 0.731239 381.669C0.542618 381.669 0.353996 381.574 0.165375 381.574C-0.117554 381.48 -0.306168 381.48 -0.589088 381.48C-0.77771 381.48 -0.966324 381.386 -1.15495 381.386C-1.43787 381.386 -1.7208 381.291 -1.90942 381.291C-2.09804 381.291 -2.28665 381.291 -2.47527 381.197C-2.7582 381.197 -3.04112 381.103 -3.41837 381.103C-3.60698 381.103 -3.70129 381.103 -3.88991 381.103C-4.36145 381.103 -4.833 381.103 -5.30454 381.103C-14.4525 381.103 -22.6574 385.535 -27.6558 392.42C-30.8623 391.099 -34.446 390.345 -38.1241 390.345C-41.8021 390.345 -45.3859 391.099 -48.5924 392.42C-54.6282 382.329 -65.6623 375.444 -78.2997 375.444C-97.4445 375.444 -112.911 390.911 -112.911 410.056C-112.911 429.2 -97.4445 444.667 -78.2997 444.667C-70.1891 444.667 -62.7387 441.838 -56.7973 437.122C-51.8932 441.743 -45.2916 444.667 -38.0298 444.667C-29.259 444.667 -21.4314 440.517 -16.5273 434.104C-13.0379 435.613 -9.26553 436.556 -5.21024 436.556C-4.73869 436.556 -4.26714 436.556 -3.88991 436.556C-3.70129 436.556 -3.60698 436.556 -3.41837 436.556C-3.13544 436.556 -2.85251 436.556 -2.56958 436.462C-2.38096 436.462 -2.19234 436.462 -2.09804 436.368C-1.81511 436.368 -1.53218 436.273 -1.34357 436.273C-1.15495 436.273 -0.966331 436.179 -0.77771 436.179C-0.494789 436.179 -0.306168 436.085 -0.0232391 436.085C0.165382 436.085 0.354004 435.991 0.542618 435.991C0.825546 435.896 1.01415 435.896 1.29708 435.802C1.4857 435.802 1.67432 435.708 1.76862 435.708C2.05155 435.613 2.33448 435.519 2.5231 435.519C2.71172 435.519 2.80603 435.425 2.99464 435.425C3.37188 435.33 3.65482 435.236 4.03205 435.047C4.12636 435.047 4.12636 435.047 4.22066 434.953C4.5979 434.765 4.97514 434.67 5.35237 434.482C5.54099 434.387 5.63531 434.387 5.72961 434.293C6.01254 434.199 6.20115 434.104 6.48408 433.916C6.6727 433.821 6.76701 433.727 6.95562 433.633C7.14424 433.539 7.42718 433.444 7.6158 433.256C7.80441 433.161 7.89873 433.067 8.08734 432.973C8.27596 432.878 8.46458 432.784 8.74751 432.595C8.93612 432.501 9.03043 432.407 9.21905 432.312C9.40767 432.218 9.59628 432.03 9.7849 431.935C9.97351 431.841 10.0678 431.747 10.2564 431.652C10.4451 431.558 10.6337 431.369 10.8223 431.181C10.9166 431.087 11.1052 430.992 11.1995 430.898C11.4825 430.709 11.6711 430.521 11.954 430.332C12.0483 430.238 12.1426 430.238 12.2369 430.143C13.0857 430.898 13.9345 431.558 14.8776 432.218C14.9719 432.312 15.0662 432.407 15.1605 432.407C15.3491 432.595 15.6321 432.69 15.8207 432.878C15.915 432.973 16.1036 433.067 16.1979 433.161C16.3865 433.256 16.6694 433.444 16.8581 433.539C17.0467 433.633 17.141 433.727 17.3296 433.821C17.5182 433.916 17.7069 434.01 17.9898 434.199C18.1784 434.293 18.367 434.387 18.5556 434.482C18.7442 434.576 18.9329 434.67 19.2158 434.765C19.4044 434.859 19.593 434.953 19.7817 435.047C19.9703 435.142 20.1589 435.236 20.4418 435.33C20.6304 435.425 20.8191 435.519 21.0077 435.519C21.1963 435.613 21.3849 435.708 21.6678 435.708C21.8565 435.802 22.0451 435.896 22.328 435.896C22.5166 435.991 22.7052 435.991 22.9882 436.085C23.1768 436.179 23.4597 436.179 23.6483 436.273C23.8369 436.368 24.0256 436.368 24.3085 436.462C24.4971 436.556 24.78 436.556 24.9687 436.651C25.1573 436.651 25.3459 436.745 25.5345 436.745C25.8174 436.839 26.006 436.839 26.289 436.839C26.4776 436.839 26.6662 436.934 26.8548 436.934C27.1378 436.934 27.4207 437.028 27.6093 437.028C27.7979 437.028 27.9865 437.028 28.1752 437.122C28.4581 437.122 28.741 437.217 29.1182 437.217C29.3069 437.217 29.4012 437.217 29.5898 437.217C30.0613 437.217 30.5329 437.217 31.0044 437.217C31.476 437.217 32.0418 437.217 32.5134 437.217C32.702 437.217 32.7963 437.217 32.9849 437.217C33.3622 437.217 33.6451 437.122 34.0223 437.122C34.2109 437.122 34.3996 437.122 34.5882 437.028C34.8711 437.028 35.2483 436.934 35.5313 436.934C35.7199 436.934 35.9085 436.839 36.0971 436.839C36.3801 436.745 36.663 436.745 37.0402 436.651C37.2288 436.651 37.4174 436.556 37.606 436.556C37.889 436.462 38.1719 436.368 38.5491 436.368C38.7378 436.368 38.9264 436.273 39.0207 436.273C39.3036 436.179 39.6808 436.085 39.9638 435.991C40.1524 435.896 40.2467 435.896 40.4353 435.802C40.8126 435.708 41.0955 435.519 41.4727 435.425C41.567 435.425 41.6613 435.33 41.85 435.33C42.2272 435.142 42.6044 435.047 42.9817 434.859C43.076 434.859 43.076 434.859 43.1703 434.765C45.4337 433.727 47.4142 432.407 49.3004 430.804C49.6776 430.521 49.9605 430.143 50.3378 429.86C50.3378 429.86 50.3378 429.86 50.4321 429.766C50.8093 429.483 51.0923 429.106 51.3752 428.823C51.7524 428.446 52.0353 428.163 52.3183 427.786V445.327H363.821C363.915 445.704 364.01 446.082 364.104 446.459C364.104 446.647 364.198 446.742 364.198 446.93C364.293 447.308 364.387 447.685 364.575 447.968C364.67 448.156 364.67 448.345 364.764 448.439C364.858 448.817 365.047 449.099 365.141 449.477C365.236 449.665 365.236 449.76 365.33 449.948C365.424 450.326 365.613 450.608 365.707 450.986C365.801 451.08 365.801 451.269 365.896 451.363C366.462 452.495 367.027 453.721 367.688 454.758C367.782 454.852 367.782 454.947 367.876 455.135C368.065 455.418 368.254 455.701 368.442 456.078C368.536 456.267 368.631 456.361 368.725 456.55C368.914 456.833 369.102 457.116 369.291 457.399C369.385 457.587 369.574 457.776 369.668 457.87C369.857 458.153 370.045 458.436 370.234 458.625C370.328 458.813 370.517 458.908 370.611 459.096C370.8 459.379 370.988 459.568 371.271 459.851C371.366 460.039 371.554 460.134 371.649 460.322C372.12 460.794 372.497 461.36 372.969 461.831C373.063 461.926 373.252 462.114 373.346 462.208C373.535 462.397 373.818 462.586 374.006 462.869C374.195 463.057 374.384 463.246 374.572 463.34C374.761 463.529 375.044 463.717 375.232 463.906C375.421 464.095 375.61 464.283 375.798 464.378C375.987 464.566 376.27 464.755 376.458 464.943C376.647 465.132 376.836 465.321 377.119 465.415C377.307 465.604 377.59 465.792 377.779 465.887C378.062 466.075 378.25 466.264 378.533 466.358C378.722 466.547 378.91 466.641 379.193 466.83C379.571 467.113 379.948 467.301 380.325 467.584C380.514 467.678 380.797 467.867 380.985 467.961C381.268 468.15 381.645 468.339 381.928 468.527C382.117 468.621 382.306 468.716 382.588 468.81C382.871 468.999 383.154 469.093 383.437 469.282C383.626 469.376 383.909 469.47 384.097 469.565C384.38 469.659 384.663 469.847 384.946 469.942C385.135 470.036 385.418 470.13 385.606 470.225C385.889 470.319 386.267 470.508 386.549 470.602C386.738 470.696 386.927 470.791 387.21 470.791C387.587 470.885 387.964 471.073 388.341 471.168C388.53 471.168 388.624 471.262 388.813 471.356C389.379 471.545 389.85 471.639 390.416 471.828C390.605 471.828 390.699 471.922 390.888 471.922C391.265 472.017 391.642 472.111 392.114 472.205C392.302 472.205 392.491 472.3 392.774 472.3C393.151 472.394 393.528 472.394 393.811 472.488C394 472.488 394.283 472.582 394.471 472.582C394.849 472.677 395.226 472.677 395.509 472.677C395.697 472.677 395.98 472.771 396.169 472.771C396.546 472.771 396.923 472.865 397.395 472.865C397.584 472.865 397.772 472.865 397.961 472.865C398.527 472.865 399.093 472.865 399.753 472.865C420.123 472.865 436.533 456.361 436.533 436.085C436.533 435.519 436.533 434.859 436.533 434.293C436.533 434.104 436.533 433.916 436.533 433.633C436.533 433.256 436.439 432.878 436.439 432.407C436.439 432.124 436.345 431.935 436.345 431.652C436.345 431.275 436.25 430.992 436.25 430.615C436.25 430.332 436.156 430.049 436.156 429.766C436.062 429.483 436.062 429.106 435.967 428.823C435.873 428.54 435.873 428.257 435.779 427.974C435.684 427.691 435.684 427.408 435.59 427.125C435.496 426.843 435.402 426.56 435.402 426.277C435.307 425.994 435.213 425.711 435.213 425.522C435.119 425.239 435.024 424.956 434.93 424.579C434.836 424.296 434.741 424.108 434.647 423.825C434.553 423.542 434.458 423.164 434.27 422.882C434.175 422.693 434.081 422.41 433.987 422.221C433.893 421.939 433.704 421.561 433.61 421.278C433.515 421.09 433.421 420.901 433.327 420.712C433.138 420.335 433.044 420.052 432.855 419.675C432.761 419.486 432.667 419.392 432.667 419.204C432.478 418.826 432.289 418.449 432.101 418.072C432.101 417.978 432.006 417.883 432.006 417.883C430.686 415.525 429.177 413.356 427.385 411.376C427.574 411.187 427.857 410.904 428.045 410.716C428.423 410.999 428.8 411.282 429.177 411.565C429.271 411.565 429.271 411.659 429.366 411.659C429.743 411.942 430.12 412.13 430.497 412.413C430.592 412.413 430.592 412.508 430.686 412.508C432.289 413.545 433.893 414.394 435.59 415.148C435.684 415.243 435.873 415.243 435.967 415.337C436.25 415.526 436.628 415.62 437.005 415.714C437.193 415.808 437.382 415.903 437.571 415.903C437.854 415.997 438.231 416.186 438.514 416.28C438.702 416.374 438.985 416.469 439.174 416.469C439.457 416.563 439.74 416.657 440.117 416.752C440.4 416.846 440.683 416.94 440.966 417.034C441.343 417.129 441.72 417.223 442.097 417.317C442.475 417.412 442.852 417.506 443.229 417.6C443.418 417.695 443.701 417.695 443.889 417.695C444.267 417.789 444.549 417.789 444.927 417.883C445.21 417.883 445.398 417.978 445.681 417.978C446.058 418.072 446.436 418.072 446.719 418.072C446.907 418.072 447.19 418.166 447.379 418.166C447.756 418.166 448.133 418.26 448.605 418.26C448.793 418.26 448.982 418.26 449.171 418.26C449.737 418.26 450.397 418.26 450.963 418.26C471.711 418.26 488.497 401.473 488.497 380.725C488.497 359.977 470.862 343.851 450.114 343.851Z" fill="white"/>
<g opacity="0.63">
<path opacity="0.33" d="M142.666 132.316L143.326 134.39H145.401L143.704 135.616L144.364 137.597L142.666 136.371L140.969 137.597L141.629 135.616L139.837 134.39H142.006L142.666 132.316Z" fill="white"/>
<path opacity="0.49" d="M142.666 133.259L143.043 134.579H144.458L143.326 135.428L143.798 136.748L142.666 135.899L141.535 136.748L141.912 135.428L140.78 134.579H142.195L142.666 133.259Z" fill="white"/>
<path opacity="0.71" d="M142.666 134.013L142.855 134.768H143.704L143.044 135.239L143.326 135.994L142.666 135.522L142.006 135.994L142.289 135.239L141.629 134.768H142.383L142.666 134.013Z" fill="white"/>
</g>
<g opacity="0.63">
<path opacity="0.33" d="M262.156 50.5496L260.835 53.0959L262.91 55.0764L260.081 54.6992L258.761 57.2455L258.289 54.4162L255.46 53.9447L258.006 52.6244L257.535 49.7951L259.609 51.7756L262.156 50.5496Z" fill="white"/>
<path opacity="0.49" d="M261.307 51.3984L260.458 53.0959L261.778 54.4163L259.892 54.1333L259.043 55.8309L258.76 53.9447L256.874 53.6618L258.572 52.813L258.289 50.9268L259.609 52.2471L261.307 51.3984Z" fill="white"/>
<path opacity="0.71" d="M260.552 52.0585L260.081 53.0959L260.835 53.8504L259.798 53.6618L259.326 54.6049L259.138 53.5675L258.006 53.3789L259.044 52.9073L258.855 51.7756L259.609 52.6244L260.552 52.0585Z" fill="white"/>
</g>
<g opacity="0.63">
<path opacity="0.33" d="M210.38 71.109L209.154 73.4667L211.04 75.3529L208.4 74.8813L207.268 77.2391L206.796 74.6927L204.25 74.2212L206.608 73.0894L206.136 70.4488L208.022 72.335L210.38 71.109Z" fill="white"/>
<path opacity="0.49" d="M209.531 71.9577L208.777 73.4667L210.003 74.6927L208.305 74.4098L207.551 75.9187L207.268 74.2211L205.57 73.9382L207.079 73.1837L206.796 71.4862L208.022 72.7122L209.531 71.9577Z" fill="white"/>
<path opacity="0.71" d="M208.871 72.5237L208.494 73.4667L209.154 74.1269L208.211 74.0326L207.739 74.8814L207.551 73.9383L206.608 73.7497L207.456 73.2781L207.362 72.335L208.022 72.9952L208.871 72.5237Z" fill="white"/>
</g>
<g opacity="0.63">
<path opacity="0.33" d="M342.036 56.6797L342.884 59.1317H345.431L343.356 60.6407L344.205 63.187L342.036 61.6781L339.961 63.187L340.715 60.6407L338.64 59.1317H341.281L342.036 56.6797Z" fill="white"/>
<path opacity="0.49" d="M342.035 57.8114L342.601 59.4146H344.299L342.884 60.452L343.45 62.0553L342.035 61.0179L340.621 62.0553L341.187 60.452L339.772 59.4146H341.564L342.035 57.8114Z" fill="white"/>
<path opacity="0.71" d="M342.035 58.6602L342.318 59.6033H343.356L342.507 60.1691L342.884 61.1122L342.035 60.5464L341.281 61.1122L341.564 60.1691L340.715 59.6033H341.752L342.035 58.6602Z" fill="white"/>
</g>
<g opacity="0.63">
<path opacity="0.33" d="M274.039 83.8407L274.322 84.6895H275.17L274.51 85.2553L274.793 86.0098L274.039 85.5382L273.379 86.0098L273.661 85.2553L272.907 84.6895H273.756L274.039 83.8407Z" fill="white"/>
<path opacity="0.49" d="M274.039 84.2179L274.227 84.7838H274.793L274.322 85.161L274.51 85.6326L274.039 85.3496L273.567 85.6326L273.756 85.161L273.284 84.7838H273.85L274.039 84.2179Z" fill="white"/>
<path opacity="0.71" d="M274.039 84.5951L274.133 84.8781H274.51L274.227 85.0667L274.322 85.3496L274.039 85.161L273.756 85.3496L273.85 85.0667L273.662 84.8781H273.945L274.039 84.5951Z" fill="white"/>
</g>
<g opacity="0.63">
<path opacity="0.33" d="M368.63 126.751L369.291 128.826H371.46L369.762 130.052L370.422 132.033L368.63 130.807L366.933 132.033L367.593 130.052L365.896 128.826H368.065L368.63 126.751Z" fill="white"/>
<path opacity="0.49" d="M368.631 127.694L369.102 129.015H370.517L369.385 129.863L369.762 131.184L368.631 130.335L367.593 131.184L367.97 129.863L366.839 129.015H368.253L368.631 127.694Z" fill="white"/>
<path opacity="0.71" d="M368.63 128.449L368.913 129.203H369.762L369.102 129.675L369.291 130.429L368.63 129.958L368.065 130.429L368.253 129.675L367.593 129.203H368.442L368.63 128.449Z" fill="white"/>
</g>
<g opacity="0.63">
<path opacity="0.33" d="M336.754 142.784L337.414 144.764H339.583L337.886 145.99L338.546 148.065L336.754 146.745L335.056 148.065L335.717 145.99L334.019 144.764H336.188L336.754 142.784Z" fill="white"/>
<path opacity="0.49" d="M336.754 143.633L337.226 144.953H338.64L337.508 145.802L337.886 147.122L336.754 146.273L335.622 147.122L336.094 145.802L334.962 144.953H336.377L336.754 143.633Z" fill="white"/>
<path opacity="0.71" d="M336.754 144.387L337.037 145.142H337.886L337.226 145.613L337.414 146.368L336.754 145.896L336.188 146.368L336.377 145.613L335.717 145.142H336.565L336.754 144.387Z" fill="white"/>
</g>
<g opacity="0.63">
<path opacity="0.33" d="M279.603 127.789L280.263 129.769H282.338L280.64 131.09L281.301 133.07L279.603 131.844L277.905 133.07L278.566 131.09L276.774 129.769H278.943L279.603 127.789Z" fill="white"/>
<path opacity="0.49" d="M279.603 128.732L279.98 130.052H281.395L280.263 130.807L280.735 132.127L279.603 131.372L278.471 132.127L278.849 130.807L277.717 130.052H279.131L279.603 128.732Z" fill="white"/>
<path opacity="0.71" d="M279.603 129.392L279.792 130.146H280.64L279.98 130.618L280.263 131.467L279.603 130.995L278.943 131.467L279.132 130.618L278.566 130.146H279.32L279.603 129.392Z" fill="white"/>
</g>
<g opacity="0.63">
<path opacity="0.33" d="M146.156 97.6098L146.722 99.6846H148.891L147.193 100.911L147.853 102.891L146.156 101.665L144.364 102.891L145.024 100.911L143.326 99.6846H145.496L146.156 97.6098Z" fill="white"/>
<path opacity="0.49" d="M146.156 98.5529L146.533 99.8732H147.948L146.816 100.722L147.193 102.042L146.156 101.194L145.024 102.042L145.401 100.722L144.27 99.8732H145.684L146.156 98.5529Z" fill="white"/>
<path opacity="0.71" d="M146.156 99.3074L146.344 100.062H147.193L146.533 100.533L146.722 101.288L146.156 100.816L145.495 101.288L145.684 100.533L145.024 100.062H145.873L146.156 99.3074Z" fill="white"/>
</g>
<g opacity="0.63">
<path opacity="0.33" d="M318.836 51.8699L319.496 53.8504H321.665L319.873 55.1707L320.533 57.1512L318.836 55.9252L317.138 57.1512L317.798 55.1707L316.101 53.8504H318.175L318.836 51.8699Z" fill="white"/>
<path opacity="0.49" d="M318.836 52.813L319.307 54.1333H320.722L319.59 54.8878L319.967 56.2081L318.836 55.4536L317.704 56.2081L318.175 54.8878L317.044 54.1333H318.458L318.836 52.813Z" fill="white"/>
<path opacity="0.71" d="M318.836 53.4732L319.118 54.322H319.873L319.213 54.7935L319.496 55.548L318.836 55.0764L318.175 55.548L318.458 54.7935L317.798 54.322H318.647L318.836 53.4732Z" fill="white"/>
</g>
<g opacity="0.63">
<path opacity="0.33" d="M329.398 164.381L330.058 166.361H332.133L330.436 167.681L331.096 169.662L329.398 168.436L327.701 169.662L328.361 167.681L326.569 166.361H328.738L329.398 164.381Z" fill="white"/>
<path opacity="0.49" d="M329.398 165.324L329.775 166.644H331.19L330.058 167.398L330.53 168.719L329.398 167.964L328.266 168.719L328.644 167.398L327.512 166.644H328.927L329.398 165.324Z" fill="white"/>
<path opacity="0.71" d="M329.398 165.984L329.587 166.738H330.436L329.775 167.21L330.058 168.059L329.398 167.587L328.738 168.059L329.021 167.21L328.361 166.738H329.115L329.398 165.984Z" fill="white"/>
</g>
<g opacity="0.63">
<path opacity="0.33" d="M87.967 64.413L88.6271 66.4878H90.7019L89.0044 67.7138L89.6645 69.6943L87.967 68.4683L86.2694 69.6943L86.9296 67.7138L85.1377 66.4878H87.3068L87.967 64.413Z" fill="white"/>
<path opacity="0.49" d="M87.967 65.3561L88.3442 66.6765H89.7589L88.6272 67.5253L89.0987 68.8456L87.967 67.9968L86.8353 68.8456L87.2125 67.5253L86.0808 66.6765H87.4954L87.967 65.3561Z" fill="white"/>
<path opacity="0.71" d="M87.9671 66.1106L88.1557 66.8651H89.0045L88.3443 67.3366L88.6273 68.0911L87.9671 67.6195L87.3069 68.0911L87.5898 67.3366L86.9297 66.8651H87.6842L87.9671 66.1106Z" fill="white"/>
</g>
<g opacity="0.63">
<path opacity="0.33" d="M313.177 88.9334L313.743 90.8196H315.629L314.12 91.9513L314.686 93.7431L313.177 92.6114L311.574 93.7431L312.14 91.9513L310.631 90.8196H312.517L313.177 88.9334Z" fill="white"/>
<path opacity="0.49" d="M313.177 89.7821L313.554 91.0082H314.78L313.743 91.7626L314.12 92.8943L313.177 92.1399L312.14 92.8943L312.517 91.7626L311.479 91.0082H312.706L313.177 89.7821Z" fill="white"/>
<path opacity="0.71" d="M313.177 90.4423L313.366 91.1025H314.12L313.46 91.574L313.743 92.2342L313.177 91.857L312.517 92.2342L312.8 91.574L312.14 91.1025H312.894L313.177 90.4423Z" fill="white"/>
</g>
<g opacity="0.63">
<path opacity="0.33" d="M373.063 64.696L373.629 66.4878H375.609L374.006 67.6195L374.572 69.4114L373.063 68.2797L371.554 69.4114L372.12 67.6195L370.517 66.4878H372.497L373.063 64.696Z" fill="white"/>
<path opacity="0.49" d="M373.063 65.4505L373.441 66.6765H374.761L373.723 67.431L374.101 68.657L373.063 67.9025L372.026 68.657L372.403 67.431L371.366 66.6765H372.686L373.063 65.4505Z" fill="white"/>
<path opacity="0.71" d="M373.063 66.1106L373.252 66.8651H374.006L373.44 67.2423L373.629 67.9968L373.063 67.5253L372.497 67.9968L372.686 67.2423L372.12 66.8651H372.875L373.063 66.1106Z" fill="white"/>
</g>
<g opacity="0.63">
<path opacity="0.33" d="M350.618 114.585L351.183 116.472H353.164L351.561 117.603L352.127 119.395L350.618 118.263L349.014 119.395L349.675 117.603L348.071 116.472H350.052L350.618 114.585Z" fill="white"/>
<path opacity="0.49" d="M350.618 115.434L350.995 116.66H352.221L351.278 117.415L351.655 118.546L350.618 117.792L349.58 118.546L349.958 117.415L348.92 116.66H350.24L350.618 115.434Z" fill="white"/>
<path opacity="0.71" d="M350.618 116.094L350.806 116.755H351.561L350.995 117.226L351.184 117.886L350.618 117.509L350.052 117.886L350.24 117.226L349.675 116.755H350.429L350.618 116.094Z" fill="white"/>
</g>
<g opacity="0.63">
<path opacity="0.33" d="M354.673 93.8375L355.239 95.6293H357.125L355.616 96.761L356.182 98.5529L354.673 97.4212L353.07 98.5529L353.635 96.761L352.126 95.6293H354.013L354.673 93.8375Z" fill="white"/>
<path opacity="0.49" d="M354.673 94.5919L355.05 95.8179H356.276L355.239 96.5724L355.616 97.7984L354.673 97.044L353.635 97.7984L354.013 96.5724L352.975 95.8179H354.201L354.673 94.5919Z" fill="white"/>
<path opacity="0.71" d="M354.673 95.2521L354.861 96.0066H355.616L354.956 96.3838L355.239 97.1383L354.673 96.6667L354.013 97.1383L354.296 96.3838L353.73 96.0066H354.39L354.673 95.2521Z" fill="white"/>
</g>
</g>
</g>
<path d="M200.289 140.237C191.047 162.589 194.348 188.241 208.966 207.574L216.793 217.854L218.019 139.577L200.289 140.237Z" fill="#F99653"/>
<path d="M232.826 140.237C242.068 162.589 238.767 188.241 224.149 207.574L216.322 217.854L215.096 139.577L232.826 140.237Z" fill="#FC7B1D"/>
<path d="M204.345 140.709C197.46 157.496 199.912 176.641 210.852 191.07L216.699 198.803L217.548 140.237L204.345 140.709Z" fill="#F4CC4D"/>
<path d="M228.771 140.709C235.655 157.496 233.203 176.641 222.263 191.07L216.416 198.803L215.567 140.237L228.771 140.709Z" fill="#F5C300"/>
<path d="M209.154 143.255C204.91 153.535 206.419 165.229 213.115 174L216.699 178.716L217.265 142.972L209.154 143.255Z" fill="#F9EECF"/>
<path d="M224.055 143.255C228.299 153.535 226.79 165.229 220.094 174L216.51 178.716L215.945 142.972L224.055 143.255Z" fill="#F4DC90"/>
<path d="M240.653 140.898H193.122L193.687 136.465H240.087L240.653 140.898Z" fill="#BA530D"/>
<path d="M186.992 98.8358C186.992 98.8358 173.883 109.115 172.091 114.114C168.79 123.828 176.712 155.044 176.712 155.044L193.687 137.691L186.992 98.8358Z" fill="#FC7B1D"/>
<path d="M246.972 98.8358C246.972 98.8358 260.081 109.115 261.873 114.114C265.174 123.828 257.252 155.044 257.252 155.044L240.276 137.691L246.972 98.8358Z" fill="#D76510"/>
<path opacity="0.24" d="M250.179 102.137C250.179 102.137 251.97 118.263 243.105 140.615L239.993 137.691L246.972 98.7415L250.179 102.137Z" fill="#A45302"/>
<path opacity="0.38" d="M187.086 98.8358C187.086 98.8358 178.032 111.85 176.429 119.772C171.996 141.463 176.806 155.044 176.806 155.044C176.806 155.044 168.884 123.828 172.185 114.114C173.977 109.021 187.086 98.8358 187.086 98.8358Z" fill="#F9B548"/>
<path d="M216.982 0V137.691H193.782C189.821 126.846 186.991 112.794 186.991 94.6862C187.086 67.7139 193.593 45.3626 200.478 29.2358C202.93 23.4829 205.382 18.5789 207.645 14.4293C212.738 5.28131 216.793 0.188618 216.982 0Z" fill="#E6E6E6"/>
<path d="M246.878 94.6862C246.972 112.699 244.143 126.846 240.087 137.691H216.887V0L216.982 0.0943148C217.642 0.848787 221.509 5.94147 226.318 14.5236C228.11 17.7301 229.996 21.5025 231.977 25.7464C231.977 25.8407 232.071 25.935 232.071 25.935C232.543 26.9724 233.014 28.1041 233.486 29.2358C235.089 33.0082 236.692 37.0634 238.107 41.496C238.201 41.6846 238.296 41.8732 238.296 42.0618C238.39 42.3447 238.484 42.6277 238.579 42.8163C238.579 42.9106 238.673 43.0049 238.673 43.0049C238.767 43.3821 238.956 43.8537 239.05 44.2309C239.239 44.7968 239.427 45.4569 239.616 46.1171C241.691 52.9074 243.483 60.4521 244.803 68.4683C244.897 68.9399 244.992 69.4114 244.992 69.9773C245.086 70.5431 245.18 71.0147 245.18 71.5805C246.312 78.9366 246.878 86.5757 246.878 94.6862Z" fill="#D6D6D6"/>
<path d="M233.486 29.3301C227.733 26.8781 221.98 26.1236 216.982 26.2179C209.626 26.3122 203.59 28.1041 200.478 29.2358C202.93 23.4829 205.382 18.5789 207.645 14.4293C210.946 12.9203 214.153 12.4488 216.888 12.4488C221.226 12.5431 224.621 13.8634 226.224 14.6179C228.676 18.6732 231.128 23.5773 233.486 29.3301Z" fill="#F15A24"/>
<mask id="mask2" mask-type="alpha" maskUnits="userSpaceOnUse" x="211" y="99" width="40" height="47">
<path d="M211.417 124.959L244.331 145.519C244.331 145.519 251.027 121.753 250.65 119.678C249.99 115.246 216.416 99.4017 216.416 99.4017L211.417 124.959Z" fill="url(#paint2_linear)"/>
</mask>
<g mask="url(#mask2)">
<path opacity="0.1" d="M216.51 132.033L240.182 137.597C240.182 137.597 245.935 117.886 245.558 115.811L216.322 99.3074L216.51 132.033Z" fill="url(#paint3_linear)"/>
<path d="M216.699 98.8358C216.699 98.8358 212.266 107.512 211.889 110.719C210.569 122.036 216.699 155.044 216.699 155.044V98.8358Z" fill="#FC7B1D"/>
<path d="M216.51 98.8358C216.51 98.8358 220.943 107.512 221.32 110.719C222.64 122.036 216.51 155.044 216.51 155.044V98.8358Z" fill="#D2650A"/>
</g>
<mask id="mask3" mask-type="alpha" maskUnits="userSpaceOnUse" x="216" y="0" width="31" height="138">
<path d="M240.088 137.691C240.088 137.691 239.993 137.691 240.088 137.691H239.145L234.995 137.408C234.995 137.408 243.2 103.929 241.502 76.0131C239.805 46.8716 217.265 0.754472 216.982 0L217.076 0.0943148C217.736 0.848787 221.603 5.94147 226.413 14.5236C228.205 17.7301 230.091 21.5025 232.071 25.7464C232.071 25.8407 232.166 25.935 232.166 25.935C235.372 33.2911 237.636 39.7041 238.484 42.0618C238.579 42.3447 238.673 42.6277 238.767 42.8163C238.767 42.9106 238.862 43.0049 238.862 43.0049C238.862 43.0992 238.862 43.0992 238.862 43.0992C238.956 43.4765 239.145 43.8537 239.239 44.2309C239.427 44.7968 239.616 45.4569 239.805 46.1171C240.088 46.9659 240.276 47.8147 240.559 48.7578C242.54 55.6423 243.954 62.2439 244.897 68.5626C244.992 69.0342 245.086 69.5057 245.086 70.0716C245.18 70.6374 245.275 71.109 245.275 71.6748C250.462 109.587 240.559 136.371 240.088 137.691Z" fill="url(#paint4_linear)"/>
</mask>
<g mask="url(#mask3)">
<path opacity="0.41" d="M240.088 137.691C240.088 137.691 239.993 137.691 240.088 137.691H239.145L234.995 137.408C234.995 137.408 243.2 103.929 241.502 76.0131C239.805 46.8716 217.265 0.754472 216.982 0L217.076 0.0943148C217.736 0.848787 221.603 5.94147 226.413 14.5236C228.205 17.7301 230.091 21.5025 232.071 25.7464C232.071 25.8407 232.166 25.935 232.166 25.935C235.372 33.2911 237.636 39.7041 238.484 42.0618C238.579 42.3447 238.673 42.6277 238.767 42.8163C238.767 42.9106 238.862 43.0049 238.862 43.0049C238.862 43.0992 238.862 43.0992 238.862 43.0992C238.956 43.4765 239.145 43.8537 239.239 44.2309C239.427 44.7968 239.616 45.4569 239.805 46.1171C240.088 46.9659 240.276 47.8147 240.559 48.7578C242.54 55.6423 243.954 62.2439 244.897 68.5626C244.992 69.0342 245.086 69.5057 245.086 70.0716C245.18 70.6374 245.275 71.109 245.275 71.6748C250.462 109.587 240.559 136.371 240.088 137.691Z" fill="url(#paint5_linear)"/>
<mask id="mask4" mask-type="alpha" maskUnits="userSpaceOnUse" x="212" y="39" width="35" height="45">
<path d="M212.644 60.1691L246.5 83.7464C246.5 83.7464 243.011 55.1708 241.313 51.8699C239.616 48.5691 226.035 39.8927 226.035 39.8927L212.644 60.1691Z" fill="url(#paint6_linear)"/>
</mask>
<g mask="url(#mask4)">
<path d="M217.548 61.3008C224.371 61.3008 229.902 55.7696 229.902 48.9464C229.902 42.1232 224.371 36.5919 217.548 36.5919C210.725 36.5919 205.193 42.1232 205.193 48.9464C205.193 55.7696 210.725 61.3008 217.548 61.3008Z" fill="#4F0B11"/>
<path d="M222.268 59.5445C228.436 56.6269 231.071 49.2614 228.154 43.0933C225.236 36.9251 217.871 34.29 211.703 37.2076C205.534 40.1252 202.899 47.4906 205.817 53.6588C208.735 59.827 216.1 62.4621 222.268 59.5445Z" fill="#680F15"/>
<path d="M226.696 48.3805C226.696 53.7561 222.358 58.0943 216.982 58.0943C216.227 58.0943 215.473 58 214.719 57.8114C210.475 56.774 207.268 53.0017 207.268 48.3805C207.268 43.0049 211.606 38.6667 216.982 38.6667C218.397 38.6667 219.717 38.9496 220.849 39.5155C224.244 41.0244 226.696 44.4195 226.696 48.3805Z" fill="#039385"/>
<path d="M226.696 48.3805C226.696 53.7561 222.358 58.0943 216.982 58.0943C216.227 58.0943 215.473 58 214.719 57.8114C211.323 56.3024 208.871 52.9073 208.871 48.9463C208.871 43.5707 213.21 39.2325 218.585 39.2325C219.34 39.2325 220.094 39.3268 220.849 39.5154C224.244 41.0244 226.696 44.4195 226.696 48.3805Z" fill="#06C6AF"/>
</g>
</g>
<path opacity="0.22" d="M212.644 60.735L246.406 84.3122C246.406 84.3122 242.917 55.7366 241.219 52.4358C239.522 49.135 225.941 40.4585 225.941 40.4585L212.644 60.735Z" fill="url(#paint7_linear)"/>
<path d="M217.453 61.7724C224.277 61.7724 229.808 56.2411 229.808 49.4179C229.808 42.5947 224.277 37.0634 217.453 37.0634C210.63 37.0634 205.099 42.5947 205.099 49.4179C205.099 56.2411 210.63 61.7724 217.453 61.7724Z" fill="#4F0B11"/>
<path d="M222.279 60.0922C228.448 57.1746 231.083 49.8091 228.165 43.641C225.247 37.4728 217.882 34.8377 211.714 37.7553C205.546 40.6729 202.911 48.0384 205.828 54.2065C208.746 60.3747 216.111 63.0098 222.279 60.0922Z" fill="#680F15"/>
<path d="M226.601 48.9463C226.601 54.322 222.263 58.6602 216.887 58.6602C216.133 58.6602 215.378 58.5659 214.624 58.3772C210.38 57.3398 207.174 53.5675 207.174 48.9463C207.174 43.5707 211.512 39.2325 216.887 39.2325C218.302 39.2325 219.622 39.5154 220.754 40.0813C224.244 41.4959 226.601 44.8911 226.601 48.9463Z" fill="#039385"/>
<path d="M226.601 48.9463C226.601 54.322 222.263 58.6602 216.887 58.6602C216.133 58.6602 215.378 58.5659 214.624 58.3772C211.229 56.8683 208.777 53.4732 208.777 49.5122C208.871 44.1366 213.209 39.7984 218.585 39.7984C219.339 39.7984 220.094 39.8927 220.848 40.0813C224.244 41.4959 226.601 44.8911 226.601 48.9463Z" fill="#06C6AF"/>
<defs>
<filter id="filter0_d" x="0" y="9.53197" width="432.216" height="432.216" filterUnits="userSpaceOnUse" color-interpolation-filters="sRGB">
<feFlood flood-opacity="0" result="BackgroundImageFix"/>
<feColorMatrix in="SourceAlpha" type="matrix" values="0 0 0 0 0 0 0 0 0 0 0 0 0 0 0 0 0 0 127 0"/>
<feOffset dy="14"/>
<feGaussianBlur stdDeviation="17"/>
<feColorMatrix type="matrix" values="0 0 0 0 0 0 0 0 0 0 0 0 0 0 0 0 0 0 0.05 0"/>
<feBlend mode="normal" in2="BackgroundImageFix" result="effect1_dropShadow"/>
<feBlend mode="normal" in="SourceGraphic" in2="effect1_dropShadow" result="shape"/>
</filter>
<radialGradient id="paint0_radial" cx="0" cy="0" r="1" gradientUnits="userSpaceOnUse" gradientTransform="translate(145.772 121.281) scale(264.737)">
<stop stop-color="white"/>
<stop offset="0.0871845" stop-color="#F8F8F8"/>
<stop offset="0.2168" stop-color="#E4E4E4"/>
<stop offset="0.3729" stop-color="#C2C2C2"/>
<stop offset="0.5497" stop-color="#949494"/>
<stop offset="0.7438" stop-color="#595959"/>
<stop offset="0.9494" stop-color="#131313"/>
<stop offset="1"/>
</radialGradient>
<radialGradient id="paint1_radial" cx="0" cy="0" r="1" gradientUnits="userSpaceOnUse" gradientTransform="translate(222.477 84.1857) scale(415.777)">
<stop stop-color="white"/>
<stop offset="0.044426" stop-color="#E6E8F0"/>
<stop offset="0.1499" stop-color="#B1B6CE"/>
<stop offset="0.2595" stop-color="#828AB1"/>
<stop offset="0.3711" stop-color="#5A6598"/>
<stop offset="0.485" stop-color="#394684"/>
<stop offset="0.6021" stop-color="#202F74"/>
<stop offset="0.7235" stop-color="#0E1E69"/>
<stop offset="0.8521" stop-color="#031462"/>
<stop offset="1" stop-color="#001160"/>
</radialGradient>
<linearGradient id="paint2_linear" x1="253.708" y1="137.522" x2="211.464" y2="108.105" gradientUnits="userSpaceOnUse">
<stop/>
<stop offset="0.2159" stop-color="#393939"/>
<stop offset="0.7615" stop-color="#C6C6C6"/>
<stop offset="1" stop-color="white"/>
</linearGradient>
<linearGradient id="paint3_linear" x1="245.856" y1="134.259" x2="210.314" y2="109.509" gradientUnits="userSpaceOnUse">
<stop stop-color="white"/>
<stop offset="0.2159" stop-color="#D4C9C6"/>
<stop offset="0.7615" stop-color="#6A4539"/>
<stop offset="1" stop-color="#3F1000"/>
</linearGradient>
<linearGradient id="paint4_linear" x1="231.878" y1="137.714" x2="231.878" y2="-0.0113203" gradientUnits="userSpaceOnUse">
<stop/>
<stop offset="0.2159" stop-color="#393939"/>
<stop offset="0.7615" stop-color="#C6C6C6"/>
<stop offset="1" stop-color="white"/>
</linearGradient>
<linearGradient id="paint5_linear" x1="231.878" y1="137.714" x2="231.878" y2="-0.0113203" gradientUnits="userSpaceOnUse">
<stop stop-color="white"/>
<stop offset="1" stop-color="white"/>
</linearGradient>
<linearGradient id="paint6_linear" x1="255.658" y1="75.3431" x2="219.688" y2="50.2953" gradientUnits="userSpaceOnUse">
<stop/>
<stop offset="0.2159" stop-color="#393939"/>
<stop offset="0.7615" stop-color="#C6C6C6"/>
<stop offset="1" stop-color="white"/>
</linearGradient>
<linearGradient id="paint7_linear" x1="255.615" y1="75.8516" x2="219.645" y2="50.8038" gradientUnits="userSpaceOnUse">
<stop stop-color="white"/>
<stop offset="0.2159" stop-color="#D4C9C6"/>
<stop offset="0.7615" stop-color="#6A4539"/>
<stop offset="1" stop-color="#3F1000"/>
</linearGradient>
</defs>
</svg>
