<svg width="24" height="5" viewBox="0 0 24 5" fill="none" xmlns="http://www.w3.org/2000/svg">
<path d="M2.10378 4.22C3.20378 4.22 4.08378 3.384 4.08378 2.284C4.08378 1.184 3.20378 0.348 2.10378 0.348C1.00378 0.348 0.123781 1.184 0.123781 2.284C0.123781 3.384 1.00378 4.22 2.10378 4.22ZM11.9866 4.22C13.0866 4.22 13.9666 3.384 13.9666 2.284C13.9666 1.184 13.0866 0.348 11.9866 0.348C10.8866 0.348 10.0066 1.184 10.0066 2.284C10.0066 3.384 10.8866 4.22 11.9866 4.22ZM21.8694 4.22C22.9694 4.22 23.8494 3.384 23.8494 2.284C23.8494 1.184 22.9694 0.348 21.8694 0.348C20.7694 0.348 19.8894 1.184 19.8894 2.284C19.8894 3.384 20.7694 4.22 21.8694 4.22Z" fill="#E0E0E0"/>
</svg>
