<svg width="620" height="40" viewBox="0 0 620 40" fill="none" xmlns="http://www.w3.org/2000/svg">
<rect y="15" width="620" height="10" rx="5" fill="#DFDFDF"/>
<rect x="8" y="30" width="1" height="10" fill="#C4C4C4"/>
<rect x="8" width="1" height="10" fill="#C4C4C4"/>
<rect x="159" y="30" width="1" height="10" fill="#C4C4C4"/>
<rect x="159" width="1" height="10" fill="#C4C4C4"/>
<rect x="310" y="30" width="1" height="10" fill="#C4C4C4"/>
<rect x="310" width="1" height="10" fill="#C4C4C4"/>
<rect x="461" y="30" width="1" height="10" fill="#C4C4C4"/>
<rect x="461" width="1" height="10" fill="#C4C4C4"/>
<rect x="612" y="30" width="1" height="10" fill="#C4C4C4"/>
<rect x="612" width="1" height="10" fill="#C4C4C4"/>
<rect x="17" y="30" width="1" height="5" fill="#C4C4C4"/>
<rect x="17" y="5" width="1" height="5" fill="#C4C4C4"/>
<rect x="169" y="30" width="1" height="5" fill="#C4C4C4"/>
<rect x="169" y="5" width="1" height="5" fill="#C4C4C4"/>
<rect x="320" y="30" width="1" height="5" fill="#C4C4C4"/>
<rect x="320" y="5" width="1" height="5" fill="#C4C4C4"/>
<rect x="471" y="30" width="1" height="5" fill="#C4C4C4"/>
<rect x="471" y="5" width="1" height="5" fill="#C4C4C4"/>
<rect x="28" y="30" width="1" height="5" fill="#C4C4C4"/>
<rect x="28" y="5" width="1" height="5" fill="#C4C4C4"/>
<rect x="180" y="30" width="1" height="5" fill="#C4C4C4"/>
<rect x="180" y="5" width="1" height="5" fill="#C4C4C4"/>
<rect x="331" y="30" width="1" height="5" fill="#C4C4C4"/>
<rect x="331" y="5" width="1" height="5" fill="#C4C4C4"/>
<rect x="482" y="30" width="1" height="5" fill="#C4C4C4"/>
<rect x="482" y="5" width="1" height="5" fill="#C4C4C4"/>
<rect x="39" y="30" width="1" height="5" fill="#C4C4C4"/>
<rect x="39" y="5" width="1" height="5" fill="#C4C4C4"/>
<rect x="191" y="30" width="1" height="5" fill="#C4C4C4"/>
<rect x="191" y="5" width="1" height="5" fill="#C4C4C4"/>
<rect x="342" y="30" width="1" height="5" fill="#C4C4C4"/>
<rect x="342" y="5" width="1" height="5" fill="#C4C4C4"/>
<rect x="493" y="30" width="1" height="5" fill="#C4C4C4"/>
<rect x="493" y="5" width="1" height="5" fill="#C4C4C4"/>
<rect x="50" y="30" width="1" height="5" fill="#C4C4C4"/>
<rect x="50" y="5" width="1" height="5" fill="#C4C4C4"/>
<rect x="202" y="30" width="1" height="5" fill="#C4C4C4"/>
<rect x="202" y="5" width="1" height="5" fill="#C4C4C4"/>
<rect x="353" y="30" width="1" height="5" fill="#C4C4C4"/>
<rect x="353" y="5" width="1" height="5" fill="#C4C4C4"/>
<rect x="504" y="30" width="1" height="5" fill="#C4C4C4"/>
<rect x="504" y="5" width="1" height="5" fill="#C4C4C4"/>
<rect x="61" y="30" width="1" height="5" fill="#C4C4C4"/>
<rect x="61" y="5" width="1" height="5" fill="#C4C4C4"/>
<rect x="213" y="30" width="1" height="5" fill="#C4C4C4"/>
<rect x="213" y="5" width="1" height="5" fill="#C4C4C4"/>
<rect x="364" y="30" width="1" height="5" fill="#C4C4C4"/>
<rect x="364" y="5" width="1" height="5" fill="#C4C4C4"/>
<rect x="515" y="30" width="1" height="5" fill="#C4C4C4"/>
<rect x="515" y="5" width="1" height="5" fill="#C4C4C4"/>
<rect x="72" y="30" width="1" height="5" fill="#C4C4C4"/>
<rect x="72" y="5" width="1" height="5" fill="#C4C4C4"/>
<rect x="224" y="30" width="1" height="5" fill="#C4C4C4"/>
<rect x="224" y="5" width="1" height="5" fill="#C4C4C4"/>
<rect x="375" y="30" width="1" height="5" fill="#C4C4C4"/>
<rect x="375" y="5" width="1" height="5" fill="#C4C4C4"/>
<rect x="526" y="30" width="1" height="5" fill="#C4C4C4"/>
<rect x="526" y="5" width="1" height="5" fill="#C4C4C4"/>
<rect x="83" y="30" width="1" height="5" fill="#C4C4C4"/>
<rect x="83" y="5" width="1" height="5" fill="#C4C4C4"/>
<rect x="235" y="30" width="1" height="5" fill="#C4C4C4"/>
<rect x="235" y="5" width="1" height="5" fill="#C4C4C4"/>
<rect x="386" y="30" width="1" height="5" fill="#C4C4C4"/>
<rect x="386" y="5" width="1" height="5" fill="#C4C4C4"/>
<rect x="537" y="30" width="1" height="5" fill="#C4C4C4"/>
<rect x="537" y="5" width="1" height="5" fill="#C4C4C4"/>
<rect x="94" y="30" width="1" height="5" fill="#C4C4C4"/>
<rect x="94" y="5" width="1" height="5" fill="#C4C4C4"/>
<rect x="246" y="30" width="1" height="5" fill="#C4C4C4"/>
<rect x="246" y="5" width="1" height="5" fill="#C4C4C4"/>
<rect x="397" y="30" width="1" height="5" fill="#C4C4C4"/>
<rect x="397" y="5" width="1" height="5" fill="#C4C4C4"/>
<rect x="548" y="30" width="1" height="5" fill="#C4C4C4"/>
<rect x="548" y="5" width="1" height="5" fill="#C4C4C4"/>
<rect x="105" y="30" width="1" height="5" fill="#C4C4C4"/>
<rect x="105" y="5" width="1" height="5" fill="#C4C4C4"/>
<rect x="257" y="30" width="1" height="5" fill="#C4C4C4"/>
<rect x="257" y="5" width="1" height="5" fill="#C4C4C4"/>
<rect x="408" y="30" width="1" height="5" fill="#C4C4C4"/>
<rect x="408" y="5" width="1" height="5" fill="#C4C4C4"/>
<rect x="559" y="30" width="1" height="5" fill="#C4C4C4"/>
<rect x="559" y="5" width="1" height="5" fill="#C4C4C4"/>
<rect x="116" y="30" width="1" height="5" fill="#C4C4C4"/>
<rect x="116" y="5" width="1" height="5" fill="#C4C4C4"/>
<rect x="268" y="30" width="1" height="5" fill="#C4C4C4"/>
<rect x="268" y="5" width="1" height="5" fill="#C4C4C4"/>
<rect x="419" y="30" width="1" height="5" fill="#C4C4C4"/>
<rect x="419" y="5" width="1" height="5" fill="#C4C4C4"/>
<rect x="570" y="30" width="1" height="5" fill="#C4C4C4"/>
<rect x="570" y="5" width="1" height="5" fill="#C4C4C4"/>
<rect x="127" y="30" width="1" height="5" fill="#C4C4C4"/>
<rect x="127" y="5" width="1" height="5" fill="#C4C4C4"/>
<rect x="279" y="30" width="1" height="5" fill="#C4C4C4"/>
<rect x="279" y="5" width="1" height="5" fill="#C4C4C4"/>
<rect x="430" y="30" width="1" height="5" fill="#C4C4C4"/>
<rect x="430" y="5" width="1" height="5" fill="#C4C4C4"/>
<rect x="581" y="30" width="1" height="5" fill="#C4C4C4"/>
<rect x="581" y="5" width="1" height="5" fill="#C4C4C4"/>
<rect x="138" y="30" width="1" height="5" fill="#C4C4C4"/>
<rect x="138" y="5" width="1" height="5" fill="#C4C4C4"/>
<rect x="290" y="30" width="1" height="5" fill="#C4C4C4"/>
<rect x="290" y="5" width="1" height="5" fill="#C4C4C4"/>
<rect x="441" y="30" width="1" height="5" fill="#C4C4C4"/>
<rect x="441" y="5" width="1" height="5" fill="#C4C4C4"/>
<rect x="592" y="30" width="1" height="5" fill="#C4C4C4"/>
<rect x="592" y="5" width="1" height="5" fill="#C4C4C4"/>
<rect x="149" y="30" width="1" height="5" fill="#C4C4C4"/>
<rect x="149" y="5" width="1" height="5" fill="#C4C4C4"/>
<rect x="301" y="30" width="1" height="5" fill="#C4C4C4"/>
<rect x="301" y="5" width="1" height="5" fill="#C4C4C4"/>
<rect x="452" y="30" width="1" height="5" fill="#C4C4C4"/>
<rect x="452" y="5" width="1" height="5" fill="#C4C4C4"/>
<rect x="603" y="30" width="1" height="5" fill="#C4C4C4"/>
<rect x="603" y="5" width="1" height="5" fill="#C4C4C4"/>
</svg>
