<svg width="78" height="24" viewBox="0 0 78 24" fill="none" xmlns="http://www.w3.org/2000/svg">
<path d="M6.64384 4.07902C6.92978 4.45417 7.21926 4.82933 7.5052 5.20081C8.30655 6.24536 9.10791 7.28992 9.90926 8.33448C11.1342 9.92705 12.3557 11.5233 13.5807 13.1196C14.3149 14.0759 15.0492 15.0358 15.7835 15.9921C15.9635 16.2275 16.1365 16.4702 16.3271 16.6983C16.4507 16.8454 16.5707 17.0072 16.7119 17.136C16.9802 17.3824 17.252 17.6178 17.5733 17.7943C18.1875 18.1327 18.8653 18.3387 19.5643 18.3497C20.0162 18.3571 20.4433 18.3056 20.8775 18.1915C21.3647 18.0665 21.8378 17.8348 22.2543 17.5442C22.8862 17.1102 23.4969 16.6394 24.1183 16.1907C25.0926 15.4809 26.0669 14.7747 27.0448 14.0648C27.6732 13.6087 28.2909 13.138 28.9334 12.704C30.4973 11.6447 32.3542 11.0746 34.2252 11.0562C35.3725 11.0452 36.548 11.2291 37.6247 11.6447C38.1402 11.8433 38.6414 12.0677 39.1463 12.2883C41.1196 13.149 43.093 14.0096 45.0664 14.8703C45.2394 14.9439 45.4159 15.0468 45.5959 15.102C45.5818 15.0983 45.5677 15.091 45.5571 15.0873C45.7336 15.1498 45.9101 15.2271 46.0866 15.2896C46.5208 15.4478 46.9833 15.536 47.4422 15.5691C48.3883 15.639 49.3556 15.4625 50.2169 15.0579C50.6723 14.8446 51.1065 14.5797 51.5478 14.337C52.4445 13.8405 53.3411 13.3402 54.2378 12.8437C55.9711 11.8801 57.7044 10.9164 59.4413 9.95648C61.0263 9.07743 62.6149 8.19471 64.2 7.31199C65.8486 6.39616 67.4936 5.48402 69.1422 4.56819C70.5049 3.81052 71.8711 3.05285 73.2337 2.29518C74.1586 1.78026 75.0835 1.26534 76.0085 0.754092C76.4109 0.529734 76.8133 0.301697 77.2193 0.081016C77.304 0.0368799 77.3888 9.97527e-05 77.4876 9.97527e-05C77.8547 -0.00725627 78.1301 0.393647 77.9359 0.732024C77.8618 0.860755 77.7276 0.930637 77.6076 1.01155C77.0887 1.34993 76.5697 1.69199 76.0508 2.03036C75.0482 2.68505 74.0457 3.33973 73.0431 3.99442C71.6346 4.91392 70.226 5.83343 68.8139 6.75661C67.2571 7.77174 65.7003 8.79055 64.1435 9.80568C62.5796 10.8245 61.0158 11.847 59.4554 12.8695C57.7609 13.9765 56.0664 15.0799 54.3755 16.187C53.74 16.6026 53.1046 17.0183 52.4692 17.4302C51.9926 17.7428 51.5019 18.026 50.983 18.2578C49.2496 19.0375 47.2833 19.2067 45.437 18.8205C44.964 18.7212 44.5051 18.5741 44.0532 18.4159C43.2907 18.1474 42.5282 17.8752 41.7621 17.6067C40.2194 17.0587 38.6767 16.5144 37.1341 15.9664C36.6186 15.7861 36.1103 15.5949 35.5666 15.5176C34.5958 15.3779 33.5933 15.5213 32.7037 15.948C32.4318 16.0804 32.1706 16.2385 31.9235 16.4187C31.7999 16.507 31.6905 16.621 31.5599 16.702C31.5811 16.6872 31.6023 16.6725 31.6199 16.6578C30.8115 17.3603 29.9819 18.0371 29.1629 18.7285C28.2203 19.523 27.2778 20.3174 26.3387 21.1082C25.9998 21.3914 25.668 21.682 25.3115 21.9468C25.0785 22.1197 24.8525 22.2925 24.6054 22.4433C24.1183 22.7412 23.6205 23.0171 23.0945 23.2341C21.633 23.8373 20.0409 24.0727 18.47 23.9807C17.2944 23.9109 16.1294 23.5982 15.0492 23.1311C13.9831 22.6714 13.0158 22.0093 12.1615 21.2149C11.7908 20.8691 11.4519 20.4903 11.1166 20.1115C10.3717 19.2729 9.62331 18.4343 8.87844 17.5957C7.48049 16.0252 6.08254 14.451 4.68105 12.8805C3.75968 11.847 2.84183 10.8135 1.92045 9.77626C1.58508 9.4011 1.24971 9.02594 0.917877 8.64711C0.338926 7.98874 0.00355867 7.15016 2.84824e-05 6.27111C-0.0035017 5.39942 0.321275 4.54612 0.889635 3.89511C2.07931 2.53793 4.13388 2.24736 5.65539 3.18526C6.03665 3.42065 6.37201 3.72225 6.64384 4.07902Z" fill="#008BCD"/>
</svg>
