<?xml version="1.0" standalone="no"?>
<!DOCTYPE svg PUBLIC "-//W3C//DTD SVG 20010904//EN"
 "http://www.w3.org/TR/2001/REC-SVG-20010904/DTD/svg10.dtd">
<svg version="1.0" xmlns="http://www.w3.org/2000/svg"
 width="4000.000000pt" height="4000.000000pt" viewBox="0 0 4000.000000 4000.000000"
 preserveAspectRatio="xMidYMid meet">
<metadata>
Created by potrace 1.14, written by Peter Selinger 2001-2017
</metadata>
<g transform="translate(0.000000,4000.000000) scale(0.100000,-0.100000)"
fill="#000000" stroke="none">
<path d="M15555 31003 c-95 -11 -159 -29 -235 -65 -153 -74 -320 -267 -425
-491 -186 -400 -245 -1015 -170 -1772 74 -735 288 -1705 559 -2530 68 -209 72
-224 59 -250 -63 -119 -244 -616 -338 -925 -199 -658 -310 -1171 -520 -2400
-135 -795 -132 -780 -290 -1260 -134 -405 -145 -447 -145 -560 0 -73 4 -93 29
-145 35 -74 78 -115 156 -152 56 -26 68 -28 180 -27 112 1 239 24 329 60 24 9
24 9 -49 -170 -114 -279 -131 -428 -66 -561 73 -149 223 -222 531 -259 199
-25 235 -34 334 -85 201 -103 388 -263 799 -681 311 -316 419 -412 624 -556
59 -42 107 -80 106 -84 -1 -4 -51 -72 -111 -151 -480 -635 -957 -1511 -1439
-2639 -593 -1390 -913 -2643 -961 -3770 -8 -179 1 -699 12 -766 l7 -41 -83 14
c-1527 255 -2594 904 -3343 2033 -710 1070 -988 2417 -669 3245 125 324 355
568 625 662 64 22 85 25 158 20 113 -7 207 -53 307 -152 94 -93 151 -181 272
-420 157 -308 293 -506 473 -685 162 -161 368 -284 564 -337 91 -25 116 -27
285 -27 169 -1 194 2 292 26 179 45 383 133 508 218 73 49 204 187 263 277
104 156 193 388 232 603 27 146 32 465 10 627 -63 464 -261 906 -596 1328
-125 158 -395 430 -544 549 -497 396 -1033 619 -1647 685 -142 16 -520 13
-678 -4 -1400 -154 -2616 -1174 -3068 -2575 -253 -783 -269 -1626 -47 -2509
212 -843 616 -1668 1234 -2520 918 -1266 2007 -2132 3350 -2666 639 -254 1328
-420 2106 -508 l110 -12 -70 -47 c-173 -114 -231 -238 -171 -363 29 -62 80
-114 171 -175 127 -86 251 -141 555 -248 292 -103 905 -239 1470 -327 371 -57
574 -84 1070 -139 1487 -167 3604 -239 5445 -186 1293 38 2319 112 3390 245
525 66 1121 167 1435 245 53 13 74 17 115 26 164 34 549 151 715 216 321 127
530 299 530 438 0 40 -37 117 -81 168 -61 70 -206 163 -364 231 -27 12 -59 26
-70 31 -51 24 -257 95 -304 105 -9 2 -32 10 -52 19 -20 8 -40 12 -44 8 -19
-16 12 26 77 107 305 380 626 988 808 1531 137 406 197 717 207 1055 14 535
-116 865 -436 1101 -72 53 -81 62 -81 92 0 32 0 32 -52 32 -37 0 -79 11 -149
40 -165 68 -250 84 -429 84 -125 0 -171 -4 -240 -21 -99 -25 -228 -78 -310
-127 l-58 -34 -27 107 c-143 553 -420 923 -801 1073 -81 32 -84 34 -84 65 0
17 -2 38 -5 46 -4 10 36 35 147 90 370 185 604 423 711 723 59 165 72 259 72
514 -1 258 -13 351 -76 589 -190 711 -698 1450 -1387 2019 -58 48 -116 96
-130 107 l-24 21 173 86 c426 212 808 462 1130 739 227 196 440 417 538 562
85 125 236 254 350 299 52 21 72 22 306 23 262 2 304 7 412 55 60 26 137 102
161 158 63 149 35 271 -166 713 l-30 66 87 -28 c191 -61 361 -77 468 -43 72
23 143 87 173 156 20 46 22 64 17 143 -6 105 -14 134 -154 520 -165 456 -162
445 -333 1310 -190 956 -346 1658 -444 1995 -145 501 -404 1102 -715 1663
l-82 147 20 73 c279 1002 433 2105 392 2797 -37 619 -180 1037 -446 1306 -150
152 -233 187 -445 187 -155 -1 -264 -20 -478 -84 -499 -149 -1232 -523 -2151
-1096 l-184 -115 -76 36 c-305 142 -918 353 -1333 460 -473 122 -788 165
-1268 173 -506 9 -884 -23 -1345 -113 -652 -127 -1399 -392 -1920 -682 l-70
-39 -225 152 c-998 675 -1861 1127 -2438 1276 -177 45 -370 66 -487 52z m380
-362 c403 -101 933 -349 1590 -743 338 -204 719 -451 1022 -664 73 -52 135
-94 138 -94 3 0 74 39 157 87 714 406 1624 699 2443 787 377 41 865 45 1184
11 502 -54 1126 -216 1736 -452 1160 -447 2223 -1272 3091 -2398 209 -270 306
-419 501 -770 319 -571 532 -1038 685 -1500 123 -372 261 -970 534 -2315 63
-311 128 -614 145 -675 34 -120 110 -340 213 -619 81 -218 113 -333 96 -350
-19 -19 -139 -11 -245 18 -55 15 -158 52 -230 82 -71 31 -145 60 -162 66 -69
24 -165 -35 -179 -110 -9 -45 10 -120 66 -269 30 -81 37 -109 28 -115 -17 -11
-64 -10 -213 3 -154 13 -230 3 -329 -44 -92 -43 -189 -127 -282 -241 -171
-209 -237 -283 -391 -435 -217 -214 -468 -419 -727 -595 -459 -312 -1157 -654
-1535 -751 l-124 -33 -56 67 c-383 458 -796 744 -1142 791 -170 23 -366 -23
-602 -141 -357 -180 -773 -582 -1099 -1064 l-75 -110 -109 -7 c-493 -29 -1051
-32 -1509 -7 -1430 78 -2597 391 -3519 946 -491 295 -959 722 -1317 1199 -177
238 -227 261 -503 234 -55 -5 -101 -8 -103 -6 -2 2 8 34 22 72 40 105 75 238
75 283 0 102 -78 183 -180 184 -36 1 -72 -12 -166 -56 -152 -71 -262 -112
-358 -131 -118 -25 -120 -24 -113 28 4 24 58 201 120 392 147 447 172 551 257
1059 212 1260 270 1565 389 2041 140 557 313 1082 482 1463 l69 154 -54 156
c-130 375 -232 722 -336 1146 -269 1093 -359 2009 -260 2630 49 304 132 516
267 680 109 132 169 158 358 151 100 -3 158 -12 250 -35z m11692 7 c36 -9 61
-26 108 -73 180 -179 282 -439 342 -865 24 -177 24 -740 0 -995 -47 -483 -127
-956 -244 -1455 -25 -107 -48 -205 -50 -217 -3 -13 -8 -23 -12 -22 -3 0 -41
50 -83 112 -79 114 -207 283 -356 466 -45 56 -79 107 -76 113 4 6 3 8 -3 5
-13 -8 -155 152 -146 166 3 6 1 7 -5 3 -12 -7 -75 68 -65 78 3 3 0 6 -9 6 -8
0 -23 9 -34 21 -14 16 -15 22 -5 28 8 6 9 11 3 15 -6 3 -12 0 -15 -6 -6 -16
-52 30 -52 52 -1 8 -6 14 -12 13 -6 -1 -17 5 -25 14 -11 14 -11 16 2 8 8 -4
13 -6 10 -2 -3 3 -8 5 -12 4 -14 -3 -197 186 -191 197 3 6 2 8 -2 3 -5 -4 -16
0 -26 9 -14 12 -15 22 -8 47 10 37 62 301 78 402 7 39 16 95 21 125 9 51 15
111 40 360 5 52 10 131 11 175 2 134 1 132 103 175 48 21 95 36 104 33 8 -4
13 -2 9 3 -3 5 16 18 41 27 26 10 55 23 65 28 10 5 22 7 27 4 4 -3 10 -1 12 4
1 6 32 20 68 32 36 12 79 28 95 34 17 7 54 21 84 30 61 20 101 53 101 85 0 29
-35 60 -69 60 -16 0 -112 -24 -213 -54 -531 -157 -1073 -390 -1493 -641 -69
-41 -127 -75 -131 -75 -3 0 -52 31 -109 69 -57 38 -180 113 -275 166 -94 54
-167 101 -163 106 15 14 470 287 678 406 923 529 1606 791 1882 721z m-15911
-11591 c650 -106 1181 -386 1649 -869 399 -410 629 -826 722 -1308 22 -116 26
-162 27 -330 0 -162 -3 -213 -22 -305 -52 -265 -153 -469 -297 -604 -114 -106
-347 -206 -555 -238 -286 -43 -532 55 -776 310 -135 140 -250 313 -379 569
-155 306 -252 440 -409 565 -264 210 -550 237 -860 81 l-59 -30 6 29 c25 126
30 193 18 236 -14 49 -56 99 -104 124 -29 15 -30 14 -84 -39 -336 -329 -537
-813 -582 -1408 -48 -633 -38 -934 45 -1365 192 -992 699 -1949 1404 -2655
292 -292 548 -492 900 -703 144 -86 494 -259 662 -326 419 -168 904 -300 1410
-382 l136 -22 17 -96 c24 -138 71 -349 105 -473 17 -59 30 -112 30 -116 0 -15
-312 38 -614 104 -592 131 -1257 387 -1761 679 -192 111 -225 131 -367 226
-906 601 -1724 1502 -2340 2579 -622 1086 -938 2225 -915 3295 11 509 81 923
228 1343 15 45 26 82 24 82 -24 0 204 221 345 335 506 408 1085 654 1708 725
117 13 580 4 688 -13z m12244 -17 c12 -12 56 -75 100 -140 204 -309 299 -531
376 -880 19 -85 38 -158 43 -163 21 -21 38 4 54 80 51 236 48 464 -9 712 -8
35 -13 65 -11 67 6 7 247 -242 319 -329 206 -250 384 -526 544 -842 178 -353
293 -666 374 -1016 28 -122 70 -350 70 -381 0 -9 -22 -24 -56 -36 -66 -26
-265 -85 -269 -80 -2 2 3 32 12 68 22 92 11 207 -30 329 -31 93 -33 96 -62 96
-27 0 -30 -3 -29 -30 0 -16 9 -68 19 -114 32 -151 6 -298 -65 -366 -38 -37
-234 -106 -317 -112 -170 -13 -333 107 -438 322 -25 50 -54 126 -66 170 -33
120 -39 135 -72 151 -62 33 -130 -7 -143 -85 -33 -196 -126 -409 -222 -509
-81 -84 -148 -115 -262 -120 -281 -14 -448 137 -536 483 -33 129 -44 150 -90
165 -70 23 -134 -19 -148 -97 -13 -72 -57 -208 -93 -286 -34 -72 -38 -77 -62
-72 -34 7 -644 85 -664 85 -31 0 -52 155 -39 272 5 37 4 74 0 83 -11 18 -42
20 -56 3 -17 -21 -42 -175 -42 -260 l0 -80 -28 5 c-15 3 -68 11 -116 18 l-88
12 7 71 c12 124 55 366 91 506 173 678 531 1316 1004 1791 166 167 312 286
461 376 180 109 302 151 437 152 70 1 85 -2 102 -19z m-6649 -1116 c46 -26
103 -58 127 -71 l43 -24 -24 -42 c-13 -23 -83 -139 -155 -257 l-131 -215 37
-23 c73 -46 460 -232 602 -290 501 -206 1082 -364 1675 -456 147 -23 263 -39
282 -38 5 0 28 -19 53 -42 155 -143 291 -203 746 -326 709 -193 1056 -259
1969 -375 491 -62 628 -91 776 -165 53 -26 169 -102 169 -111 0 -19 -316 -146
-449 -179 -23 -6 -41 -13 -39 -16 3 -2 56 -11 119 -18 114 -14 418 -14 505 0
l41 6 27 -73 c28 -79 46 -162 46 -213 0 -40 -41 -81 -160 -162 -105 -71 -256
-143 -375 -179 -49 -15 -97 -29 -105 -33 -33 -12 114 -23 250 -18 127 4 202
13 288 32 23 5 23 4 -6 -38 -33 -47 -100 -113 -147 -146 -57 -38 -370 -190
-505 -245 -393 -158 -833 -267 -1310 -321 -74 -9 -138 -16 -141 -16 -20 0
-122 253 -164 405 l-27 100 -297 -4 c-183 -2 -378 2 -511 10 -118 8 -289 14
-380 13 -146 0 -177 -3 -272 -28 -183 -46 -316 -110 -468 -222 -47 -34 -107
-85 -135 -113 -33 -34 -57 -51 -74 -51 -29 0 -61 -26 -61 -51 0 -31 11 -48 45
-69 25 -16 31 -25 28 -44 -4 -21 4 -29 59 -61 149 -89 396 -207 568 -272 62
-23 351 -123 357 -123 2 0 3 17 3 38 0 20 3 68 7 106 l6 69 96 -6 c636 -41
1148 -27 1619 44 73 11 136 18 141 15 4 -3 37 -56 71 -118 109 -195 227 -378
536 -829 l93 -136 -87 -66 c-163 -121 -406 -353 -542 -517 -73 -89 -183 -257
-235 -360 -218 -434 -168 -835 142 -1131 129 -122 250 -171 423 -170 115 0
221 29 357 97 202 100 466 314 665 539 l93 106 20 -27 c250 -343 396 -501 588
-638 37 -26 67 -51 67 -54 0 -4 -28 -34 -62 -69 l-61 -62 27 -7 c53 -13 208 1
259 24 45 20 51 20 115 7 214 -46 417 16 589 179 97 91 149 163 203 280 56
118 71 184 77 336 8 214 -35 404 -146 635 -111 233 -295 479 -512 686 l-90 85
63 81 c35 45 173 217 308 383 135 166 285 357 333 424 49 66 94 127 102 135
11 11 38 8 171 -19 141 -29 184 -33 374 -37 205 -5 326 4 469 33 l34 7 -7
-284 c-11 -490 -30 -780 -77 -1203 l-20 -178 21 -44 c36 -73 102 -105 185 -90
45 9 101 57 114 99 15 47 46 337 75 702 18 216 27 489 26 793 l0 343 23 -12
c146 -77 283 -221 380 -399 73 -135 150 -370 197 -598 l21 -104 -61 -71 c-185
-217 -332 -504 -443 -864 -82 -265 -128 -528 -127 -727 1 -66 2 -70 16 -51 14
17 190 370 392 785 150 308 401 688 509 771 17 13 64 51 105 84 242 198 522
241 804 124 174 -73 352 -226 418 -361 43 -88 81 -231 94 -359 10 -90 8 -326
-2 -399 -3 -19 -10 -73 -16 -120 -25 -198 -106 -505 -207 -785 -287 -795 -827
-1589 -1208 -1776 -112 -54 -181 -71 -326 -76 -107 -5 -138 -2 -215 17 -186
46 -351 148 -520 322 l-91 93 -22 91 c-41 178 -25 379 62 765 l33 146 -91 6
c-621 41 -1109 55 -1842 52 l-652 -2 -98 -80 c-211 -172 -398 -278 -638 -365
-525 -189 -1106 -128 -1597 168 l-56 34 -144 -30 c-78 -16 -224 -50 -323 -74
-99 -24 -181 -44 -182 -43 -1 1 5 70 13 152 15 152 22 502 15 740 -19 621
-170 1224 -398 1582 -177 281 -373 428 -671 505 -166 42 -379 50 -532 18 -319
-65 -573 -253 -747 -551 l-38 -66 -44 121 c-168 460 -526 927 -833 1087 -71
36 -178 79 -200 79 -25 0 5 -50 108 -180 279 -350 356 -464 469 -695 122 -250
197 -483 249 -772 42 -237 48 -313 36 -483 -6 -85 -8 -195 -5 -245 14 -228 18
-268 35 -387 23 -151 66 -325 116 -469 39 -113 56 -139 88 -139 54 1 63 28 71
225 4 94 8 190 10 215 2 25 4 119 5 210 8 632 69 1039 196 1292 111 222 286
372 501 429 60 17 108 21 208 21 152 0 270 -26 399 -87 298 -141 538 -647 621
-1310 23 -189 32 -295 34 -430 2 -66 4 -133 6 -150 7 -47 -13 -414 -30 -580
-45 -436 -142 -828 -269 -1090 -65 -132 -122 -213 -202 -281 -198 -170 -447
-236 -717 -189 -109 19 -254 67 -335 111 -34 19 -68 34 -75 34 -33 0 -150 186
-191 306 -45 129 -118 449 -164 722 l-28 162 -53 -139 c-69 -182 -123 -274
-229 -383 -177 -184 -419 -303 -727 -359 -162 -30 -442 -32 -630 -5 -301 43
-636 150 -880 281 -133 71 -156 85 -255 153 -220 151 -388 319 -534 535 -22
31 -41 55 -43 53 -7 -6 89 -280 121 -346 47 -95 170 -278 267 -395 243 -293
491 -521 764 -702 119 -79 203 -128 313 -184 72 -36 36 -29 -114 22 -527 180
-1026 563 -1405 1074 -131 177 -164 238 -223 416 -344 1030 -339 2158 15 3574
152 609 422 1382 706 2019 262 589 486 1023 1203 2326 37 68 130 244 202 383
5 9 10 17 12 17 2 0 41 -21 87 -46z m9145 -616 c411 -424 740 -965 879 -1443
50 -174 85 -387 85 -520 0 -69 -1 -72 -37 -107 -101 -96 -284 -217 -438 -289
l-85 -40 0 -94 c0 -107 -22 -278 -48 -381 l-18 -69 -107 -43 c-366 -148 -764
-161 -1209 -38 -147 41 -440 154 -432 167 3 5 24 9 47 9 63 0 204 27 283 54
78 27 73 30 -51 40 -136 11 -341 77 -467 151 l-77 45 -11 57 c-13 58 -10 267
3 280 4 3 62 12 130 19 154 16 302 46 426 86 l96 32 -102 12 c-170 21 -443 84
-443 103 0 16 119 137 174 176 110 78 215 121 446 180 268 70 369 103 495 164
289 141 411 342 362 595 -10 48 -35 124 -56 171 -79 170 -249 386 -320 405
-34 9 -38 14 -58 75 l-21 66 146 73 c81 40 181 92 222 114 41 23 80 41 86 42
6 0 51 -42 100 -92z m-4900 -891 c0 -1 -4 -46 -10 -100 -8 -81 -12 -96 -25
-92 -9 2 -81 18 -161 34 -210 43 -650 152 -667 165 -1 0 193 -1 430 -2 238 -2
432 -5 433 -5z m3026 -485 c66 -66 140 -116 220 -146 l46 -18 -59 -50 c-140
-116 -274 -329 -319 -506 -12 -44 -17 -51 -33 -46 -10 3 -34 3 -53 -1 -50 -9
-74 -52 -74 -135 0 -73 -38 -196 -85 -277 -44 -75 -131 -159 -198 -193 -54
-27 -87 -37 -87 -26 0 2 11 28 24 57 13 30 31 84 40 122 73 291 16 587 -158
830 -55 77 -55 77 -28 77 57 1 170 31 240 66 90 44 185 131 248 226 44 67 59
97 98 193 l17 39 49 -74 c28 -41 78 -104 112 -138z m-1412 91 c8 -21 16 -42
18 -46 2 -4 -9 -5 -25 -2 -55 13 -54 12 -36 50 9 19 19 35 23 35 3 0 12 -17
20 -37z m1344 -1478 c18 -38 47 -92 64 -119 17 -27 29 -53 26 -58 -3 -5 -2 -7
3 -6 11 3 139 -123 135 -134 -1 -5 2 -6 8 -3 6 4 19 0 28 -8 56 -48 328 -165
517 -222 50 -15 92 -29 94 -31 8 -7 -43 -83 -52 -77 -6 3 -7 1 -3 -5 9 -14
-38 -85 -49 -74 -5 4 -5 1 -1 -5 9 -16 -17 -56 -29 -45 -5 4 -5 2 -2 -4 6 -10
-79 -144 -107 -169 -6 -6 -12 -16 -14 -23 -4 -22 -171 -238 -396 -517 -286
-353 -364 -452 -389 -500 -18 -32 -22 -57 -22 -130 0 -122 16 -148 184 -315
75 -74 165 -170 199 -212 186 -230 319 -491 351 -688 22 -135 8 -303 -31 -373
-7 -12 -12 -25 -13 -29 -1 -18 -81 -128 -91 -124 -6 2 -11 -1 -10 -8 1 -16
-74 -80 -128 -109 -60 -31 -180 -31 -258 2 -32 13 -58 27 -58 32 0 5 -3 8 -7
8 -21 -3 -33 2 -27 13 4 6 3 8 -3 5 -13 -8 -118 66 -180 126 -31 30 -40 44
-32 53 7 8 6 15 -2 20 -7 4 -9 3 -5 -4 3 -6 2 -13 -2 -16 -20 -12 -258 266
-246 286 4 6 3 8 -4 4 -6 -4 -53 58 -116 153 -97 147 -109 161 -158 185 -59
29 -120 33 -182 11 -22 -8 -44 -11 -50 -8 -6 3 -8 3 -4 -2 4 -4 -18 -38 -50
-74 -32 -36 -75 -88 -97 -116 -67 -85 -137 -155 -148 -148 -5 3 -7 2 -4 -4 3
-5 -34 -50 -84 -99 -49 -48 -89 -84 -89 -79 0 5 -7 0 -15 -12 -24 -34 -193
-155 -206 -147 -7 4 -9 3 -6 -3 8 -12 -71 -55 -85 -46 -6 3 -8 2 -5 -4 7 -11
-71 -46 -84 -37 -5 3 -9 1 -9 -5 0 -15 -105 -33 -153 -26 -52 8 -123 46 -119
64 1 7 -2 9 -8 6 -7 -4 -23 4 -37 16 -40 37 -105 138 -97 151 4 6 3 8 -4 4 -6
-4 -20 17 -33 51 -20 49 -23 77 -24 179 0 82 4 126 12 136 7 8 10 18 7 21 -21
21 103 275 203 417 100 140 384 421 553 547 185 137 228 204 218 341 -6 83
-26 122 -153 307 -198 288 -425 638 -425 657 0 5 5 6 12 2 7 -4 8 -3 4 5 -4 6
-11 9 -16 6 -12 -7 -72 94 -64 107 5 7 2 8 -6 3 -10 -6 -12 -4 -7 9 4 9 3 15
-2 12 -5 -3 -11 3 -14 15 -6 23 -9 21 98 48 218 55 489 151 722 256 92 42 174
79 182 82 10 5 12 2 6 -8 -4 -8 -5 -11 -1 -7 4 3 8 10 8 15 2 14 118 74 130
67 7 -5 8 -2 3 6 -6 10 -4 12 11 6 10 -4 15 -4 11 0 -9 9 65 54 77 47 5 -4 6
-1 2 5 -3 5 9 19 26 30 18 12 49 37 67 56 34 35 38 36 105 36 154 0 296 60
407 170 65 65 137 173 160 239 l12 34 19 -74 c10 -41 33 -105 52 -144z m1920
-5874 c14 -15 15 -21 4 -27 -7 -4 -10 -4 -6 1 11 11 -12 36 -25 28 -6 -3 -7
-1 -3 5 9 15 10 15 30 -7z m57 -18 c13 -16 12 -17 -3 -4 -17 13 -22 21 -14 21
2 0 10 -8 17 -17z m-11006 -123 c10 -11 16 -20 13 -20 -3 0 -13 9 -23 20 -10
11 -16 20 -13 20 3 0 13 -9 23 -20z"/>
<path d="M15607 29932 c-36 -40 -15 -96 43 -113 22 -7 37 -16 33 -22 -3 -6 -1
-7 6 -3 10 7 141 -34 186 -58 11 -5 23 -9 28 -8 4 1 7 -3 7 -9 0 -5 4 -8 9 -4
10 6 84 -25 89 -38 2 -4 8 -5 13 -2 5 3 19 0 31 -7 13 -6 28 -13 33 -14 6 -1
53 -20 105 -42 l95 -40 16 -229 c32 -443 118 -936 221 -1263 77 -244 144 -425
199 -533 28 -54 29 -59 14 -87 -8 -16 -20 -29 -26 -27 -7 1 -14 -5 -16 -13 -4
-13 -3 -13 6 0 6 8 11 11 11 7 0 -12 -33 -54 -42 -53 -3 1 -10 -3 -15 -8 -5
-5 -3 -6 5 -2 20 12 14 -4 -18 -44 -16 -21 -30 -43 -30 -50 0 -6 -4 -9 -8 -6
-5 3 -9 0 -9 -7 0 -14 -97 -173 -124 -202 -17 -19 -19 -24 -19 -43 0 -5 -9
-18 -20 -30 -12 -12 -18 -22 -14 -22 3 0 -2 -12 -12 -27 -10 -16 -42 -74 -70
-130 -56 -109 -59 -133 -18 -160 47 -31 63 -15 209 203 480 721 1075 1356
1593 1699 39 26 72 51 72 56 0 17 -199 205 -323 305 -510 409 -1255 775 -2049
1004 -153 45 -187 48 -211 22z"/>
<path d="M16416 27018 c3 -5 10 -6 15 -3 13 9 11 12 -6 12 -8 0 -12 -4 -9 -9z"/>
<path d="M16335 26899 c-4 -6 -5 -12 -2 -15 2 -3 7 2 10 11 7 17 1 20 -8 4z"/>
<path d="M25993 23609 c-407 -40 -719 -257 -884 -616 -89 -191 -124 -384 -116
-638 6 -202 19 -278 55 -305 32 -26 48 -25 76 3 15 16 25 41 30 77 21 167 99
442 166 587 167 362 448 544 838 544 132 0 221 -19 327 -71 235 -114 431 -373
536 -705 41 -130 80 -164 129 -115 43 43 19 302 -46 499 -168 507 -594 791
-1111 740z"/>
<path d="M19645 23075 c-596 -93 -960 -531 -992 -1195 -6 -124 7 -288 29 -378
12 -50 45 -77 83 -68 33 8 40 25 60 146 9 58 31 164 50 235 108 426 282 688
545 820 191 96 476 131 665 80 276 -73 503 -296 650 -640 24 -58 56 -143 69
-191 14 -47 31 -93 37 -100 6 -8 26 -14 45 -14 64 0 77 59 53 255 -62 518
-380 916 -826 1031 -123 32 -332 40 -468 19z"/>
<path d="M23232 22039 c-435 -39 -702 -168 -702 -340 0 -53 45 -133 103 -184
128 -112 403 -207 637 -221 160 -10 145 -3 142 -65 -4 -88 -32 -200 -65 -262
-62 -118 -208 -262 -327 -322 -62 -31 -146 -55 -195 -55 -92 0 -220 55 -279
121 -65 71 -110 202 -120 354 -4 60 -11 75 -31 75 -32 0 -95 -201 -95 -304 0
-273 199 -449 505 -449 200 0 361 72 540 244 l80 77 50 -46 c160 -145 349
-232 505 -232 70 0 179 27 247 60 138 68 216 176 231 324 11 100 1 165 -38
241 -42 84 -74 119 -105 111 -14 -4 -23 -13 -23 -24 1 -34 -33 -288 -44 -320
-24 -77 -131 -148 -241 -159 -111 -11 -270 50 -378 147 l-56 49 14 63 c11 47
14 103 11 224 l-5 160 64 17 c36 9 102 34 146 56 212 99 321 238 303 383 -19
150 -161 245 -417 278 -87 11 -325 11 -457 -1z m298 -109 c82 -13 142 -38 138
-58 -4 -20 -44 -31 -148 -38 -94 -7 -178 10 -221 45 -28 22 -24 28 28 46 46
17 115 18 203 5z"/>
<path d="M27611 29504 c0 -11 3 -14 6 -6 3 7 2 16 -1 19 -3 4 -6 -2 -5 -13z"/>
<path d="M27161 27823 c7 -12 15 -20 18 -17 3 2 -3 12 -13 22 -17 16 -18 16
-5 -5z"/>
<path d="M27250 27753 c0 -6 8 -17 18 -24 16 -13 16 -13 2 6 -8 11 -16 22 -17
24 -2 2 -3 0 -3 -6z"/>
<path d="M23105 18061 c-166 -43 -260 -199 -211 -349 64 -192 337 -258 492
-118 67 60 94 116 94 197 0 113 -62 204 -169 252 -49 22 -157 31 -206 18z"/>
<path d="M27190 9311 c0 -23 91 -118 136 -141 42 -22 62 -25 144 -25 79 0 105
5 150 25 62 27 153 80 147 86 -2 2 -30 -1 -63 -7 -34 -7 -113 -9 -189 -6 -105
4 -145 10 -209 31 -43 15 -87 31 -97 37 -12 6 -19 6 -19 0z"/>
<path d="M20140 9243 c-160 -73 -324 -86 -569 -47 l-44 7 30 -44 c42 -61 109
-120 168 -149 40 -20 66 -25 125 -25 98 0 154 27 240 115 59 60 133 171 113
169 -4 0 -33 -12 -63 -26z"/>
<path d="M24183 13830 c-34 -20 -38 -32 -47 -115 -11 -115 -90 -253 -172 -301
-80 -47 -216 -33 -282 29 -32 29 -62 90 -66 131 -2 18 -6 37 -9 43 -3 5 -9 32
-13 60 -9 71 -34 109 -82 123 -32 10 -44 9 -77 -6 -22 -9 -44 -16 -48 -15 -5
1 -6 -2 -3 -7 6 -11 -34 -142 -59 -195 -14 -27 -21 -34 -28 -25 -6 9 -7 7 -3
-5 16 -48 -98 -137 -175 -137 -149 0 -229 96 -229 274 0 78 -12 101 -47 94
-39 -7 -65 -176 -44 -280 7 -31 23 -73 36 -92 13 -19 20 -38 17 -42 -4 -4 -2
-4 4 -1 6 3 17 -4 23 -17 14 -25 100 -68 174 -87 67 -16 171 -7 232 22 28 13
77 49 109 81 33 32 60 57 61 55 1 -1 13 -23 28 -48 99 -174 357 -241 553 -144
83 41 163 120 209 207 l29 55 37 -47 c116 -146 267 -200 426 -151 114 35 190
105 223 205 19 59 15 191 -8 256 -18 52 -21 55 -53 55 -38 0 -37 5 -24 -121
17 -163 -70 -264 -228 -264 -66 0 -107 22 -168 88 -45 49 -132 207 -154 280
-8 26 -60 62 -90 62 -11 0 -35 -9 -52 -20z"/>
</g>
</svg>
