<svg width="752pt" height="752pt" version="1.1" viewBox="0 0 752 752" xmlns="http://www.w3.org/2000/svg">
 <g fill="#fff">
  <path d="m453.53 247.59-7.8711-21.719c-3.5547-9.8125-16.395-12.094-23.117-4.1094l-20.121 23.91c6.0508-0.54297 12.176-0.80469 18.359-0.71484 11.148-0.15625 22.098 0.74609 32.75 2.6328z"/>
  <path d="m308.01 298.96c-28.359 28.004-43.945 65.406-43.887 105.32 0 28.82 7.8555 54.016 23.352 74.891l5.6133 7.5586h-9.4141c-56.137 0-103.93 21.348-109.12 47.605h218.36v-0.44141l5.1445 0.26172c7.5195 0.66797 15.141 0.98047 22.672 0.89063 50.328 0.66797 93.574-14.57 121.79-42.5 22.844-22.609 34.922-53.133 34.922-88.266 0.058594-39.922-15.527-77.332-43.887-105.33-29.695-29.32-69.707-45.121-112.71-44.535h-0.13281c-5.3125-0.085937-10.586 0.085938-15.793 0.49609l-9.4102-8.5195-21.453-19.426c-9.0781-8.2227-23.652-3.5273-26.23 8.4375l-5.9375 27.559-2.625 12.176c-11.297 6.5156-21.793 14.477-31.254 23.816zm173.55-26.828c8.2344 0 14.914 6.6758 14.914 14.914 0 8.2344-6.6758 14.914-14.914 14.914-8.2344 0-14.914-6.6758-14.914-14.914s6.6758-14.914 14.914-14.914zm-41.762 7.9492c8.2344 0 14.914 6.6758 14.914 14.914 0 8.2344-6.6758 14.914-14.914 14.914-8.2344 0-14.914-6.6758-14.914-14.914-0.003907-8.2344 6.6758-14.914 14.914-14.914z"/>
 </g>
</svg>
